<?xml version="1.0" encoding="UTF-8"?>
<!-- Created with Inkscape (http://www.inkscape.org/) -->
<svg width="310.7mm" height="209.18mm" version="1.1" viewBox="0 0 310.7 209.18" xml:space="preserve" xmlns="http://www.w3.org/2000/svg"><g transform="translate(113.05 -6.495)"><path d="m-110.93 88.048c1.8329-9.1787 11.255-13.642 19.378-16.107 4.5175-2.0241 9.5395-3.3339 13.88-5.4803 1.4627-4.8378-3.3203-7.7148-4.304-12.073-2.7441-9.2687-4.4878-19.24-3.1687-28.865 3.4225-12.983 19.256-19.756 31.423-14.844 8.8907 3.4037 15.884 12.542 14.387 22.423-0.84627 10.033-1.626 21.146-8.0273 29.369-1.9918 5.8366 5.1409 5.3645 8.5291 7.3583 6.5424 1.241 2.3245 2.7885-1.7331 3.9433-3.8635 1.9045-7.8715-1.4276-11.593-2.5352-0.65237-6.6067-5.7594-1.4984-10.227-1.9695-4.5773 0.44221-9.6001-4.5186-10.397 1.9695-8.8254 3.9688-18.515 6.1158-26.915 10.985-3.6901 2.3134-6.1717 6.4808-5.1714 11.004-0.39721 3.8362 1.542 13.475-4.9535 11.06-4.4566-4.402-1.281-10.866-1.1079-16.238zm51.063-25.116c8.6917-1.8667 12.45-11.171 13.17-19.168 0.92212-7.3874 3.543-16.727-2.3941-22.657-7.769-9.2245-24.904-7.0664-29.574 4.2895-2.1844 8.2466 0.16491 17.024 1.9012 25.189 1.7721 7.4607 8.7744 14.013 16.897 12.347zm-15.457-7.8348c-0.55765-0.29595-0.1316 0.31733 0 0zm180.02 46.982c-6.8976 8.5112-7.3419-7.6284-6.4844-12.163-0.8384-6.9961-8.5552-9.8792-14.356-11.92-5.9482-2.4217-11.733-4.1979-17.67-6.7599-0.51716-6.8726-3.6095-5.0256-9.1625-3.757-4.1355 1.6204-11.961-5.4923-10.429 2.5284-2.4518 2.8348-6.8356 3.1832-10.206 4.5929-1.8145-1.0712-11.068-2.5496-6.4782-3.9276 3.5468-1.3962 7.3612-2.5489 10.704-4.1846 1.6303-4.5282-1.236-7.7-3.2403-11.234-3.6897-9.0375-4.8249-19.078-4.6973-28.771 1.4712-13.296 16.563-21.82 29.043-18.334 10.383 2.3753 19.065 12.612 17.244 23.659-1.1119 9.6996-1.3808 20.89-8.0717 28.642-1.0234 4.7349 0.90693 7.7173 5.7741 8.3222 9.3059 3.9829 21.004 5.6752 26.335 15.355 2.5404 6.2004 2.4177 11.605 1.6949 17.952zm-46.288-40.911c8.8658-1.5921 12.358-11.215 13.188-19.114 1.1046-7.728 3.5729-17.561-3.1169-23.471-7.8659-7.9666-23.293-6.1263-28.429 4.2111-3.0844 7.8623-0.19095 16.691 1.0525 24.722 1.545 7.9432 8.541 15.54 17.306 13.652zm-62.016 87.642c-15.965 0.1783-30.094-13.971-29.838-29.939-0.28625-14.306 10.712-27.547 24.842-29.801 14.895-2.9586 30.576 7.037 34.288 21.66 4.4831 14.946-4.7332 32.139-19.668 36.555-3.0736 1.1758-6.3844 1.3205-9.6252 1.5244zm4.6987-6.5248c12.645-2.1376 21.794-15.281 19.172-27.954-0.66771-3.2795-2.0767-9.8372-5.8093-5.0758-8.6395 6.7186-17.609 13.862-26.143 20.286-2.4739 2.2973-5.7078 3.9432-7.8301 6.4748 5.014 5.6337 13.33 7.3819 20.61 6.2695zm-24.155-11.558c12.207-9.6784 24.562-18.9 36.68-28.672-8.2583-9.6467-25.074-9.5911-33.771-0.39913-7.724 7.2626-9.6026 20.552-3.5142 29.293l0.60557-0.22157zm47.014-1.6356c-0.2711 0.0611 0.20176 0.61731 0 0zm18.287-17.521c-6.9924-2.9268-0.22624-13.487-4.4407-18.754-5.532-7.2744-15.386-8.234-23.237-11.863-3.2031-1.808-9.5107-1.6419-8.9427-6.6895-5.1444 1.4021-10.812 2.8574-15.994 0.35179-3.202-1.0262-2.0538 5.2512-6.8906 4.8587-8.1175 3.5521-17.156 5.2811-24.513 10.351-4.4702 3.1259-4.296 8.8087-3.9491 13.744 3.0556 5.2771-4.6887 11.987-6.427 4.5159 0.13602-7.4157-1.2061-16.496 5.2444-21.78 6.8216-6.4084 16.64-7.8906 24.997-11.619 6.0743-0.58527 3.0513-7.0897 0.56332-10.159-4.2022-9.151-5.1051-19.643-5.1198-29.607 1.6145-14.12 18.423-22.649 31.264-17.693 9.254 3.3077 16.541 12.534 15.107 22.792-1.2906 9.78-1.3641 21.015-8.1564 28.885-1.4273 4.6986 2.6258 5.7028 6.2453 6.838 7.9779 3.344 17.57 5.0413 23.293 11.671 5.6416 5.4902 4.3515 14.956 3.8396 22.241-0.47708 1.0816-1.6526 2.0467-2.8834 1.9159zm-7.9615-23.02c-0.43744-0.51075-0.26724 0.70913 0 0zm-7.0415-3.427c-1.0431-0.50742-0.2539 0.32664 0 0zm-54.361-7.127c-0.34732-0.50168-0.17033 0.51491 0 0zm14.32-2.1389c-0.2711 0.0611 0.20174 0.61731 0 0zm12.066-6.2406c9.3543-1.86 12.697-12.208 13.404-20.553 1.3244-7.7674 3.0184-17.912-4.6437-23.034-8.5986-7.6095-24.476-3.8722-27.963 7.3551-1.1437 8.8132 0.48764 18.006 3.1687 26.444 2.4275 6.372 8.9458 11.318 16.035 9.7877z" fill="#f00" stroke="#f00" stroke-width="1.7311"/><g fill="#001eff" stroke-width=".26458"><path d="m54.214 118.74c-5.4155-1.9352-7.6204-8.1728-4.643-13.135 1.8086-3.0139 4.3562-4.2271 8.8768-4.2271h2.9411v17.727l-3.1089-0.0116c-1.8419-7e-3 -3.4989-0.15101-4.066-0.35367z"/><path d="m48.884 141.3c-4.386-1.0333-7.4799-5.887-6.5489-10.274 0.7142-3.3655 3.0073-5.8884 6.2671-6.8953 1.5018-0.46385 2.4596-0.53457 7.2404-0.53457h5.5096l0.29492 1.5214c0.94718 4.8861 3.5918 8.4642 7.7741 10.518 2.2788 1.1192 4.5038 1.5665 6.6905 1.3452 6.2874-0.63627 11.085-5.1829 12.056-11.424l0.30479-1.9605h2.2778c2.548 0 4.1784 0.60056 5.1116 1.8828 0.65391 0.89857 0.92262 3.5416 0.84654 8.3268-0.08151 5.1267-0.50882 6.3048-2.6422 7.2844-1.0007 0.45952-2.2324 0.48485-22.622 0.46522-11.86-0.0114-22.012-0.1264-22.56-0.25549z"/><path d="m56.971 163.32c-3.7211-1.2857-6.1648-4.615-6.1648-8.3987 0-1.559 0.60413-3.8895 1.1718-4.5204 0.15586-0.17321 0.58103-0.72791 0.94484-1.2327s1.1972-1.2814 1.8521-1.726c2.3578-1.6006 2.6274-1.6212 21.231-1.6212 17.967 0 17.932-2e-3 19.329 1.2615 0.60585 0.54829 1.2446 2.0222 1.2446 2.8719 0 0.34603 0.11906 0.62915 0.26458 0.62915 0.16652 0 0.26458 1.7528 0.26458 4.7292 0 4.5513-0.02484 4.7736-0.66085 5.9116-0.79548 1.4233-1.301 1.8879-2.4875 2.2864-0.6387 0.2145-5.9302 0.29954-18.256 0.29341-16.002-8e-3 -17.464-0.0457-18.733-0.48405z"/><path d="m101.75 180.45c-0.0689-0.19575-0.1588-2.38-0.19979-4.8538-0.0711-4.2896-0.10793-4.5653-0.79577-5.9531-0.39668-0.80037-1.0873-1.8422-1.5348-2.3151l-0.81352-0.85989 0.81352-0.8599c0.44744-0.47294 1.1381-1.5147 1.5348-2.3151 0.70537-1.4232 0.72415-1.5862 0.85353-7.4083 0.142-6.3897 0.023-7.3469-1.1644-9.3704-0.34882-0.59438-0.94632-1.4168-1.3278-1.8277l-0.69356-0.74703 1.0318-1.1722c0.56751-0.64473 1.2922-1.8686 1.6105-2.7196 0.54627-1.4607 0.57399-1.9021 0.49489-7.8787l-0.0838-6.3313-1.0583-1.831c-1.9856-3.4351-4.9133-4.8992-9.7971-4.8992h-1.9769v-9.2676l17.31 0.1396 0.44323 2.6458c1.3419 8.0104 5.6737 15.262 12.022 20.124l1.9936 1.527-1.9001 1.8746c-3.3076 3.2631-5.456 6.4865-7.2247 10.84-0.47986 1.181-0.97027 2.3855-1.0898 2.6765s-0.2409 0.70776-0.2697 0.92604-0.24558 1.4983-0.48173 2.8444-0.42936 3.2863-0.42936 4.3115c0 1.6263 0.0828 1.9468 0.64943 2.5134 1.504 1.504 3.8475 0.41682 3.8496-1.7859 3e-3 -3.4989 1.5055-9.325 3.2518-12.611 1.6466-3.0986 4.0199-6.0257 6.6358-8.184l1.2898-1.0642 2.4144 0.87282c4.4144 1.5958 10.237 2.4058 11.733 1.6322 1.5985-0.82662 1.633-3.2008 0.0584-4.015-0.43061-0.22268-1.4722-0.38884-2.4374-0.38884-3.2973 0-8.3587-1.4276-11.714-3.3041-8.3716-4.6817-13.462-12.697-14.285-22.493-0.22942-2.7301-0.32012-2.9942-1.1812-3.4395-0.67039-0.34667-2.4352-0.40682-11.998-0.40894-6.2198-1e-3 -11.499 0.10629-11.855 0.24179-1.4194 0.53964-1.4045 0.43422-1.5468 10.989l-0.13229 9.8157-0.73302 1.4926c-0.8143 1.6582-2.4532 3.312-4.2016 4.2399-0.96878 0.51414-1.551 0.61127-3.6813 0.61411-2.1605 3e-3 -2.7126-0.0901-3.7755-0.63621-1.6304-0.83757-3.477-2.8386-4.362-4.7267l-0.7091-1.5129-0.0832-14.42c-0.08013-13.888 0.02569-16.505 0.7262-17.962 0.11285-0.23466 0.43106-0.89528 0.70713-1.468 1.294-2.6846 4.441-5.0349 7.8026-5.8273 2.4689-0.58197 41.341-0.59168 45.423-0.01135 7.4081 1.0531 13.086 3.81 18.545 9.005 5.9782 5.6891 9.4032 13.125 9.9746 21.655 0.1807 2.6975 0.22425 2.8543 0.96668 3.479 0.94658 0.79648 1.6476 0.82283 2.8232 0.1061l0.89577-0.54611-0.14775-3.7524c-0.14083-3.5764-0.69022-6.4801-1.7488-9.2425l-0.27881-0.7276h45.76v54.504h-22.754c-12.515 0-22.753-0.0298-22.751-0.0661 2e-3 -0.0364 0.35712-1.1972 0.78998-2.5797 0.98275-3.1387 1.5799-8.9496 1.0883-10.59-0.2588-0.86379-0.47277-1.0834-1.2941-1.328-1.2576-0.37462-2.2805-0.0102-2.787 0.99303-0.20914 0.41422-0.4406 1.9598-0.5267 3.5171-0.71506 12.933-9.975 24.742-22.532 28.735-4.2017 1.3361-5.5005 1.4706-15.552 1.6107-7.7734 0.10838-9.4798 0.0685-9.5828-0.22405z"/><path d="m65.291 186.02c-2.6545-0.63489-5.2164-2.7539-6.3742-5.2725-0.41302-0.89843-0.55014-1.7437-0.5587-3.4443-0.01021-2.027 0.07645-2.4321 0.86171-4.028 0.96556-1.9623 2.3201-3.253 4.4397-4.2305 1.295-0.59721 1.3763-0.60075 15.457-0.67352l14.155-0.0731 1.1825 0.60231c0.78908 0.40192 1.4204 0.99845 1.8974 1.7929 0.71487 1.1905 0.71492 1.191 0.71492 6.6146v5.424l-0.71625 1.1906c-0.44882 0.74607-1.1079 1.3882-1.7651 1.7198-1.0048 0.50694-1.6213 0.53097-14.675 0.5722-7.4943 0.0237-14.073-0.0639-14.619-0.19453z"/></g><path d="m64.119 215.16c-3.4011-2.5357-2.7948-7.6638-4.4133-11.315-1.5775-4.0119-1.3305-9.603-5.5709-11.933-6.7561-3.1279-14.615-1.8772-21.502-4.5912-3.6537-3.3762 1.4834-7.6444 2.7563-10.989 2.1594-4.1822 5.2273-8.0409 6.3795-12.661 0.36458-4.8528-4.1784-7.8221-6.9698-11.118-2.1378-2.8507-8.606-6.4764-4.571-10.263 2.727-1.8564 5.6139-3.4629 8.4242-5.1882 1.5874 4.6978 6.1927 8.1229 11 8.8342-4.2258 4.816-4.456 12.437-0.33992 17.389 1.4974 2.8971 6.1527 3.6892 7.6093 5.3052-4.8599 5.4656-3.9159 14.784 2.0052 19.109 4.5368 3.955 10.954 2.7706 16.477 3.0571 6.5864-0.15191 13.239 0.39366 19.778-0.53687 2.8691-0.73252 4.8134-3.236 6.0272-5.7994 3.3514-2e-3 6.7028-4e-3 10.054-6e-3 0.0565 8.0083 0.11307 16.017 0.1696 24.025-1.7722 2.9532-5.5431 1.7317-7.9212 0.24454-4.8416-2.1763-9.455-4.9558-14.514-6.5908-4.8558-0.95614-8.1233 3.3212-11.852 5.5637-3.9187 2.6096-7.3501 6.1371-11.713 7.9705-0.45634-0.11892-0.88377-0.32052-1.3139-0.50847z" fill="#f4ff00" stroke-width=".26458"/></g></svg>
