<?xml version="1.0" encoding="UTF-8"?>
<svg width="194.48" height="87.735" version="1.1" viewBox="0 0 194.48 87.735" xmlns="http://www.w3.org/2000/svg">
 <path d="m190.01 0.010842c-1.1473-0.07249-2.525 0.21423-4.1445 0.99023-8.5508 9.3151-13.14 20.359-16.645 31.262-5.2838 4.4967-12.549 8.6786-20.701 9.4512-1.3666-2.6842 5.5972-6.588 5.4551-10.254-0.19589-7.6064-12.739-1.9225-12.125 3.373 1.3778 5.0295-1.2446 8.9632-7.9648 11.146-9.519 2.3166 0.60683-5.6173 1.8828-8.6035 5.8518-4.528-1.4109-12.569-7.4766-6.5-8.0319 5.3933 0.70863 15.15-10.947 18.072-9.695 0.49665-3.5746-12.595-6.8535-15.754 0.38119-1.7549 0.59724-3.5281 0.95117-5.2852 6.1531-3.3639 12.716-6.3664 18.977-9.6504 5.6953-3.9349 16.58-7.3156 16.471-13.674-6.706-5.4397-18.588-0.64974-20.629 5.6191 2.5664-0.86766 12.928-8.6282 15.43-5.2109-7.5946 7.129-18.794 11.432-28.258 17.021-3.1618-0.77276 0.84755-9.8498-1.5059-13.881-4.7656-6.2122-14.598-1.0687-19.766 2.123-7.0484 4.4977-16.333 9.09-17.684 16.508-1.2525 6.6893 13.056 8.0646 14.66 1.6074 1.7266-5.4203-0.36796-0.6109-2.8262 1.5449-5.5197 5.1813-11.686-1.1862-7.1484-5.377 5.4246-6.8853 14.642-11.492 23.311-15.873 6.6925-4.6414 5.9088 2.6308 5.7734 6.1445-1.1672 3.9216 2.0288 9.7817-3.6348 12.029-9.231 5.7448-20.713 11.273-23.789 20.514-2.3335 6.1279 6.0649 12.027 14.051 10.199 8.5661-2.665 11.323-10.176 13.582-16.283 1.3491-5.2795 0.71602-0.14766 0.99218 2.4648-0.81343 7.234 11.973 9.1378 16.957 3.6738 6.2654 0.9092 15.525 0.4782 19.855-5.1074 6.7334 2.6607 14.549 0.30765 20.111-2.9082 2.0776 1.8609-1.8026 11.257-1.4668 16.012-4.9388 3.2426-11.487 5.5454-17.053 8.375-18.65-6.3803-41.791-6.7006-59.621 1.4004-6.9184 3.58-15.291 8.7446-14.479 15.705 2.2932 5.6638 11.74 6.7901 18.605 6.8496 21.611-1.1153 39.526-11.344 56.789-20.176 5.8253-3.0232 10.917 4.4662 14.998 6.9902 7.3998 5.4621 6.7914-2.3053 5.6484-6.1562 0.52132-5.7356-2.7103-13.097 5.9336-16.172 7.3522-4.842-1.7268-0.55316-4.8926 0.90234-0.72019-4.8266 1.5158-12.53 2.9668-18.402 8.4275-6.867 15.071-15.038 19.023-23.914 2.799-3.4056 2.1574-10.483-2.8145-10.797zm-1.0664 4.3008c-1.1474 7.6803-6.4125 14.96-12.121 21.082 3.1294-7.2259 6.2141-14.849 12.121-21.082zm-126.46 13.113c-0.88947 0.01257-1.9781 0.11857-3.1328 0.33203-11.958 2.8434-22.63 8.2058-32.953 13.422 5.0426 4.2564 13.617-1.765 20.34 0.10352 8.1337 2.4416 8.8145 10.134 7.8516 15.764-1.6112 7.2101-4.7205 14.48-10.139 20.592-4.8646-0.50253-4.1993-9.97-4.1719-14.248-2.4675-4.5933 9.222-13.538-0.75195-13.934-5.3965 9.8282-11.077 19.666-17.107 29.314-0.01937-8.8525 1.7017-17.667 2.9043-26.469 1.2959-4.4506 1.1041-13.016-8.002-10.945-8.3661 3.269-13.487 10.008-16.021 16.621-3.8835 5.4774 1.3475 16.352 10.744 10.738 6.7861-6.2205-4.6028 4.1494-7.793 0.22461-3.5871-5.2424 0.03155-11.366 3.4492-16.139 3.2006-3.492 8.9437-10.825 13.824-9.5176 1.293 7.8002-2.0995 15.544-2.5938 23.326 0.58611 5.2183-4.7378 13.268 1.8906 16.604 8.0795 0.73882 8.804-8.3883 12.586-12.26 2.7803-6.1302 1.8135 2.4084 3.5996 4.6406 1.4558 5.5212 12.86 6.7772 15.514 1.0801 5.7873-7.7236 10.583-16.757 8.625-25.756-1.1946-7.8511-12.361-11.727-21.881-11.451 7.2973-3.4784 14.573-6.9997 22.176-10.098 4.5806-1.189 3.7114-1.983 1.043-1.9453zm44.252 13.029c-1.619 7.9046-3.4202 16.363-10.314 22.775-4.677 6.0613-12.991 1.4497-10.609-4.3945 2.3741-8.2849 12.379-13.621 20.924-18.381zm42.672 0.35352c-0.34997 0.93655-0.82542 1.8449-1.3652 2.7285-3.0542 5.4937-1.2739-1.4746 1.3652-2.7285zm-16.801 0.45117c3.0312 0.29257-2.9327 7.7734-5.25 10.238-0.27705-3.6991 1.9595-7.5288 5.25-10.238zm31.998 27.979c-0.13403 3.27-0.17322 6.5442 0.0527 9.8125 1.936 5.6231-3.3756 0.90255-6.6406-0.57617-11.111-2.9054 2.8099-6.0651 6.5879-9.2363zm-43.852 0.89844c8.9698-0.0057 17.98 1.4663 25.99 4.2324-14.463 7.0455-28.913 14.495-45.008 19.33-6.9048 1.5243-17.368 4.8818-22.604-0.60546-3.3852-5.9815 3.7422-11.66 9.4375-15.219 9.1867-5.279 20.651-7.7305 32.184-7.7383z"
 fill="currentColor"/>
</svg>
