<?xml version="1.0" encoding="UTF-8" standalone="no"?>
<svg
   fill="#ffd500"
   version="1.1"
   viewBox="0 0 806.52252 1455.0032"
   id="svg2646"
   sodipodi:docname="coat_of_Arms_of_Ukraine_top_left.svg"
   width="806.52252"
   height="1455.0032"
   inkscape:version="1.2.2 (732a01da63, 2022-12-09)"
   xmlns:inkscape="http://www.inkscape.org/namespaces/inkscape"
   xmlns:sodipodi="http://sodipodi.sourceforge.net/DTD/sodipodi-0.dtd"
   xmlns="http://www.w3.org/2000/svg"
   xmlns:svg="http://www.w3.org/2000/svg">
  <defs
     id="defs2650" />
  <sodipodi:namedview
     id="namedview2648"
     pagecolor="#ffffff"
     bordercolor="#000000"
     borderopacity="0.25"
     inkscape:showpageshadow="2"
     inkscape:pageopacity="0.0"
     inkscape:pagecheckerboard="0"
     inkscape:deskcolor="#d1d1d1"
     showgrid="false"
     inkscape:zoom="0.27380465"
     inkscape:cx="325.04926"
     inkscape:cy="662.88135"
     inkscape:window-width="1280"
     inkscape:window-height="650"
     inkscape:window-x="-6"
     inkscape:window-y="-6"
     inkscape:window-maximized="1"
     inkscape:current-layer="g2644" />
  <g
     transform="translate(-765.9225,737.79166)"
     id="g2644">
    <path
       id="path2642"
       style="fill:#2770bd;fill-opacity:1"
       d="m 1186.6509,-737.79164 c 0.6782,0.013 2.5583,2.04838 4.9785,5.39258 25.7809,35.62996 41.7523,78.78253 46.1191,124.27148 0.5056,5.266 0.9094,15.0425 0.9434,22.80469 0.032,7.45999 -1.9542,89.5314 -4.4004,181.82031 -5.3501,201.8538 -5.1431,191.36418 -4.252,215.41016 2.117,57.11994 8.5684,107.666111 20.1953,158.539061 15.391,67.349932 37.2354,126.242998 69.1934,186.960939 3.6828,6.99699 8.2888,15.96098 10.2383,19.92578 1.9481,3.9618 3.6713,7.18958 3.832,7.17578 1.473,-0.127 36.1241,-12.3297 38.9551,-13.7168 24.679,-12.09198 40.7502,-39.22345 40.8242,-68.85742 0.066,-26.176972 -12.7116,-49.112868 -33.3105,-59.630858 -10.917,-5.574894 -25.0889,-7.297397 -36.6739,-4.4375 -5.1833,1.279539 -6.0519,1.233168 -6.0527,-0.332031 -3e-4,-0.573999 1.6567,-17.065082 3.6836,-36.66406225 2.029,-19.61998075 9.3707,-90.85583375 16.3379,-158.50976875 6.9929,-67.90093 13.4594,-128.54099 14.3457,-134.52148 12.829,-86.55991 46.1307,-166.92305 96.1816,-232.20899 8.275,-10.79398 25.2933,-30.51668 34.041,-39.45507 19.827,-20.25898 41.9128,-38.61689 64.8457,-53.92188 3.8946,-2.59914 4.9175,-3.05134 5.5235,-2.44336 0.6526,0.65 0.1907,65.46077 -3.707,518.82031 -2.7068,314.98969 -4.4543,498.09499 -4.752,498.65821 -0.418,0.79 -12.1237,2.25285 -99.8926,12.46484 l -101.7695,11.8418 -1.416,7.78125 c -11.707,64.37993 -38.6959,127.65091 -77.7168,182.13086 -12.941,18.06698 -36.1666,45.09298 -46.7266,54.35937 -14.815,13.00099 -25.7429,26.4723 -35.668,43.98828 v 0.002 c -2.1663,3.82329 -4.1968,7.08078 -4.5117,7.24023 -0.7081,0.3587 -0.7471,0.3133 -5.7949,-6.99609 -5.356,-7.75499 -9.5018,-12.43918 -16.998,-19.20117 -6.009,-5.4209 -11.3194,-9.29802 -18.2051,-13.28711 -15.181,-8.79499 -42.3306,-33.52146 -60.2246,-54.89844 -35.327,-42.19996 -61.3328,-96.24792 -73.3438,-152.88086 l -1.9804,-9.33399 -112.61918,12.48633 c -101.6339,11.26881 -115.52367,12.70025 -116.03125,11.94727 -0.362,-0.54 -5.06629,-199.69058 -12.83008,-542.990236 -11.25441,-497.920504 -12.69597,-566.452334 -11.91211,-567.169924 0.7304,-0.6686 2.19688,-0.004 8.20117,3.7168 25.45497,15.77498 50.15335,34.60197 72.86133,55.50195 11.21299,10.31899 31.95084,32.14769 42.29883,44.51367 59.86394,71.52993 98.90579,160.26186 112.05079,253.25977 1.318,9.32999 39.5298,324.721077 39.5508,326.421875 0.018,1.464559 -1.0203,1.638534 -6.4707,1.083984 -6.038,-0.614299 -16.0496,0.401833 -22.3106,2.269532 -31.63395,9.43699 -53.56401,40.612359 -53.02147,75.486329 0.483,31.06697 18.62098,56.79156 45.62697,64.93945 2.994,0.9034 40.6306,7.32056 42.1543,7.18945 0.1401,-0.0121 1.9064,-3.65068 3.9258,-8.08398 2.0194,-4.43299 6.7932,-14.47466 10.6074,-22.31445 13.684,-28.12597 21.3705,-45.73914 31.7695,-72.78711 30.589,-79.569922 49.1547,-164.430854 54.8653,-251.00977 2.9612,-44.88995 2.7508,-55.19989 -5.3008,-256.42969 -3.735,-93.3479 -6.8648,-176.47012 -6.9278,-184.04101 -0.065,-7.87799 0.2215,-17.7634 0.6719,-23.0918 2.955,-34.96896 12.9839,-69.17434 28.7559,-98.07031 7.906,-14.48299 19.2884,-31.15664 21.2422,-31.11914 z m 321.7695,271.57031 c -0.1024,0.001 -2.3324,3.15487 -4.957,7.00977 -35.669,52.38995 -59.2865,113.84383 -68.586,178.50976 -1.302,9.05999 -26.988,251.030869 -26.998,254.289066 0,1.411898 0.5128,1.88433 4.2285,3.861328 9.298,4.945995 19.9367,13.4284372 28.5273,22.73632787 14.761,15.99398413 25.4286,36.51782113 31.5313,60.59179713 v -0.0098 c 0.14,0.55455 3.9354,0.441679 16.7324,-0.494141 l 16.4863,-1.205078 1.5938,-259.93945 c 0.8909,-145.25985 1.5438,-265.35061 1.4414,-265.34961 z m -664.90431,7.85156 c -0.1138,0 2.34033,129.34008 5.41993,285.66993 l 5.5039,279.39843 37.93164,-3.10351 2.74414,-9.554689 c 3.0378,-10.57999 8.15731,-23.19725 13.03321,-32.119141 12.33698,-22.572977 31.72995,-43.964762 50.71093,-55.96875 4.0313,-2.5494975 4.62943,-3.1453858 4.60743,-4.5839844 -0.062,-4.0699959 -32.13707,-257.3211756 -33.85157,-267.2304656 -11.71999,-67.73994 -39.25907,-131.45557 -80.33203,-185.22852 -3.0577,-4.00329 -5.65417,-7.2803 -5.76758,-7.2793 z M 1191.4184,16.136094 c -0.1499,0.0098 -1.2037,3.829133 -2.3398,8.486328 -2.785,11.416988 -10.8252,39.813061 -15.2539,53.873047 -13.962,44.329951 -31.0198,86.954571 -52.1348,130.269531 -2.6135,5.36139 -4.8288,10.11193 -4.9238,10.55664 -0.1168,0.5484 2.4005,1.51903 7.8203,3.01563 24.928,6.88299 47.8918,21.19405 63.8418,39.70703 2.3335,2.70826 4.3871,4.90906 4.5625,4.89257 0.1753,-0.0165 2.3146,-2.75082 4.7539,-6.07421 4.764,-6.49 13.7507,-16.4055 20.666,-22.80469 12.701,-11.75299 26.3689,-20.84145 42.1289,-28.02344 4.7352,-2.1579 6.8514,-3.39234 6.7305,-3.92578 -0.097,-0.4281 -2.2951,-4.72303 -4.8887,-9.54883 -17.805,-33.12996 -31.695,-63.75719 -44.998,-99.285154 -8.248,-22.027978 -18.1913,-52.862724 -23.5235,-72.970704 -1.1934,-4.500695 -2.2916,-8.177768 -2.4414,-8.167968 z m 313.5293,114.326176 -33.0117,2.99414 -1.6797,6.23437 c -11.045,41.01396 -38.5118,76.57236 -73.5097,95.02734 -7.226,3.8104 -12.5257,5.96029 -27.8496,11.29688 -6.808,2.3708 -12.4798,4.42735 -12.5958,4.56836 -0.1159,0.1411 0.7176,4.47656 1.8516,9.63086 5.7259,26.02797 8.8146,51.17099 9.6445,78.41797 v 0.006 l 0.3379,11.08789 68.3106,-7.19922 67.2461,-7.08594 0.625,-102.06836 z m -611.24606,49.80664 -37.75,3.07617 2.17578,110.42969 2.15625,109.45898 76.48047,-8.05859 75.22066,-7.92774 0.2168,-11.59961 c 0.5354,-28.60297 3.5228,-55.22787 9.3672,-83.46484 1.1535,-5.5735 1.9852,-10.24118 1.8496,-10.37305 -0.135,-0.1318 -6.1503,-1.13411 -13.3789,-2.22851 -16.33455,-2.4728 -19.24247,-3.01091 -25.65036,-4.75 -41.65096,-11.30399 -75.34075,-44.92249 -89.05273,-89.27344 z m 399.66206,92.60742 c -0.2673,-0.45433 -1.602,-0.18484 -4.8261,0.97265 -16.401,5.888 -27.5703,13.83382 -39.1133,27.8418 -9.3096,11.29799 -14.5563,21.05555 -18.6856,34.76953 -2.6398,8.76799 -5.2487,25.8374 -4.2128,27.5586 v -0.002 c 0.242,0.4032 12.4272,-0.68604 39.0762,-3.49414 l 38.3867,-4.04687 -0.014,-7.45313 c -0.025,-13.19498 -1.8207,-32.29208 -4.5566,-48.41406 -1.4179,-8.35599 -5.4085,-26.63122 -6.0567,-27.73242 z m -202.8535,19.39453 c -0.6745,1.275 -4.6018,20.67727 -5.9922,29.60156 -2.5914,16.63299 -4.2319,36.34844 -4.1699,50.10742 0.018,3.94039 0.049,7.3633 0.068,7.61133 0.02,0.2464 18.1628,-1.5296 40.2187,-3.9375 l 39.8243,-4.34765 -0.1954,-4.12305 c -0.5029,-10.59899 -3.8916,-23.82233 -8.5371,-33.29492 -8.856,-18.05799 -24.538,-32.21073 -42.541,-38.32813 -6.584,-2.2371 -18.1537,-4.27594 -18.6758,-3.28906 z m 206.3008,137.17383 c 10e-4,-0.5723 -7.3144,0.10579 -34.9414,3.24218 l -35.2207,3.99805 0.3594,71.88867 v 0.002 c 0.1988,39.85296 0.5599,71.44901 0.8145,71.41601 0.2513,-0.0326 2.6907,-3.1418 5.4199,-6.9082 18.046,-24.90298 30.3287,-46.6669 42.0117,-74.42188 6.5039,-15.44998 10.7439,-27.30515 14.7988,-41.36914 2.4942,-8.65099 6.7498,-26.20985 6.7598,-27.84765 z m -135.5156,14.6582 -36.0918,4.09766 -36.3867,4.13086 0.4043,2.17773 c 0.79,4.253 4.4539,17.24663 7.2383,25.66992 4.3329,13.10599 8.9386,24.22344 15.8339,38.23242 12.427,25.24898 25.3248,44.14377 44.0508,64.59375 2.8186,3.0781 5.3328,5.56826 5.5879,5.53516 0.258,-0.034 0.2199,-31.9061 -0.086,-72.03906 z"
       sodipodi:nodetypes="scsccccsscsccsssccsssccccccccccscssccccccsccccssccssssccscccsssccccccccccsscsccccsccscsscsccsscssscssscccssscscccccccccccccscsscccsssccccsscccsscscsssccccccssccscccccsccsccc" />
  </g>
</svg>
