<svg fill="#ffd500" version="1.1" viewBox="0 0 1143.5 1712.9" xmlns="http://www.w3.org/2000/svg">
 <g transform="translate(-580.27 862.86)">
  <path d="m989.38 764.23c-118.39-37.844-220.46-70.629-223.5-71.799-24.123-9.2691-48.043-24.863-66.289-43.275-34.42-34.731-55.087-79.781-59.983-131.22-0.66428-6.9795-6.2893-198-19.641-667.44l-19.722-693.4 1103.6 32.123-8.4353 623.6c-7.718 570.57-8.0815 594.83-9.013 602.62-1.7854 14.934-4.4497 28.34-8.3398 41.968-15.781 55.284-49.977 103.98-94.504 134.39-7.7006 5.2582-386.1 238.28-387.1 238.36-0.335 0.0266-92.129-29.205-207.03-65.933v0m402.21-55.73c111.25-68.446 189.93-117.16 194.46-120.38 56.442-40.133 93.942-108.34 99.609-180.89 0.4545-5.8172 2.7878-171 8.4363-597.84l8.1832-618.39-1100.1-31.78 20.009 698.7c15.548 542.92 19.147 663.5 19.94 668.73 1.4939 9.8506 3.6164 20.245 5.755 28.19 16.952 62.972 59.76 112.19 116.64 134.88 10.752 4.2901 430.23 138.41 431.98 138.16 0.7069-0.0992 89.363-54.371 195.05-119.39v0m-200.13 0.6491c-9.268-13.39-20.419-23.788-34.689-32.321-3.4523-2.0644-9.4408-6.2124-13.308-9.2191-60.68-47.171-103.29-117.24-120.91-200.01 0 0-1.9252-9.0425-1.9252-9.0425l-228.57 25.601-12.195-541.62c-9.5082-422.29-12.564-565.79-12.037-565.79 1.8433 0.0111 27.241 16.843 40.757 27.004 56.715 42.639 104.4 98.826 137.24 161.19 7.4962 14.238 9.81 18.971 14.994 30.668 18.555 41.869 31.203 84.678 38.125 128.85 1.5189 9.6928 40.421 329.24 40.459 332.29 0.016 1.2896-0.1691 1.461-1.254 1.1607-2.3372-0.64702-18.672 0.19542-22.786 1.1771-28.499 6.7997-51.057 32.055-56.582 63.446-3.4582 19.647 1.2856 41.26 12.454 56.866 7.9767 11.146 20.015 20.01 32.221 23.748 5.1106 1.5653 43.819 7.9923 44.586 7.4068 0.244-0.18637 2.2675-4.4017 4.4962-9.3669 2.2286-4.9645 6.0167-13.005 8.4181-17.869 12.078-24.461 25.395-54.747 33.935-77.178 34.106-89.576 52.76-182.1 56.204-279.12 0.9767-27.516 0.3288-49.303-6.8757-230.64-5.0707-127.63-7.0512-182.25-6.8653-189.44 1.1796-45.627 13.339-87.368 36.38-124.86 5.8087-9.4513 11.96-17.942 13.004-17.951 1.7875-0.0163 16.079 22.173 23.094 35.846 14.032 27.347 23.524 60.149 26.552 91.615 1.5202 15.797 1.3881 23.565-3.4415 203.2-4.5334 168.62-4.715 177.19-4.3295 203.96 0.6078 42.171 3.2531 74.508 9.3426 114.39 13.626 89.254 40.904 171.42 82.215 248.58 2.3201 4.3332 5.9795 11.517 8.1323 15.965 2.1508 4.4436 4.1037 8.1945 4.3413 8.3388 0.7375 0.44777 36.553-12.009 41.27-14.351 16.925-8.4031 31.176-25.99 37.187-45.861 2.6498-8.759 3.4465-14.267 3.4712-24.002 0.039-15.431-2.9839-26.574-10.592-39-8.7027-14.214-22.32-23.817-38.516-27.117-4.0339-0.82192-19.932-0.11078-24.359 1.0924-2.1131 0.57433-2.2364 0.53041-2.237-0.7973 0-2.5394 31.675-309.17 33.07-320.1 4.5547-35.689 13.842-74.232 26.156-108.53 17.941-49.97 42.904-95.355 74.768-135.99 20.246-25.819 43.806-49.402 69.562-69.659 11.683-9.1883 27.156-20.134 28.448-20.126 0.4282 3e-3 -0.5793 135.76-3.8337 517.76 0 0-4.2382 497.47-4.2382 497.47l-201.69 23.147-1.7185 9.3982c-11.216 61.341-36.396 122.02-72.158 173.84-16.279 23.587-38.529 49.915-53.067 62.778-13.792 12.204-24.907 25.916-33.967 41.92-2.1917 3.871-4.1368 7.0607-4.3221 7.0875-0.1853 0.0268-2.1681-2.5968-4.4078-5.8325v0m-28.621-192.35-0.7002-74.284s-36.996 4.042-36.996 4.042c-33.626 3.6737-37.337 4.1718-37.629 5.0536-0.4471 1.3499 3.3248 15.838 7.2639 27.907 13.267 40.648 34.116 76.202 62.186 106.25 2.5802 2.7623 5.1132 4.9858 5.6308 4.9433 0.8929-0.0736 0.9055-3.839 0.2449-73.916v0m69.926 59.166c27.059-36.703 46.626-76.403 58.899-119.46 3.6168-12.69 7.0245-27.589 6.586-28.797-0.2889-0.79606-3.8323-0.47024-36.194 3.332 0 0-36.167 4.2493-36.167 4.2493l0.2358 73.808c0.2225 69.635 0.2817 73.365 1.1614 73.208 0.5098-0.0911 2.9755-2.9439 5.4787-6.3392v0m-219.87-187.78c0.7284-0.70612 0.8945-3.1049 1.0171-14.703 0.2827-26.737 3.5799-55.353 9.6066-83.323 1.5667-7.2714 1.7835-9.0281 1.1798-9.5631-0.4067-0.36051-7.3206-1.608-15.378-2.7742-18.677-2.7032-29.528-5.4866-41.073-10.546-14.92-6.5384-25.844-14.015-37.65-25.787-15.571-15.527-27.788-36.022-33.845-56.841-0.77466-2.6624-1.8152-5.1569-2.3122-5.5426-1.2734-0.98819-38.505 2.0066-39.51 3.1828-0.52846 0.61845-0.18079 26.362 1.5066 111.72 2.0576 104.08 2.2284 109.97 3.1981 110.45 1.6292 0.81975 152.13-15.175 153.26-16.272v-2e-5m148.46-15.828c0.9143-1.3133 0.2613-11.159-1.2164-18.328-6.768-32.835-30.164-56.92-61.154-62.708-3.4388-0.6422-6.9726-1.0995-7.8505-1.0156-1.8301 0.1748-2.0042 0.68251-4.76 13.883-4.51 21.604-6.9565 43.208-7.4471 65.733-0.1985 9.1138-0.1058 11.061 0.5444 11.435 0.4415 0.25397 18.465-1.4119 41.174-3.8042 35.327-3.7217 40.109-4.3324 40.71-5.1961v0m143.7-14.801c1.455-1.1785-0.1484-29.195-2.7277-47.603-1.66-11.847-5.2531-29.805-7.4444-37.198-0.6911-2.3317-1.5807-2.2888-8.7931 0.42675-14.34 5.3991-26.624 14.256-37.163 26.812-12.514 14.909-19.826 31.449-22.939 51.901-0.946 6.2144-0.9665 13.848-0.038 14.162 1.2114 0.40937 78.344-7.8838 79.106-8.5004v0m199.22-21.084c0.9547-0.67961 0.9821-2.4304 1.6059-103.17 0.4925-79.517 0.5018-103.47 0.039-103.97-0.4427-0.47538-4.9036-0.29578-16.958 0.68374-16.271 1.3221-18.387 1.7207-18.396 3.4675 0 0.42365-0.835 3.684-1.8508 7.2452-9.818 34.419-30.025 63.748-57.608 83.546-11.199 8.0377-21.071 12.797-41.083 19.793-7.9316 2.7728-14.666 5.3313-14.954 5.6813-0.3512 0.42701 0.097 3.3435 1.3624 8.8594 5.9112 25.775 9.3097 52.919 9.8826 78.841 0.2348 10.617 0.4143 12.801 1.0958 13.334 1.0683 0.83455 135.33-13.224 136.86-14.316v0m-307.73-71.744c4.2477-6.1613 15.422-18.821 21.92-24.835 13.924-12.888 31.215-24.136 46.042-29.967 2.4402-0.95959 4.5523-2.0958 4.6946-2.5253 0.1423-0.42947-1.9059-4.7955-4.5542-9.7068-29.4-54.525-52.145-111.28-68.895-172.18-2.4871-9.0439-3.7503-12.781-4.3085-12.744-0.5518 0.03605-1.5571 3.1137-3.3395 10.224-16.186 64.573-38.852 126.44-68.629 187.31-2.6715 5.4613-4.7373 10.249-4.5903 10.639 0.1471 0.38981 1.9726 1.0716 4.0558 1.5149 15.905 3.3843 33.495 11.418 47.83 21.82 7.0559 5.1201 18.171 15.431 22.761 21.11 1.4973 1.8526 3.086 3.3334 3.5311 3.2915 0.445-0.0419 2.0123-1.8214 3.4827-3.9541v0m-303.15-159.82c0.24397-0.44644 1.6219-4.9656 3.0621-10.043 4.8765-17.191 13.992-36.025 24.398-50.417 9.6478-13.343 23.226-26.54 37.004-35.978 4.2305-2.8976 7.4115-5.4732 7.4036-5.9941-0.034-2.2315-31.325-250.87-32.825-260.8-10.336-68.428-38.339-135.86-79.254-190.14-9.6708-12.831-9.6301-12.785-10.708-12.318-0.8682 0.37633-0.45665 25.372 4.7223 287.34 4.3087 217.95 5.7092 280.76 6.2653 281.3 1.0554 1.0276 39.304-1.8086 39.932-2.9562v-1e-5m612.95-44.868c0.4735-0.5755 0.9723-59.055 2.2274-261.72 1.5195-245.38 1.5843-266.46 0.812-266.8-0.5153-0.22716-1.1631 0.10947-1.6829 0.8747-0.4647 0.68426-3.0987 4.5122-5.8541 8.5077-35.991 52.19-60.896 118.94-69.262 185.68-1.1115 8.8671-26.207 246.58-26.211 248.26 0 0.54415 2.5355 2.3927 6.3085 4.5976 7.6629 4.4781 12.25 7.803 19.04 13.8 16.866 14.894 30.193 36.647 37.094 60.463 1.3 4.4859 2.5422 8.4693 2.7613 8.8548 0.5632 0.99086 33.867-1.4247 34.766-2.5174v1e-5" fill="#ffe956" stroke="#ffe956" stroke-linecap="round" stroke-linejoin="round" stroke-width="39.931" style="paint-order:stroke fill markers"/>
  <path d="m1191.7 815.53c-1.3112-0.43857-57.639-18.537-126.27-40.572-69.878-22.434-149.57-48.019-176.1-56.536-26.707-8.5744-62.545-20.065-79.541-25.502-33.87-10.836-42.871-14.178-55.072-20.459-13.637-7.0208-23.415-13.637-36.346-24.605-4.3383-3.6796-8.3584-6.8033-8.9285-6.9373-0.62162-0.14612-0.90849-0.63114-0.71637-1.2114 0.20932-0.6323-0.21981-1.1492-1.2384-1.4912-0.85765-0.28791-1.5652-0.74565-1.5723-1.0171-7e-3 -0.27142-1.4549-1.8649-3.2182-3.5418-1.7643-1.6778-3.1356-3.4621-3.0467-3.9643 0.0889-0.50221-0.39344-0.99094-1.0719-1.0861-0.6786-0.0952-1.2442-0.56199-1.2568-1.0374-0.0126-0.47541-0.42836-0.9716-0.92393-1.1026-0.49563-0.13102-0.91163-0.62997-0.92435-1.1088-0.0127-0.47884-0.41599-0.97454-0.89629-1.1016-0.48026-0.12704-1.7531-1.4751-2.8288-2.9963-1.0761-1.5217-2.1969-2.7367-2.4903-2.6996-0.2935 0.0371-0.5411-0.21339-0.55031-0.55673-0.015-0.55898-1.0601-2.1158-4.5216-6.7357-0.59992-0.80063-1.6537-2.5247-2.3417-3.8315-0.68823-1.3071-1.6316-2.6471-2.0963-2.9774-0.46465-0.3304-2.3073-3.2537-4.0956-6.498-1.7894-3.2464-3.5095-6.2887-3.8215-6.7589-0.31197-0.47022-1.1285-2.0346-1.8146-3.4768-0.68636-1.4425-2.282-4.6592-3.5464-7.149-1.265-2.4908-2.314-5.0178-2.3306-5.6146-0.0166-0.59669-0.31015-1.3313-0.6524-1.6326-1.434-1.2621-6.7036-16.705-10.733-31.461-1.1734-4.2974-2.306-8.0745-2.5162-8.3913-0.21015-0.31687-0.44582-1.6856-0.52356-3.0418-0.0819-1.423-0.5375-2.7124-1.078-3.0482-0.51528-0.32017-0.96181-1.3871-0.99238-2.371-0.0378-1.3322-0.47267-1.9378-1.6878-2.3707-0.89803-0.31996-1.757-0.43576-1.9088-0.25727-0.15164 0.17843 0.14914 3.2346 0.668 6.7904 0.51877 3.5544 0.81939 6.6071 0.66825 6.785-0.50882 0.59921-2.1964-13.106-1.8714-15.201 0.20139-1.2982 0.13107-1.7331-0.1877-1.1618-0.31077 0.55673-0.80899-3.9988-1.277-11.675-0.93164-15.285-38.669-1346-38.16-1346.5 0.19775-0.21408 271.19 7.3092 581.87 16.14 290.38 8.2539 513.94 14.716 513.62 14.837-0.9655 0.36228-2.8689 3.1567-4.1172 6.0449 0 0-1.1712 2.7097-1.1712 2.7097l-8.3774 616.47c-7.5093 552.59-8.0475 588.49-8.9043 595.08-2.7302 20.996-6.0785 35.659-12.123 53.097-3.3947 9.7929-5.002 13.717-9.8733 24.108-3.55 7.5718-13.577 26.164-14.999 27.81-0.4442 0.51411-2.454 3.3764-4.4669 6.3613-2.0134 2.9856-5.42 7.7406-7.5704 10.567-4.102 5.3911-17.192 20.575-19.283 22.366-0.6699 0.57401-2.8881 2.6537-4.9299 4.6222-5.9514 5.7375-13.77 12.145-22.17 18.167-7.0053 5.022-31.444 20.127-204 126.08-12.731 7.8165-57.774 35.48-100.38 61.649-84.921 52.16-80.454 49.644-85.31 48.02v-1e-5m8.8496-105.7c9.9251-17.516 20.852-30.988 35.667-43.989 10.56-9.2664 33.787-36.292 46.728-54.359 39.021-54.48 66.009-117.75 77.716-182.13l1.4151-7.7824 101.77-11.841c87.769-10.212 99.475-11.674 99.893-12.464 0.2977-0.56322 2.0445-183.67 4.7513-498.66 3.8977-453.36 4.361-518.17 3.7084-518.82-0.606-0.60798-1.6296-0.15524-5.5242 2.4439-22.933 15.305-45.018 33.662-64.845 53.921-8.7478 8.9384-25.766 28.662-34.041 39.456-50.051 65.286-83.353 145.65-96.182 232.21-0.8863 5.9805-7.3521 66.619-14.345 134.52-6.9672 67.654-14.31 138.89-16.339 158.51-2.0269 19.599-3.6834 36.09-3.6831 36.664 8e-4 1.5652 0.8685 1.6128 6.0518 0.33326 11.585-2.8599 25.758-1.1381 36.675 4.4368 20.599 10.518 33.376 33.453 33.31 59.63-0.074 29.634-16.145 56.767-40.824 68.859-2.831 1.3871-37.482 13.589-38.955 13.716-0.1607 0.0138-1.8848-3.214-3.8329-7.1758-1.9495-3.9648-6.5552-12.929-10.238-19.926-31.958-60.718-53.802-119.61-69.193-186.96-11.627-50.873-18.079-101.42-20.196-158.54-0.8911-24.046-1.0977-13.556 4.2524-215.41 2.4462-92.289 4.433-174.36 4.4007-181.82-0.034-7.7622-0.4378-17.54-0.9434-22.806-4.3668-45.489-20.339-88.64-46.12-124.27-2.4202-3.3442-4.2989-5.3803-4.9771-5.3933-1.9538-0.0375-13.336 16.636-21.242 31.119-15.772 28.896-25.801 63.102-28.756 98.071-0.4504 5.3284-0.7382 15.214-0.6729 23.092 0.063 7.5709 3.1922 90.692 6.9272 184.04 8.0516 201.23 8.2631 211.54 5.3019 256.43-5.7106 86.579-24.276 171.44-54.865 251.01-10.399 27.048-18.086 44.661-31.77 72.787-3.8142 7.8398-8.5876 17.882-10.607 22.315-2.0194 4.4333-3.7865 8.0707-3.9266 8.0828-1.5237 0.13111-39.159-6.2852-42.153-7.1886-27.006-8.1479-45.145-33.872-45.628-64.939-0.54254-34.874 21.387-66.049 53.021-75.486 6.261-1.8677 16.274-2.8856 22.312-2.2713 5.4504 0.55455 6.4882 0.38046 6.4702-1.0841-0.021-1.7008-38.234-317.09-39.552-326.42-13.145-92.998-52.186-181.73-112.05-253.26-10.348-12.366-31.085-34.195-42.298-44.514-22.708-20.9-47.407-39.727-72.862-55.502-6.0043-3.7212-7.4703-4.386-8.2007-3.7174-0.78386 0.71759 0.65758 69.249 11.912 567.17 7.7638 343.3 12.468 542.45 12.83 542.99 0.50758 0.75298 14.396-0.67818 116.03-11.947l112.62-12.486 1.9796 9.3343c12.011 56.633 38.017 110.68 73.344 152.88 17.894 21.377 45.044 46.104 60.225 54.899 6.8857 3.9891 12.197 7.8661 18.206 13.287 7.4962 6.762 11.641 11.446 16.997 19.201 5.0478 7.3094 5.0862 7.3558 5.7943 6.9971 0.3149-0.15945 2.3454-3.4188 4.5118-7.2421m-44.206-126.85c-18.726-20.45-31.624-39.345-44.051-64.594-6.8953-14.009-11.5-25.127-15.833-38.233-2.7844-8.4233-6.4489-21.416-7.2389-25.669l-0.4047-2.1784s36.386-4.1306 36.386-4.1306 36.092-4.0973 36.092-4.0973 0.5516 72.398 0.5516 72.398c0.3058 40.133 0.343 72.004 0.085 72.038-0.2551 0.0331-2.7682-2.4561-5.5868-5.5342m70.663-74.431-0.3585-71.89s35.221-3.9984 35.221-3.9984c27.627-3.1364 34.941-3.8145 34.94-3.2422-0.01 1.6378-4.264 19.198-6.7582 27.849-4.055 14.064-8.2961 25.919-14.8 41.369-11.683 27.755-23.966 49.518-42.012 74.421-2.7292 3.7664-5.1685 6.8756-5.4198 6.9082-0.2546 0.033-0.6148-31.563-0.8136-71.416m-368.88-214.8-2.1754-110.43 37.751-3.0753 1.635 5.2882c13.712 44.351 47.401 77.969 89.052 89.273 6.4079 1.7391 9.3154 2.2774 25.65 4.7502 7.2286 1.0944 13.245 2.0962 13.38 2.228 0.1356 0.13187-0.6975 4.8005-1.851 10.374-5.8444 28.237-8.8303 54.862-9.3657 83.465l-0.217 11.6s-75.221 7.9265-75.221 7.9265-76.481 8.0592-76.481 8.0592l-2.1563-109.46m222.29 85.819c-0.019-0.24646-0.05-3.672-0.068-7.6134-0.062-13.759 1.5774-33.473 4.1688-50.106 1.3904-8.9243 5.3185-28.328 5.993-29.603 0.5221-0.98688 12.092 1.0528 18.676 3.2899 18.003 6.1174 33.685 20.27 42.541 38.328 4.6455 9.4726 8.0338 22.695 8.5367 33.294l0.1957 4.1233s-39.826 4.3478-39.826 4.3478c-22.056 2.4079-40.198 4.1851-40.218 3.9387l2e-4 -2e-5m146.11-15.574c-1.0359-1.7212 1.573-18.789 4.2129-27.557 4.1293-13.714 9.3744-23.473 18.684-34.771 11.543-14.008 22.713-21.953 39.114-27.841 3.2241-1.1575 4.5588-1.4262 4.8262-0.97187 0.6482 1.1012 4.6391 19.375 6.057 27.731 2.7359 16.122 4.5321 35.219 4.5567 48.414l0.014 7.4546s-38.387 4.0451-38.387 4.0451c-26.649 2.8081-38.835 3.8988-39.077 3.4956m141.27-25.386c-0.8299-27.247-3.9188-52.389-9.6447-78.417-1.134-5.1543-1.9674-9.4895-1.8514-9.6306 0.116-0.14101 5.788-2.1987 12.596-4.5695 15.324-5.3366 20.623-7.4866 27.849-11.297 34.998-18.455 62.466-54.012 73.511-95.026l1.679-6.2344 33.012-2.9954-0.6311 102.91-0.6259 102.07s-67.246 7.0861-67.246 7.0861l-68.31 7.1982-0.3376-11.087m-179.37-76.595c-15.95-18.513-38.913-32.823-63.841-39.706-5.4198-1.4966-7.9382-2.4676-7.8214-3.016 0.095-0.44471 2.3108-5.1956 4.9243-10.557 21.115-43.315 38.174-85.94 52.136-130.27 4.4287-14.06 12.469-42.456 15.254-53.873 1.1361-4.6572 2.1884-8.476 2.3383-8.4858 0.1498-0.0098 1.2495 3.6665 2.4429 8.1672 5.3322 20.108 15.275 50.943 23.523 72.971 13.303 35.528 27.192 66.156 44.997 99.286 2.5936 4.8258 4.793 9.1209 4.8898 9.549 0.1209 0.53344-1.9954 1.7679-6.7306 3.9258-15.76 7.182-29.429 16.27-42.13 28.023-6.9153 6.3992-15.901 16.315-20.665 22.805-2.4393 3.3234-4.5791 6.0568-4.7544 6.0733-0.1755 0.0165-2.2283-2.1862-4.5636-4.8968m-339.49-434.74c-3.0796-156.33-5.535-285.67-5.4212-285.67 0.11341-1e-3 2.7103 3.2759 5.768 7.2792 41.073 53.773 68.612 117.49 80.332 185.23 1.7145 9.9093 33.79 263.16 33.852 267.23 0.022 1.4386-0.5774 2.035-4.6087 4.5845-18.981 12.004-38.373 33.395-50.71 55.968-4.8759 8.9219-9.9962 21.54-13.034 32.12l-2.7427 9.5536-37.932 3.1028-5.5041-279.4m623.23 233.48c-6.1027-24.074-16.77-44.598-31.531-60.592-8.5906-9.3079-19.229-17.792-28.527-22.738-3.7157-1.977-4.2318-2.4479-4.2286-3.8598 0.01-3.2582 25.695-245.23 26.997-254.29 9.2995-64.666 32.917-126.12 68.586-178.51 2.6246-3.8549 4.8553-7.0089 4.9577-7.0101 0.1024-1e-3 -0.5502 120.09-1.4411 265.35l-1.5941 259.94-16.487 1.2057c-12.797 0.93582-16.592 1.048-16.732 0.49345m221.34-860.5c0.2546-0.29805 0.3156-0.84415 0.1354-1.2136-0.2357-0.48298-136.83-4.4912-507.19-14.854-429.81-12.026-572.55-16.211-573.82-16.863-2.2304-1.1432-3.4011-0.0256-2.3781 2.2707l0.707 1.5868 573.86 15.705c311.65 8.5294 508.41 13.692 508.68 13.367m-1046.4 1345.3c9e-3 -0.72385 0.14711-0.88715 0.3535-0.4166 0.18684 0.4258 0.18056 0.9616-0.0138 1.1907-0.19441 0.22913-0.34732-0.11925-0.33967-0.77411m-0.65053-3.2844c-0.0242-0.85052 0.10272-1.2146 0.28217-0.80899 0.17932 0.40557 0.19911 1.1014 0.044 1.5463-0.15524 0.44492-0.30194 0.11311-0.32614-0.73731m-0.69515-3.953c-0.0169-1.0225 0.10865-1.3811 0.27872-0.79697 0.17006 0.58415 0.18371 1.4206 0.0306 1.8589-0.15333 0.43834-0.29247-0.0396-0.3092-1.0619l-1e-4 1e-5" fill="#2770bd"/>
 </g>
</svg>
