<?xml version="1.0" encoding="UTF-8"?>
<svg width="806.52" height="1455" fill="#ffd500" version="1.1" viewBox="0 0 806.52 1455" xmlns="http://www.w3.org/2000/svg">
 <g transform="translate(-765.92 737.79)">
  <path d="m1186.7-737.79c0.6782 0.013 2.5583 2.0484 4.9785 5.3926 25.781 35.63 41.752 78.783 46.119 124.27 0.5056 5.266 0.9094 15.042 0.9434 22.805 0.032 7.46-1.9542 89.531-4.4004 181.82-5.3501 201.85-5.1431 191.36-4.252 215.41 2.117 57.12 8.5684 107.67 20.195 158.54 15.391 67.35 37.235 126.24 69.193 186.96 3.6828 6.997 8.2888 15.961 10.238 19.926 1.9481 3.9618 3.6713 7.1896 3.832 7.1758 1.473-0.127 36.124-12.33 38.955-13.717 24.679-12.092 40.75-39.223 40.824-68.857 0.066-26.177-12.712-49.113-33.31-59.631-10.917-5.5749-25.089-7.2974-36.674-4.4375-5.1833 1.2795-6.0519 1.2332-6.0527-0.33203-3e-4 -0.574 1.6567-17.065 3.6836-36.664 2.029-19.62 9.3707-90.856 16.338-158.51 6.9929-67.901 13.459-128.54 14.346-134.52 12.829-86.56 46.131-166.92 96.182-232.21 8.275-10.794 25.293-30.517 34.041-39.455 19.827-20.259 41.913-38.617 64.846-53.922 3.8946-2.5991 4.9175-3.0513 5.5235-2.4434 0.6526 0.65 0.1907 65.461-3.707 518.82-2.7068 314.99-4.4543 498.09-4.752 498.66-0.418 0.79-12.124 2.2528-99.893 12.465l-101.77 11.842-1.416 7.7812c-11.707 64.38-38.696 127.65-77.717 182.13-12.941 18.067-36.167 45.093-46.727 54.359-14.815 13.001-25.743 26.472-35.668 43.988v2e-3c-2.1663 3.8233-4.1968 7.0808-4.5117 7.2402-0.7081 0.3587-0.7471 0.3133-5.7949-6.9961-5.356-7.755-9.5018-12.439-16.998-19.201-6.009-5.4209-11.319-9.298-18.205-13.287-15.181-8.795-42.331-33.521-60.225-54.898-35.327-42.2-61.333-96.248-73.344-152.88l-1.9804-9.334-112.62 12.486c-101.63 11.269-115.52 12.7-116.03 11.947-0.362-0.54-5.0663-199.69-12.83-542.99-11.254-497.92-12.696-566.45-11.912-567.17 0.7304-0.6686 2.1969-4e-3 8.2012 3.7168 25.455 15.775 50.153 34.602 72.861 55.502 11.213 10.319 31.951 32.148 42.299 44.514 59.864 71.53 98.906 160.26 112.05 253.26 1.318 9.33 39.53 324.72 39.551 326.42 0.018 1.4646-1.0203 1.6385-6.4707 1.084-6.038-0.6143-16.05 0.40183-22.311 2.2695-31.634 9.437-53.564 40.612-53.021 75.486 0.483 31.067 18.621 56.792 45.627 64.939 2.994 0.9034 40.631 7.3206 42.154 7.1894 0.1401-0.0121 1.9064-3.6507 3.9258-8.084 2.0194-4.433 6.7932-14.475 10.607-22.314 13.684-28.126 21.37-45.739 31.77-72.787 30.589-79.57 49.155-164.43 54.865-251.01 2.9612-44.89 2.7508-55.2-5.3008-256.43-3.735-93.348-6.8648-176.47-6.9278-184.04-0.065-7.878 0.2215-17.763 0.6719-23.092 2.955-34.969 12.984-69.174 28.756-98.07 7.906-14.483 19.288-31.157 21.242-31.119zm321.77 271.57c-0.1024 1e-3 -2.3324 3.1549-4.957 7.0098-35.669 52.39-59.286 113.84-68.586 178.51-1.302 9.06-26.988 251.03-26.998 254.29 0 1.4119 0.5128 1.8843 4.2285 3.8613 9.298 4.946 19.937 13.428 28.527 22.736 14.761 15.994 25.429 36.518 31.531 60.592v-0.0098c0.14 0.55455 3.9354 0.44168 16.732-0.49414l16.486-1.2051 1.5938-259.94c0.8909-145.26 1.5438-265.35 1.4414-265.35zm-664.9 7.8516c-0.1138 0 2.3403 129.34 5.4199 285.67l5.5039 279.4 37.932-3.1035 2.7441-9.5547c3.0378-10.58 8.1573-23.197 13.033-32.119 12.337-22.573 31.73-43.965 50.711-55.969 4.0313-2.5495 4.6294-3.1454 4.6074-4.584-0.062-4.07-32.137-257.32-33.852-267.23-11.72-67.74-39.259-131.46-80.332-185.23-3.0577-4.0033-5.6542-7.2803-5.7676-7.2793zm347.9 474.51c-0.1499 0.0098-1.2037 3.8291-2.3398 8.4863-2.785 11.417-10.825 39.813-15.254 53.873-13.962 44.33-31.02 86.955-52.135 130.27-2.6135 5.3614-4.8288 10.112-4.9238 10.557-0.1168 0.5484 2.4005 1.519 7.8203 3.0156 24.928 6.883 47.892 21.194 63.842 39.707 2.3335 2.7083 4.3871 4.9091 4.5625 4.8926 0.1753-0.0165 2.3146-2.7508 4.7539-6.0742 4.764-6.49 13.751-16.406 20.666-22.805 12.701-11.753 26.369-20.841 42.129-28.023 4.7352-2.1579 6.8514-3.3923 6.7305-3.9258-0.097-0.4281-2.2951-4.723-4.8887-9.5488-17.805-33.13-31.695-63.757-44.998-99.285-8.248-22.028-18.191-52.863-23.524-72.971-1.1934-4.5007-2.2916-8.1778-2.4414-8.168zm313.53 114.33-33.012 2.9941-1.6797 6.2344c-11.045 41.014-38.512 76.572-73.51 95.027-7.226 3.8104-12.526 5.9603-27.85 11.297-6.808 2.3708-12.48 4.4274-12.596 4.5684-0.1159 0.1411 0.7176 4.4766 1.8516 9.6309 5.7259 26.028 8.8146 51.171 9.6445 78.418v6e-3l0.3379 11.088 68.311-7.1992 67.246-7.0859 0.625-102.07zm-611.25 49.807-37.75 3.0762 2.1758 110.43 2.1562 109.46 151.7-15.986 0.2168-11.6c0.5354-28.603 3.5228-55.228 9.3672-83.465 1.1535-5.5735 1.9852-10.241 1.8496-10.373-0.135-0.1318-6.1503-1.1341-13.379-2.2285-16.335-2.4728-19.242-3.0109-25.65-4.75-41.651-11.304-75.341-44.922-89.053-89.273zm399.66 92.607c-0.2673-0.45433-1.602-0.18484-4.8261 0.97265-16.401 5.888-27.57 13.834-39.113 27.842-9.3096 11.298-14.556 21.056-18.686 34.77-2.6398 8.768-5.2487 25.837-4.2128 27.559v-2e-3c0.242 0.4032 12.427-0.68604 39.076-3.4941l38.387-4.0469-0.014-7.4531c-0.025-13.195-1.8207-32.292-4.5566-48.414-1.4179-8.356-5.4085-26.631-6.0567-27.732zm-202.85 19.395c-0.6745 1.275-4.6018 20.677-5.9922 29.602-2.5914 16.633-4.2319 36.348-4.1699 50.107 0.018 3.9404 0.049 7.3633 0.068 7.6113 0.02 0.2464 18.163-1.5296 40.219-3.9375l39.824-4.3476-0.1954-4.123c-0.5029-10.599-3.8916-23.822-8.5371-33.295-8.856-18.058-24.538-32.211-42.541-38.328-6.584-2.2371-18.154-4.2759-18.676-3.2891zm206.3 137.17c1e-3 -0.5723-7.3144 0.10579-34.941 3.2422l-35.221 3.998 0.3594 71.889v2e-3c0.1988 39.853 0.5599 71.449 0.8145 71.416 0.2513-0.0326 2.6907-3.1418 5.4199-6.9082 18.046-24.903 30.329-46.667 42.012-74.422 6.5039-15.45 10.744-27.305 14.799-41.369 2.4942-8.651 6.7498-26.21 6.7598-27.848zm-135.52 14.658-36.092 4.0977-36.387 4.1309 0.4043 2.1777c0.79 4.253 4.4539 17.247 7.2383 25.67 4.3329 13.106 8.9386 24.223 15.834 38.232 12.427 25.249 25.325 44.144 44.051 64.594 2.8186 3.0781 5.3328 5.5683 5.5879 5.5352 0.258-0.034 0.2199-31.906-0.086-72.039z" fill="#2770bd"/>
 </g>
</svg>
