<?xml version="1.0" encoding="UTF-8"?>
<!-- Created with Inkscape (http://www.inkscape.org/) -->
<svg width="55.057mm" height="67.802mm" version="1.1" viewBox="0 0 55.057 67.802" xml:space="preserve" xmlns="http://www.w3.org/2000/svg"><g transform="translate(-152.32 -144.63)"><path d="m157.63 211.86c-1.9846-0.76189-3.9804-2.7873-4.7358-4.8061l-0.57466-1.5359 0.071-27.295 0.0709-27.295 0.6476-1.316c0.82523-1.677 2.4267-3.2782 4.1149-4.1142l1.3229-0.65515 23.283-0.1466 25.547 25.563-0.0733 17.983-0.0733 17.983-0.74246 1.512c-0.91068 1.8545-2.6654 3.449-4.5864 4.1678-1.402 0.52455-1.9549 0.53765-22.132 0.5242-20.364-0.0136-20.717-0.0226-22.14-0.56892zm19.937-14.829c0.21282-0.33757 0.21283-0.58847 1e-5 -0.92604-0.26372-0.41831-0.95024-0.46984-7.1098-0.5337-7.0129-0.0727-7.5445-4e-3 -7.5445 0.9762 0 1.0364 0.39497 1.09 7.503 1.017 6.1993-0.0637 6.8875-0.11499 7.1513-0.53345zm19.05-4.2333c0.21299-0.3377 0.21299-0.58835 0-0.92604-0.27222-0.4316-1.4013-0.46765-16.638-0.5312-11.853-0.0494-16.445 0.014-16.706 0.23083-0.44603 0.37018-0.46531 1.0817-0.0408 1.5062 0.24419 0.2442 4.1808 0.30343 16.706 0.25136 15.275-0.0635 16.406-0.0995 16.679-0.53115zm0-4.2333c0.21299-0.3377 0.21299-0.58835 0-0.92605-0.27222-0.4316-1.4013-0.46764-16.638-0.53119-11.853-0.0494-16.445 0.014-16.706 0.23083-0.44603 0.37017-0.46531 1.0817-0.0408 1.5062 0.24419 0.2442 4.1808 0.30343 16.706 0.25135 15.275-0.0635 16.406-0.0995 16.679-0.53114zm-19.05-6.35c0.21282-0.33758 0.21283-0.58847 1e-5 -0.92605-0.26372-0.41831-0.95024-0.46984-7.1098-0.5337-7.0129-0.0727-7.5445-4e-3 -7.5445 0.9762 0 1.0364 0.39497 1.09 7.503 1.017 6.1993-0.0636 6.8875-0.11498 7.1513-0.53344zm18.439-0.17809 0.7734-0.7734v-7.4897l-1.5468-1.5468h-11.723l-1.5468 1.5468v3.6656c0 3.9162 0.19383 4.6148 1.4174 5.1085 0.31186 0.12585 3.1062 0.23636 6.2098 0.24559l5.6428 0.0168 0.7734-0.7734zm-11.861-1.674c0.067-0.1819 0.39122-1.1642 0.72041-2.1828 0.70996-2.1969 1.2874-2.9138 2.1668-2.6899 0.34066 0.0867 1.7481 1.293 3.1277 2.6806l2.5083 2.5229h-4.3226c-3.3467 0-4.295-0.0747-4.2007-0.33073zm8.6765-4.2868c-0.70286-0.84688 0.32946-2.1478 1.2462-1.5705 0.91607 0.5769 0.58971 1.9547-0.46302 1.9547-0.25541 0-0.60785-0.17288-0.7832-0.38417zm-15.254 1.9055c0.21282-0.33757 0.21283-0.58847 1e-5 -0.92604-0.26372-0.41831-0.95024-0.46984-7.1098-0.5337-7.0129-0.0727-7.5445-4e-3 -7.5445 0.9762 0 1.0364 0.39497 1.09 7.503 1.017 6.1993-0.0636 6.8875-0.11499 7.1513-0.53345zm0-4.2333c0.21282-0.33757 0.21283-0.58847 1e-5 -0.92604-0.26372-0.41831-0.95024-0.46985-7.1098-0.5337-7.0129-0.0727-7.5445-4e-3 -7.5445 0.9762 0 1.0364 0.39497 1.09 7.503 1.017 6.1993-0.0636 6.8875-0.11499 7.1513-0.53345z" fill="#187dd6" stroke-width=".26458"/><path d="m181.8 144.63v24.18h25.3z" fill="#88d9f2" style="paint-order:stroke fill markers"/></g></svg>
