<?xml version="1.0" encoding="UTF-8"?>
<!-- Created with Inkscape (http://www.inkscape.org/) -->
<svg width="154.47mm" height="115.3mm" version="1.1" viewBox="0 0 154.47 115.3" xml:space="preserve" xmlns="http://www.w3.org/2000/svg" xmlns:xlink="http://www.w3.org/1999/xlink"><defs><linearGradient id="linearGradient1018" x1="-118.02" x2="-154.23" y1="226.08" y2="169.01" gradientTransform="translate(184.81 -138.55)" gradientUnits="userSpaceOnUse"><stop stop-color="#2770bd" offset="0"/><stop stop-color="#2770bd" stop-opacity="0" offset="1"/></linearGradient></defs><g stroke="#000"><path d="m29.868 40.434c-2.9487-0.7131-5.2467-2.5584-6.6593-5.3474-0.68043-1.3434-0.76155-1.7718-0.76082-4.0173 8e-4 -2.2185 0.0882-2.6918 0.74502-4.0317 0.77547-1.582 2.4943-3.6412 3.0393-3.6412 0.17344 0 0.31535-0.1028 0.31535-0.22845s0.6995-0.54237 1.5544-0.92604c2.9445-1.3214 7.0595-0.82437 9.5581 1.1546 1.1705 0.92702 2.9103 2.9419 2.9103 3.3704 0 0.15028 0.17786 0.61427 0.39524 1.0311 0.26857 0.51495 0.39577 1.5567 0.39688 3.2505 0.0016 2.2365-0.08046 2.6611-0.79727 4.1325-0.88303 1.8126-2.8734 3.8385-4.4423 4.5217-0.93293 0.40622-3.8597 1.1518-4.4161 1.125-0.14552-7e-3 -0.97302-0.18407-1.8389-0.39347z" fill="#ffe956" stroke-width="1.965" style="paint-order:stroke fill markers"/><path d="m13.784 97.122c10.044-13.178 19.872-26.537 30.06-39.607 4.4507-5.5296 10.072 0.551 12.828 4.5118 3.6062 4.0805 7.066 8.2987 10.777 12.281 4.7819-4.6111 8.6631-10.121 13.452-14.704 4.0646-5.2875 8.9526-9.9662 13.256-15.091 2.5532-4.8902 9.8342-4.3106 11.701 0.81845 11.937 17.018 37.17 55.343 37.17 55.343l-130.94 0.35909s1.1242-2.8709 1.6949-3.9123z" fill="url(#linearGradient1018)" stroke-width="1.365" style="paint-order:fill markers stroke"/><path d="m8.9731 113.52c-2.9011-0.74212-5.3647-2.7434-6.6893-5.434l-0.85133-1.7293v-97.642l0.7751-1.5563c0.86201-1.7307 2.8696-3.8938 4.1862-4.5103 2.7458-1.2857-1.6958-1.2095 70.526-1.2095 66.489 0 68.063 0.0179 69.646 0.79258 0.22306 0.10916 0.77546 0.27971 1.2276 0.379 0.45209 0.0993 1.1824 0.56092 1.6229 1.0258s1.0938 1.1115 1.4517 1.4369 0.9929 1.2779 1.4111 2.1167l0.76035 1.5251v97.631l-0.86186 1.7447c-1.3568 2.7466-3.9674 4.8053-6.9794 5.5039-1.8027 0.41809-134.58 0.34575-136.22-0.0742zm132.85-16.189s0.32809-83.701 0.0687-84.377c-0.1384-0.36068-7.0638-0.40395-64.657-0.40395-59.091 0-64.515 0.0358-64.665 0.42664-0.23609 0.61524 0.0563 84.505 0.0563 84.505z" fill="#ca4148" stroke-width="2.865" style="paint-order:stroke fill markers"/></g></svg>
