<?xml version="1.0" encoding="UTF-8"?>
<!-- Created with Inkscape (http://www.inkscape.org/) -->
<svg width="127.39mm" height="152.8mm" version="1.1" viewBox="0 0 127.39 152.8" xml:space="preserve" xmlns="http://www.w3.org/2000/svg"><path d="m41.011 0c-13.183 6.33e-4 -15.673 0.08952-16.49 0.35605-0.68219 0.22236-1.4834 0.40411-1.7803 0.40411-0.71007 0-4.5201 1.7895-4.5201 2.1229 0 0.14237-0.13643 0.25838-0.30334 0.25838-0.59778 0-3.9338 2.9944-5.1583 4.6302-0.85353 1.1402-1.6767 2.7709-1.6903 3.3476-0.0046 0.19629-0.18322 0.58776-0.39688 0.87023-0.21365 0.28247-0.38861 0.76489-0.38861 1.0718 0 0.30688-0.14332 0.70143-0.31884 0.87695-0.59542 0.59543-0.70519 6.8871-0.69143 39.606 0.01515 36.001 0.02541 33.902-0.17673 34.727-0.13927 0.56781-0.26778 0.59531-2.7848 0.59531-2.731 0-4.7594 0.53411-4.7594 1.2532 0 0.18395-0.17859 0.33435-0.39688 0.33435-0.21828 0-0.39687 0.16901-0.39687 0.37517 0 0.20615-0.14883 0.42413-0.33073 0.48473-0.25881 0.0862-0.34758 3.7304-0.40824 16.757-0.04264 9.1557-0.01081 17.014 0.07028 17.463 0.16865 0.9335 1.6738 2.7554 2.2763 2.7554 0.22186 0 0.55207 0.14882 0.7338 0.33073 0.20391 0.20408 1.4143 0.38142 3.1616 0.46302l2.8314 0.13229 0.19585 4.2333c0.12384 2.6827 0.33611 4.5725 0.57981 5.1594 0.21151 0.50932 0.46568 1.2237 0.56482 1.5875 0.32302 1.1854 1.7059 3.9688 1.972 3.9688 0.14268 0 0.25942 0.15601 0.25942 0.34623 0 0.81753 4.2902 5.204 5.0932 5.208 0.25466 1e-3 0.46302 0.11257 0.46302 0.24753 0 0.13495 0.64827 0.55191 1.4402 0.92656 0.79195 0.37465 1.5132 0.79992 1.603 0.94516 0.08976 0.14523 0.66804 0.26407 1.2852 0.26407 0.61715 0 1.2353 0.10917 1.3736 0.24236 0.13824 0.1332 0.5488 0.29615 0.9126 0.36225 0.3638 0.0662 20.212 0.10628 44.106 0.0889 34.369-0.0251 43.513-0.10114 43.775-0.36276 0.18189-0.18191 0.61622-0.33073 0.96531-0.33073 1.0338 0 4.4382-1.592 5.5165-2.5797 0.35742-0.32742 0.73641-0.59531 0.84233-0.59531 0.27306 0 3.2194-2.909 3.2194-3.1786 0-0.12271 0.15301-0.38028 0.34003-0.57258 1.0967-1.1275 2.7496-4.5151 3.0107-6.1707 0.0688-0.43656 0.26572-1.0794 0.4377-1.4288 0.46891-0.95273 0.45105-99.08-0.0181-99.549-0.18191-0.18189-0.33149-0.69408-0.33228-1.1379-9e-4 -0.44384-0.17948-1.1479-0.39687-1.5648-0.21738-0.41681-0.39533-0.95876-0.39533-1.2041s-0.1327-0.57867-0.29507-0.74104c-0.32658-0.32658-0.86381-1.2207-1.2676-2.1089-0.37466-0.82409-1.0992-1.6517-4.3904-5.0178-1.6007-1.6371-3.9565-4.0836-5.2353-5.4369-1.2788-1.3533-2.4391-2.5799-2.5781-2.7254-0.13905-0.14552-1.7713-1.7992-3.6277-3.6752-5.0082-5.0612-6.1775-6.2688-7.3355-7.5752-1.2563-1.4174-3.9374-3.6985-4.347-3.6985-0.1606 0-0.29197-0.09089-0.29197-0.20206 0-0.11117-0.62507-0.48038-1.3891-0.82062-0.76398-0.34025-1.7051-0.78514-2.0914-0.98857-0.38625-0.20343-0.9872-0.37-1.3358-0.37-0.34862 0-0.78293-0.14883-0.9648-0.33073-0.26011-0.26016-7.2291-0.34624-32.663-0.40411-7.1051-0.01617-12.688-0.02553-17.082-0.02532zm-16.309 7.507h32.676c30.694 0 32.716 0.02808 33.33 0.46302 0.3598 0.25466 0.86581 0.46302 1.1245 0.46302 0.25866 0 0.47026 0.11718 0.47026 0.25993 0 0.14275 0.29766 0.33399 0.66146 0.4253 0.3638 0.09131 0.66146 0.2723 0.66146 0.40204 0 0.23868 0.95929 1.294 1.1762 1.294 0.23455 0 3.5864 3.476 3.5864 3.7192 0 0.13744 0.17859 0.2496 0.39687 0.2496 0.21829 0 0.39688 0.17859 0.39688 0.39688s0.11512 0.39688 0.25579 0.39688c0.2622 0 2.1255 1.76 2.1255 2.0076 0 0.15638 2.4406 2.6741 10.224 10.55 5.0374 5.097 7.2383 7.7458 7.2383 8.7101 0 0.21488 0.16427 0.55495 0.36483 0.75551 0.92685 0.92684 0.99316 4.8026 0.88884 51.796-0.0561 25.248-0.19104 46.322-0.30024 46.831-0.10919 0.50932-0.36086 1.2832-0.55914 1.7198-0.19827 0.43656-0.42903 0.97234-0.51263 1.1906s-0.38996 0.75407-0.6811 1.1906c-0.29113 0.43656-0.59468 0.97648-0.67438 1.1994-0.0797 0.22292-0.49495 0.63964-0.92242 0.92604s-0.7772 0.66921-0.77773 0.85111c-4.2e-4 0.1819-0.21504 0.33073-0.47697 0.33073-0.26194 0-0.5969 0.12095-0.74415 0.2682-0.14726 0.14726-0.73641 0.53421-1.3095 0.8599v-5.2e-4l-1.0423 0.59221-42.995 0.0336c-23.647 0.0186-43.531-0.054-44.185-0.16123-1.7774-0.29113-3.6878-1.37-5.0529-2.8536-0.66902-0.72707-1.2953-1.485-1.3922-1.6841-0.09685-0.19918-0.47214-0.88672-0.83406-1.5281-0.36192-0.64136-0.65912-1.3557-0.65991-1.5875-8.97e-4 -0.23178-0.17949-0.76244-0.39688-1.1793-0.52172-1.0003-0.57745-7.3108-0.0646-7.3148 0.1819-1e-3 15.961 1e-4 35.066 3e-3l34.735 6e-3 1.2346-0.56224c1.4231-0.64828 2.2174-1.5371 2.5668-2.8706 0.13525-0.51629 0.28596-7.8613 0.33486-16.322 0.0958-16.563 0.0223-17.667-1.2718-19.044-1.4163-1.5076 0.80776-1.4237-37.647-1.4237h-35.348v-35.727c0-35.003 0.01076-35.759 0.52813-37.294 0.29045-0.86218 0.76588-1.9598 1.0563-2.4391 0.29039-0.4793 0.60584-1.0328 0.70125-1.2299 0.44643-0.9222 3.133-3.2595 4.5129-3.9264zm49.763 23.646c-4.1431-6e-5 -9.6175 5e-3 -16.871 0.0108-27.138 0.0235-27.168 0.0241-27.34 0.56534-0.09459 0.29803-0.0286 0.71474 0.14676 0.92604 0.27507 0.33147 4.1802 0.38396 28.447 0.38396 17.636 0 28.382-0.0961 28.807-0.25787 0.78387-0.29803 0.92297-1.2218 0.21549-1.4304-0.53146-0.15671-0.97663-0.19776-13.406-0.19792zm20.071 10.052c-6.8951-4e-3 -16.333-2e-3 -26.649 7e-3 -33.222 0.027-37.53 0.076-37.666 0.43046-0.08447 0.22014-0.0043 0.57999 0.17828 0.79995 0.29349 0.35365 4.7205 0.39766 38.243 0.37776 33.234-0.0198 37.951-0.0711 38.238-0.41651 0.39466-0.47553-0.10208-1.087-0.95085-1.1705-0.14552-0.0143-4.498-0.024-11.393-0.0279zm-39.101 9.6475c-13.354 0.0112-23.138 0.0629-23.731 0.13539-1.1318 0.13847-1.4583 0.28499-1.5358 0.68782-0.05417 0.28157 0.11743 0.66962 0.38189 0.86299 0.39529 0.28907 7.1692 0.33916 38.166 0.28216 35.56-0.0654 37.702-0.0959 37.978-0.53279 0.21299-0.33769 0.213-0.58834 0-0.92604-0.27563-0.43701-2.3516-0.46533-36.922-0.50643-5.0366-6e-3 -9.8846-7e-3 -14.336-3e-3zm13.387 10.185c-20.628 9e-3 -37.717 0.0236-37.976 0.0326-0.57673 0.0195-0.87676 0.69734-0.50643 1.1436 0.21385 0.25773 8.3359 0.31753 38.166 0.28163 32.256-0.0388 37.95-0.10127 38.268-0.41961 1.0609-1.0609 1.2528-1.0554-37.951-1.0382zm-0.38654 9.5643c-18.744 4e-3 -37.454 0.0991-37.797 0.28267-0.66076 0.35366-0.65987 1.2761 0.0015 1.5208 0.91057 0.33689 75.707 0.10534 76.118-0.23564 0.56288-0.46714 0.42917-1.0173-0.31626-1.3007-0.48235-0.18336-19.262-0.27109-38.006-0.26717zm-26.211 26.979c1.9119-2e-3 3.9816 0.12808 4.8359 0.39377 4.0888 1.2717 5.9109 3.1685 7.2662 7.5639 0.50846 1.649 0.45749 5.1071-0.10542 7.1412-0.41945 1.5157-1.1128 2.9823-1.5384 3.2546-0.1819 0.11637-0.33526 0.3545-0.34106 0.52917-0.01464 0.43806-2.388 2.2728-3.7574 2.9047-0.92872 0.42856-1.8255 0.5343-5.0958 0.601-4.6062 0.0939-5.0584 0.0279-5.257-0.76378-0.08115-0.32331-0.16309-5.1428-0.1819-10.71-0.02567-7.5975 0.04648-10.219 0.28784-10.509 0.22167-0.2671 1.9752-0.40264 3.8871-0.40514zm-25.062 0.0176h4.4013c4.5046 0 7.6302 0.37181 8.2517 0.98082 0.19229 0.18843 0.50073 0.3421 0.68523 0.3421 0.36961 0 1.5873 1.2762 2.3983 2.5135 0.42901 0.65457 0.5185 1.2449 0.5116 3.3657l-0.0083 2.5719-1.0635 1.2542c-1.8492 2.1817-2.7554 2.5057-7.4574 2.665-4.8612 0.16464-4.5439-0.1702-4.5439 4.792 0 2.2679-0.10359 3.4734-0.31729 3.6871-0.31329 0.31329-1.884 0.40156-2.527 0.14211-0.2572-0.10378-0.33073-2.5988-0.33073-11.224zm45.962 0.0377c0.89159-1e-3 2.028 8e-3 3.482 0.0243 6.0645 0.0659 6.5149 0.10357 6.6017 0.55449 0.05119 0.26617 0.02072 0.77219-0.0677 1.1245l-0.16071 0.64079h-4.8576c-3.8231 0-4.9223 0.0781-5.1625 0.36742-0.20472 0.24665-0.28031 1.4873-0.23048 3.7703l0.0739 3.4029 4.101 0.0755c3.5038 0.0649 4.1943 0.14712 4.7413 0.56431 0.59179 0.4513 0.61447 0.55073 0.29869 1.3131l-0.34158 0.82476h-4.1481c-2.8737 0-4.2459 0.0979-4.4659 0.31781-0.22158 0.22158-0.31781 1.6516-0.31781 4.7341 0 3.7834-0.05956 4.4399-0.41806 4.5775-0.90911 0.34886-2.5047 0.17097-2.6851-0.29921-0.09699-0.25276-0.18257-5.1156-0.19017-10.807-0.01125-8.4478 0.0534-10.429 0.35295-10.79 0.24587-0.29661 0.71934-0.39282 3.3941-0.39584zm-18.774 2.3275c-1.2749-0.0181-2.5481 0.0883-2.7936 0.33383-0.23327 0.23327-0.31781 2.4914-0.31781 8.5121 0 7.4313 0.04312 8.2421 0.46302 8.7101 0.68782 0.76651 3.9414 0.48503 5.8524-0.50643 1.354-0.70248 2.9371-2.336 2.9538-3.0484 0.0046-0.19734 0.18322-0.58983 0.39688-0.8723 0.29775-0.39366 0.38809-1.3617 0.38809-4.1455 0-3.3429-0.05226-3.7361-0.65888-4.9439-0.62787-1.2501-2.3793-3.2293-2.8577-3.2293-0.12378 0-0.4039-0.17859-0.62218-0.39688-0.25261-0.25262-1.529-0.39533-2.804-0.41341zm-20.336 0.016c-3.1496 0-3.1618 3e-3 -3.4189 0.67903-0.38888 1.0228-0.33096 7.3253 0.07235 7.8631 0.2617 0.34896 0.88295 0.45852 2.9766 0.52452 1.4552 0.0458 2.7465 0.10799 2.8696 0.13849 0.12307 0.0305 0.59932-0.13983 1.0583-0.37879 0.45902-0.23895 1.0132-0.51796 1.2314-0.62011 0.55019-0.25748 1.8194-2.64 1.8345-3.4437 0.02043-1.0867-1.0957-2.9603-2.3177-3.8907l-1.1452-0.87178z" fill="#ff1a10" stroke-width=".26458"/></svg>
