<?xml version="1.0" encoding="UTF-8"?>
<!-- Created with Inkscape (http://www.inkscape.org/) -->
<svg width="1143.8" height="937.8" version="1.1" viewBox="0 0 1143.8 937.8" xmlns="http://www.w3.org/2000/svg">
 <g transform="translate(-142.97 -27.971)">
  <path d="m701 811.42c-13.484-10.208-20.109-14.855-41-28.763-21.703-14.448-29.674-19.412-44-27.401-9.6871-5.402-13.319-7.4232-22-12.244-40.305-22.381-101.96-48.572-146-62.02-5.775-1.7634-12.975-4.0114-16-4.9954-4.5989-1.4961-35.698-9.7734-52-13.84-12.428-3.1005-52.189-10.5-68-12.654-6.325-0.86191-14.425-2.0055-18-2.5414-26.296-3.9414-79.292-6.3952-119.26-5.5218-34.87 0.76201-33.25 1.1484-30.433-7.257 10.486-31.283 35.2-79.773 60.264-118.24 10.523-16.15 10.696-16.318 16.089-15.579 5.6042 0.76814 27.282 6.0725 39.339 9.6259 5.225 1.5399 10.85 3.0881 12.5 3.4405 15.677 3.3482 70.862 22.63 106 37.037 34.324 14.073 78.553 36.005 109.35 54.223 6.7932 4.0185 12.517 7.3063 12.719 7.3063 0.63581 0 16.102 9.885 38.32 24.492 54.848 36.059 103.86 77.2 155.57 130.58 21.247 21.934 20.84 21.717 27.184 14.564 24.398-27.507 63.812-64.386 105.36-98.583 14.861-12.232 46.457-35.163 65.5-47.536 6.6-4.2884 14.25-9.2595 17-11.047 9.4552-6.1456 19.563-12.47 19.93-12.47 0.20212 0 5.9256-3.2862 12.719-7.3026 25.453-15.049 49.575-27.401 88.851-45.498 25.833-11.903 66.788-27.161 110.5-41.167 35.964-11.524 71.059-19.331 73.942-16.448 4.1255 4.1255 23.862 35.56 35.735 56.915 13.653 24.558 36.321 76.008 35.628 80.867-0.3043 2.1334-0.3043 2.1334-31.804 1.8014-31.428-0.33122-68.349 0.82891-90.698 2.8499-18.108 1.6375-57.47 6.7856-68.802 8.9985-2.75 0.53705-12.2 2.3572-21 4.0448s-18.475 3.6793-21.5 4.426c-3.025 0.74673-8.65 2.1274-12.5 3.0682-7.479 1.8275-40.021 10.723-47.5 12.985-16.438 4.9705-34.633 11.01-42 13.94-1.925 0.76572-7.7794 2.9514-13.01 4.8571-16.58 6.041-51.691 21.481-75.49 33.197-23.077 11.36-28.204 14.107-49.5 26.521-6.325 3.6868-13.157 7.6329-15.183 8.7691-4.7836 2.6833-12.496 7.6324-27.317 17.529-19.72 13.168-27.335 18.509-41.101 28.827-15.742 11.799-13.164 11.777-28.399 0.24379z" fill="#f3b305"/>
  <path d="m709.54 962.4c-35.159-41.573-108.14-103.13-167.54-141.31-6.325-4.0657-13.826-8.9005-16.669-10.744-2.8432-1.8435-5.5078-3.3517-5.9213-3.3517-0.41348 0-1.4622-0.61667-2.3305-1.3704s-3.8287-2.6036-6.5787-4.1109-7.925-4.423-11.5-6.4792c-75.599-43.483-172.63-79.163-261-95.971-9.075-1.7261-19.65-3.769-23.5-4.5398s-9.25-1.7074-12-2.0813c-18.239-2.4801 35.303-4.411 72-2.5966 38 1.8788 80.9 7.1361 111.5 13.664 3.575 0.76267 10.1 2.1518 14.5 3.0869 6.4818 1.3776 22.382 5.2963 40.5 9.9815 4.6045 1.1907 32.452 9.5202 36.5 10.918 15.443 5.3309 22.488 7.8099 25.75 9.0608 27.913 10.704 38.545 15.033 50.75 20.665 15.056 6.9478 41.606 20.214 51.6 25.783 5.9125 3.2945 10.9 5.99 11.083 5.99 3.5606 0 66.772 41.456 90.216 59.166 8.198 6.193 7.9268 6.2329 20.196-2.9719 23.7-17.78 61.992-42.76 85.405-55.712 17.469-9.6643 24.838-13.522 40-20.939 26.205-12.82 40.608-19.1 66.75-29.107 2.0625-0.7895 5.4375-2.0826 7.5-2.8734 3.2621-1.2509 10.307-3.7299 25.75-9.0608 11.905-4.1097 49.141-14.589 63.5-17.871 52.22-11.935 90.402-17.328 139.82-19.75 37.491-1.837 90.553 7e-3 72.649 2.5251-2.7335 0.3844-8.345 1.3295-12.47 2.1003-4.125 0.77075-11.55 2.1276-16.5 3.0152-14.743 2.6437-32.629 6.514-47 10.17-5.5 1.3993-11.575 2.8744-13.5 3.2778-3.998 0.83799-6.7594 1.6152-27.5 7.7396-72.239 21.332-152.36 57.086-210.35 93.872-69.006 43.774-126.28 90.955-178.05 146.67-7.261 7.8147-9.2374 8.2741-13.568 3.1536zm-4.4211-316.17c-1.2743-4.2534-2.9224-9.5334-3.6625-11.733s-4.7391-15.475-8.8867-29.5c-9.4767-32.046-10.535-35.581-12.119-40.5-0.70843-2.2-2.0049-6.475-2.881-9.5-3.3257-11.483-4.9002-16.62-6.2123-20.27-2.443-6.796-1.8624-9.5953 2.3947-11.545 11.077-5.0745 15.557-12.839 16.512-28.618 0.3143-5.1935 1.145-5.3781 24.524-5.4493 22.878-0.0697 24.623 0.27633 24.966 4.9491 1.2381 16.881 4.9307 23.362 16.748 29.393 4.4821 2.2874 4.6169 3.177 1.8252 12.041-0.86608 2.75-2.1412 6.8-2.8337 9-0.69245 2.2-2.0169 6.7-2.9432 10s-2.2694 7.8-2.9846 10c-0.71526 2.2-2.0985 6.7-3.0738 10-0.97534 3.3-2.3843 8.025-3.131 10.5-0.7467 2.475-3.4047 11.475-5.9067 20s-5.1966 17.525-5.9879 20c-0.79135 2.475-3.1149 10.007-5.1635 16.738-5.455 17.923-5.7555 16.43-6.0934-30.28-0.29259-40.444-0.29259-40.444 2.2255-42.701 10.253-9.1917 12.389-13.218 11.143-21.008-3.2882-20.563-33.551-20.614-37.023-0.0618-1.3373 7.9152 0.94291 12.302 10.945 21.059 2.5668 2.2472 2.5668 2.2472 2.2843 42.701-0.3086 44.185-0.78533 47.739-4.6662 34.785zm-14.366-167.31c-3.0146-1.7558-2.477-13.301 0.75-16.107 3.1456-2.7351 4.0596-208.28 0.97983-220.35-7.4619-29.256-30.149-48.995-59.764-51.999-11.761-1.1929-15.716-4.0606-15.716-11.398 0-25.509-67.701-20.168-104.8 8.2679-34.091 26.127-67.636 42.529-96.446 47.157-5.5452 0.89078-6.1367-1.8372 17.24 79.512 1.6595 5.775 5.0271 17.7 7.4836 26.5 2.4565 8.8 5.1428 18.25 5.9696 21 0.82675 2.75 2.1866 7.475 3.0218 10.5 0.83526 3.025 2.8762 10.225 4.5353 16s3.6605 12.75 4.4474 15.5c3.3918 11.853 2.6362 16.221-2.3451 13.555-2.3307-1.2473-4.1508-6.9743-18.61-58.555-4.5643-16.282-8.5882-30.449-13.492-47.5-1.5026-5.225-3.5124-12.425-4.4664-16s-2.3076-8.3-3.0082-10.5-2.0659-6.925-3.0341-10.5-3.0182-10.775-4.5557-16c-1.5374-5.225-3.3136-11.525-3.9471-14-2.1612-8.4436-7.274-12.073-9.9538-7.0657-0.69121 1.2916-1.0352 31.351-1.0352 90.465 0 88.421-3e-3 88.532-2.0639 89.635-5.0952 2.7269-4.935 5.6373-4.9497-89.907-0.0143-92.859-8e-3 -92.682-3.2058-93.697-2.7873-0.88465-4.1533 0.98809-6.2508 8.5697-0.98905 3.575-3.0276 10.775-4.5302 16s-4.2024 14.675-5.9995 21-4.5079 15.775-6.0238 21-4.8836 17.15-7.4837 26.5-5.9644 21.275-7.4762 26.5c-2.6381 9.1176-6.7372 23.478-11.56 40.5-5.846 20.632-6.5125 22.46-8.5942 23.574-5.7704 3.0882-5.8897-1.9538-0.48688-20.574 1.4363-4.95 4.0247-13.95 5.7521-20s4.37-15.275 5.8726-20.5 3.5305-12.425 4.5065-16c1.6896-6.1889 4.4426-15.89 10.5-37 10.056-35.043 17.509-61.53 19.036-67.651 1.2851-5.1512 1.2851-5.1512-6.1995-12.5-24.802-24.351-15.078-64.258 15.657-64.258 10.62 0 25.5 8.4583 25.5 14.495 0 1.0532 0.525 1.915 1.1667 1.915 0.64166 0 0.92231 0.24435 0.62366 0.54301-0.29866 0.29865-3.0448-0.60135-6.1026-2-21.497-9.8328-39.204 12.643-23.976 30.433 18.525 21.643 65.035 5.2342 110.79-39.086 28.006-27.128 56.176-37.818 101.37-38.467 24.02-0.34516 25.206-0.70633 26.593-8.0965 2.1486-11.453 1.6731-11.326 42.465-11.326 39.589 0 35.337 1.7686 34.861-14.5-0.29235-10-0.29235-10-5.2924-10.261-9.0757-0.47432-9.5-0.72874-9.5-5.6965 0-4.8761 0.45897-5.0839 12.797-5.7947 4.2975-0.24755 4.2975-0.24755 1.6223-5.2476-10.941-20.449 7.5013-42.997 29.722-36.339 13.859 4.1522 20.978 23.04 13.509 35.839-3.5423 6.0701-3.5921 6 4.2681 6 9.4641 0 10.082 0.34238 10.082 5.5879 0 4.9159-0.43926 5.1772-9.5 5.6508-5 0.26131-5 0.26131-5.2924 10.261-0.4756 16.269-4.7278 14.5 34.861 14.5 40.792 0 40.316-0.12682 42.465 11.326 1.4066 7.498 2.6923 7.891 26.662 8.1503 42.984 0.46492 72.713 11.307 98.805 36.035 23.156 21.946 38.551 33.452 55.311 41.339 31.458 14.804 57.647 11.259 62.616-8.4749 4.4526-17.683-11.289-29.757-28.521-21.875-6.7592 3.0917-6.5581 3.1117-4.7697-0.47342 6.0134-12.054 26.134-18.482 38.155-12.19 21.686 11.351 23.46 42.397 3.5301 61.786-8.3806 8.1528-8.0811 7.0275-4.8662 18.282 1.3505 4.7276 3.8241 13.546 5.497 19.596s4.3972 15.725 6.054 21.5c1.6569 5.775 6.3747 22.425 10.484 37 7.0307 24.936 9.9382 35.151 16.509 58 1.5026 5.225 3.5284 12.425 4.5019 16s2.6089 9.3599 3.6343 12.855c2.2409 7.639 2.3137 9.5268 0.4282 11.092-3.8748 3.2158-6.3439-1.8906-13.03-26.947-0.9539-3.575-2.3076-8.3-3.0082-10.5s-2.0659-6.925-3.0341-10.5-2.9971-10.775-4.5086-16-4.8756-17.15-7.4757-26.5-5.9677-21.275-7.4837-26.5c-1.5159-5.225-4.2266-14.675-6.0238-21s-4.4969-15.775-5.9995-21-3.5412-12.425-4.5302-16c-2.0997-7.5894-3.4625-9.4546-6.2594-8.5669-3.1196 0.99011-3.0829-0.0917-3.1739 93.556-0.092 95.022 0.033 92.725-4.9203 90.074-2.1298-1.1398-3.5479-101.14-2.2518-158.79 0.8211-36.529-5.4425-34.528-16.379 5.231-2.5719 9.35-5.051 18.125-5.5091 19.5-0.458 1.375-1.8225 6.1-3.032 10.5-1.2096 4.4-3.4317 12.275-4.9381 17.5-4.5424 15.756-8.7719 30.639-13.499 47.5-14.459 51.58-16.28 57.307-18.61 58.555-4.9813 2.6659-5.7368-1.7014-2.3451-13.555 0.7869-2.75 2.7241-9.5 4.3048-15s3.6546-12.925 4.6085-16.5 2.3188-8.3 3.033-10.5c0.71424-2.2 3.422-11.65 6.0173-21s5.9554-21.275 7.467-26.5 3.5441-12.425 4.5168-16 2.9979-10.775 4.5005-16 4.1932-14.675 5.9792-21c1.7859-6.325 3.8711-13.493 4.6337-15.928 2.1036-6.7179 1.8364-9.9509-0.8634-10.448-1.2375-0.22802-5.175-0.94192-8.75-1.5864-23.482-4.2335-55.877-20.681-87.273-44.312-26.099-19.643-53.282-27.846-82.083-24.771-19.979 2.1332-23.306 3.9184-24.31 13.046-1.1129 10.114-3.6223 12.235-15.834 13.383-29.116 2.7379-52.076 22.383-59.665 51.049-3.366 12.715-2.7482 218.41 0.66486 221.38 3.3614 2.9227 3.7648 14.44 0.56574 16.152-2.5664 1.3735-45.95 1.3331-48.316-0.0449zm-314.89-4.2338c-3.6503-1.2443-9.3432-3.9326-12.651-5.9742-6.0137-3.7119-6.0137-3.7119-23.363-3.7217-24.194-0.01362-28.381-2.3564-43.099-24.117-11.908-17.606-16.015-16.873 94.498-16.873 114.74 0 110.13-1.5027 85.48 27.864-10.34 12.319-12.434 13.114-34.578 13.127-17.349 0.01-17.349 0.01-23.231 3.6405-13.552 8.365-29.642 10.628-43.056 6.0554zm647.87-0.094c-3.7192-1.2776-9.4121-3.9585-12.651-5.9575-5.8885-3.6345-5.8885-3.6345-23.238-3.6443-22.173-0.0125-24.271-0.81066-34.512-13.127-24.161-29.057-29.434-27.297 82.826-27.653 113.82-0.36089 108.88-1.2028 97.087 16.548-14.426 21.716-18.877 24.219-43.099 24.232-17.349 0.01-17.349 0.01-23.231 3.6405-13.631 8.4133-29.619 10.621-43.182 5.9614z" fill="#034475"/>
 </g>
</svg>
