<?xml version="1.0" encoding="UTF-8"?>
<!-- Created with Inkscape (http://www.inkscape.org/) -->
<svg width="282.61mm" height="349.89mm" version="1.1" viewBox="0 0 282.61 349.89" xml:space="preserve" xmlns="http://www.w3.org/2000/svg"><g transform="translate(53.167 21.407)"><path d="m87.49 326.14c-3.4716-3.6149-6.4666-9.4997-9.6674-13.658-6.7849-10.753-14.503-21.306-18.725-33.366 0.82699-38.22 4.4088-76.346 5.9866-114.53 1.7842-23.05 2.4759-46.172 4.2168-69.222-3.8713-10.67-18.485-0.16798-28.412-0.83743-8.2516-1.539-13.477-9.8956-18.483-14.046-7.5629-4.0679-15.695 3.5193-23.37 5.0234 2.1103 9.8472 6.2281 21.039 9.079 31.404 11.149 36.394 21.652 72.932 33.205 109.09 0.81371 6.9908-3.4559 14.922-8.5272 18.512-16.55 14.803-42.247 16.41-62.246 8.2374-2.7084-0.55568-7.2876-3.5332-10.44-6.1118-4.1474-4.2339-8.6361-7.264-9.5212-11.906-4.7675-7.9097 2.142-15.028 3.2895-23.151 12.484-41.195 24.767-82.698 37.381-123.66-5.4381-1.7297-8.4326-4.8333-12.126-8.238-7.434-3.9932 3.5268-15.17 9.1729-11.114 8.6685 7.6537 21.101 0.89298 31.447 1.5833 17.02-0.15142 34.185-0.4019 51.118-0.28944 3.4292-6.5401 7.5437-14.262 13.16-15.187-14.005-0.007625-1.5953-16.433-2.3755-11.502-8.3437 0.37-6.3205-15.49 2.4845-10.517-12.555 0.33668-5.7734-15.35 0.11909-11.183-14.749 0.19648-0.69119-15.939-1.0667-11.24-8.8652-0.34232-3.4934-13.157 1.092-11.035-5.3859-0.36661-11.344-3.802-8.0137-10.402 3.1402-7.3781 12.533-10.216 18.484-6.4873 3.7333 3.146 9.9491 9.2619 4.2083 14.16-5.4911 9.0736 2.9873 24.876 0.4601 36.38 3.2062 9.7314-7.6301 25.107 2.885 30.733 5.0307 12.243 23.417 3.4803 34.317 6.252 15.364-0.72638 30.608 1.9558 45.852 2.1914 4.0778-5.0875 13.426-5.845 16.272 1.8343 3.0895 6.0408-7.6726 8.6391-10.811 12.832-6.7665 2.8257 2.6333 13.754 2.6092 19.88 4.2556 14.93 9.1374 29.698 13.199 44.652 2.169 4.2578 4.1223 14.006 6.2249 20.267 6.0649 18.47 10.886 37.926 17.401 55.872-2.1964 18.127-20.98 27.3-37.262 29.7-19.971 2.4451-44.55-3.1502-54.199-22.469-4.5132-7.8182 2.1946-14.592 3.3073-22.622 3.8535-13.378 8.2615-26.739 12.224-40.7 2.7138-8.3325 4.015-14.177 6.8408-22.409 6.0794-20.99 13.119-41.999 18.57-62.991-6.0664-2.4587-13.143-5.8865-19.958-6.9326-9.3392 3.4066-11.894 14.776-22.427 15.555-8.9507 1.0647-24.368-9.6348-25.467 0.99875-4.9025 8.0578 0.54214 25.198-0.13546 36.708 2.7156 47.901 5.7069 95.767 8.2403 143.65-0.71031 9.1362-6.3903 15.147-10.368 22.903-1.5271 3.5842-4.3844 6.5506-6.8104 10.577-4.2245 4.781-7.6776 15.193-12.436 16.814zm0-145.74c-0.33116-26.364 0.76782-52.8-1.1143-79.112-3.1248-10.576-18.038-4.5396-12.523 6.4976-0.69416 37.035-2.2516 74.068-2.8146 111.1 2.6037-37.544 3.8835-75.21 6.7958-112.67 2.5491 6.984 0.44563 26.435 0.96484 38.036-0.61989 26.317-0.6867 52.657-0.28288 78.975 1.2102-36.295 2.4829-72.602 4.013-108.87 3.7692 10.501 1.0634 30.17 2.5531 44.134 0.71954 35.115 1.8393 70.23 2.2851 105.35 0.15623-27.81 0.10049-55.622 0.12338-83.433zm-0.99161 18.742c0.25224-1.7274 0.16324 2.056 0 0zm0.03428-6.35c0.18088-5.4661 0.15536 5.8291 0 0zm-0.04943-5.2917c0.28836-1.2566 0.15521 1.5937 0 0zm-7.4083-6.6146c0.28837-1.2565 0.1552 1.5937 0 0zm-6.1202-11.258c0.05188-2.3517 0.65059 2.2905 0 0zm-88.388 80.447c-1.2811-1.323-0.26614 1.0308 0 0zm209.87-0.63431c-1.7464-1.3524-3.407 1.8996 0 0zm-211.29-0.0272c-2.7515-1.6468-17.08-7.1306-8.7564-2.5135 2.5423 0.66431 7.0287 3.1533 8.7564 2.5135zm213.61-0.66145c4.9793-2.1245-5.2084 0.43057 0 0zm3.8731-1.4552c5.675-3.1197-5.9697 1.0438 0 0zm3.0061-1.6031c5.1179-2.1759-5.0494 0.59526 0 0zm3.5719-1.5875c6.6163-3.8271-6.2471 1.5698 0 0zm-236.14 0.0156c-4.1948-3.0678-6.653-0.38307 0 0zm239.44-2.1828c-0.82667-0.86922-0.72519 1.4703 0 0zm-244.74-0.0661c-0.65254-0.94251-0.31998 0.96735 0 0zm104.44-5.0932c-0.35963 0.99415 0.35818 4.995 0 0zm-64.935-1.2632c9.527-1.33 24.112 0.17988 30.544-5.0844-5.8617 0.54023-23.781 4.2159-34.062 3.2462-16.111 0.0592-32.764 0.56104-48.164-4.1406 5.9418 6.272 18.893 4.3198 27.648 5.607 7.9771 0.78239 16.035 0.83508 24.033 0.37175zm-14.562-0.70604c1.7442-0.39138 0.33813 0.43918 0 0zm200.48 0.69c9.6742-2.1419 27.065 2.2291 31.746-7.7854 1.0296-4.2807-3.7569-13.979-5.0228-20.27-11.676-39.826-23.391-79.632-35.253-119.38-7.2352-3.8488-6.0566 13.968-9.4908 19.083-12.166 40.192-23.482 80.163-35.702 120.3 7.8671-0.37662 24.417-5.1122 36.143-3.7942 16.144 0.22731 32.947-1.0728 48.443 4.2136-6.0958 6.8756-20.443 4.2344-29.672 5.8215-17.54 0.217-35.575 0.77608-52.617-3.9036 9.2561 7.2318 25.439 4.4526 37.418 5.9322 4.6671-5e-3 9.3513 0.0935 14.009-0.21486zm-36.645-2.0942c1.4462-0.96862 0.98434 0.99358 0 0zm64.57-2.0984c0.46397-1.3857 1.9231 1.0837 0 0zm-70.787-38.242c1.0899-0.93758 0.5746 1.3186 0 0zm58.208-17.883c0.76207-0.5042 0.61746 0.9088 0 0zm-43.392-32.264c0.67597-0.94918 0.67602 0.94917 0 0zm25.4-31.867c0.47015-1.7957 0.81798 1.4303 0 0zm-2.9104-7.3931c0.26338-0.65844 2.1142 0.26238 0 0zm0.0418-2.5444c0.23154-1.1926 0.23154 1.1926 0 0zm-148.21 127.69c0.4925-8.3277-4.3885-16.814-6.0854-25.196-6.4313-22.211-13.426-44.297-19.398-66.602-2.5131-5.7746-4.4841-15.356-6.9276-22.574-2.5768-7.6529-4.639-16.992-7.3507-23.621-3.2671-12.104-7.4541 6.5753-8.5159 11.242-12.408 41.604-24.746 83.295-36.913 125.01 2.1163 2.4729 18.227-5.0238 26.321-3.2015 19.277-5e-3 39.378-1.9882 57.963 4.0384-0.0828 0.25342 0.39947 2.0397 0.90636 0.90111zm-73.686-4.398c1.4461-0.96861 0.98437 0.99354 0 0zm-3.5719-22.093c0.62538-2.2916 0.62538 2.2916 0 0zm50.027-66.962c0.38188-0.70465 0.11802 1.1407 0 0zm-16.425-47.471c0.676-0.94918 0.676 0.94918 0 0zm77.188 135.94c-0.35842 0.97445 0.35212 4.6615 0 0zm-13.026-148.12c3.1829-1.1915-33.766-0.18971-11.094 0.38612 3.6959-0.03536 7.4184 0.07915 11.094-0.38612zm80.426-0.1557c-6.8905-0.95616-32.124-0.0252-12.566 0.49163 4.1847-0.01419 8.4248 0.28163 12.566-0.49163zm-50.991-75.695c-3.229-0.38603-0.63698 0.39043 0 0zm22.74 294.95c0.84235-1.8835 0.49136 1.6614 0 0zm-98.129-38.296c1.1598-0.37902 0.11467 0.50942 0 0zm187.11-0.41458c0.20419-1.3858 0.77377 1.9347 0 0zm-222.78-0.19843c1.0327-0.96657 1.0327 0.96656 0 0zm139.19-20.527c0.38188-0.70468 0.11796 1.1407 0 0zm110.49-0.27945c-0.29687-1.405 1.8146 0.50675 0 0zm-185.11-0.77888c0.38186-0.70471 0.11804 1.1407 0 0zm185.74-9.525c0.3819-0.70471 0.11798 1.1408 0 0zm-18.674-62.287c0.65254-0.94251 0.31996 0.96736 0 0zm-185.74-0.79375c0.65256-0.94251 0.31996 0.96737 0 0zm-50.139-14.023c0.67597-0.9492 0.67602 0.94918 0 0zm198.58-43.109c0.0966-1.3031 0.84336 0.88021 0 0zm-44.643-9.9886c1.1598-0.379 0.11473 0.50931 0 0zm61.073-1.0612c-0.81659-1.1595 1.8266-0.26717 0 0zm-158.92-5.7695c0.22897-1.3976 0.628 1.3883 0 0zm120.65-2.249c0.676-0.94917 0.676 0.94917 0 0zm-157.96-16.14c0.65254-0.94252 0.31998 0.96736 0 0zm82.021-6.0854c0.63869-1.8392 0.63868 1.8392 0 0zm24.871-65.617c1.4461-0.96862 0.98438 0.99356 0 0z" fill="#4c1e00" stroke="#fff" stroke-width="4.065" style="paint-order:stroke fill markers"/></g></svg>
