<?xml version="1.0" encoding="UTF-8" standalone="no"?>
<!-- Created with Inkscape (http://www.inkscape.org/) -->

<svg
   version="1.1"
   id="svg2"
   width="512"
   height="512"
   viewBox="0 0 512 512"
   xmlns="http://www.w3.org/2000/svg"
   xmlns:svg="http://www.w3.org/2000/svg">
  <defs
     id="defs6" />
  <g
     id="g8">
    <path
       style="fill:#ffb703;fill-opacity:1"
       d="m 69.565081,510.39942 c -4.364205,-0.79421 -11.632548,-2.95152 -16.151872,-4.79403 -4.519325,-1.84251 -11.624985,-5.70599 -15.790356,-8.58551 -4.165371,-2.87952 -10.68303,-8.50912 -14.483687,-12.51022 -3.800657,-4.00111 -8.742639,-10.3651 -10.982181,-14.1422 C 9.9174426,466.59036 6.9418985,460.45476 5.5446647,456.7328 4.147431,453.01084 2.3282858,446.0894 1.5021199,441.35181 0.2140493,433.96547 0,412.75436 0,292.5 0,170.91893 0.20419119,151.09106 1.5348364,143.46058 c 0.84416,-4.84078 2.8688461,-12.13294 4.4993024,-16.20481 1.6304562,-4.07187 5.0287282,-10.59442 7.5517152,-14.49456 2.522987,-3.90014 7.135801,-9.76969 10.250698,-13.043452 3.114896,-3.273757 8.403387,-7.912239 11.752202,-10.307737 3.348815,-2.395498 9.423815,-5.935575 13.5,-7.866837 C 53.164939,79.611922 60.1,77.030068 64.5,75.80573 c 7.74709,-2.155694 9.74666,-2.236949 63.25,-2.570228 L 183,72.891343 V 109.44567 146 l -49.75,0.002 c -45.361019,10e-4 -50.058773,0.15581 -53.25,1.75 -2.002366,1.0003 -4.248152,3.24608 -5.248446,5.24845 -1.638994,3.2809 -1.748309,12.04484 -1.746262,140 0.0021,133.62004 0.04337,136.56755 1.954224,139.70145 1.073621,1.7608 3.299592,3.8983 4.946602,4.75 2.660632,1.37587 18.193653,1.54838 139.294222,1.547 127.76004,-10e-4 136.51895,-0.1111 139.79966,-1.75 2.00237,-1.0003 4.24815,-3.24608 5.24845,-5.24845 1.59419,-3.19123 1.74858,-7.88898 1.75,-53.25 L 366,329 h 36.55433 36.55433 l -0.34416,55.25 c -0.33328,53.50334 -0.41454,55.50291 -2.57023,63.25 -1.22434,4.4 -3.77048,11.25986 -5.65809,15.24414 -1.88762,3.98427 -4.89422,9.38427 -6.68133,12 -1.78712,2.61572 -5.74805,7.39613 -8.80208,10.62312 -3.05402,3.227 -8.25277,7.78696 -11.55277,10.13325 -3.3,2.34628 -9.21346,5.87448 -13.14102,7.84042 -3.92755,1.96595 -10.67755,4.60248 -15,5.85896 l -7.85898,2.28452 -145,0.17951 C 99.87585,511.81573 76.275513,511.6206 69.565081,510.39942 Z M 323.5,240 c 63.24821,-63.25 115.22174,-115 115.49674,-115 0.275,0 -51.24853,51.75 -114.49674,115 -63.24821,63.25 -115.22174,115 -115.49674,115 -0.275,0 51.24853,-51.75 114.49674,-115 z m -52,-52 C 334.74821,124.75 386.72174,73 386.99674,73 387.27174,73 335.74821,124.75 272.5,188 209.25179,251.25 157.27826,303 157.00326,303 156.72826,303 208.25179,251.25 271.5,188 Z M 511,29.5 c 0,-0.275 0.225,-0.5 0.5,-0.5 0.275,0 0.5,0.225 0.5,0.5 0,0.275 -0.225,0.5 -0.5,0.5 -0.275,0 -0.5,-0.225 -0.5,-0.5 z m -1,-4 c 0,-0.275 0.225,-0.5 0.5,-0.5 0.275,0 0.5,0.225 0.5,0.5 0,0.275 -0.225,0.5 -0.5,0.5 -0.275,0 -0.5,-0.225 -0.5,-0.5 z m -2,-5 c 0,-0.275 0.225,-0.5 0.5,-0.5 0.275,0 0.5,0.225 0.5,0.5 0,0.275 -0.225,0.5 -0.5,0.5 -0.275,0 -0.5,-0.225 -0.5,-0.5 z m -3,-5 c 0,-0.275 0.225,-0.5 0.5,-0.5 0.275,0 0.5,0.225 0.5,0.5 0,0.275 -0.225,0.5 -0.5,0.5 -0.275,0 -0.5,-0.225 -0.5,-0.5 z m -9,-9 C 496,6.225 496.225,6 496.5,6 496.775,6 497,6.225 497,6.5 497,6.775 496.775,7 496.5,7 496.225,7 496,6.775 496,6.5 Z m -5,-3 C 491,3.225 491.225,3 491.5,3 491.775,3 492,3.225 492,3.5 492,3.775 491.775,4 491.5,4 491.225,4 491,3.775 491,3.5 Z m -5,-2 C 486,1.225 486.225,1 486.5,1 486.775,1 487,1.225 487,1.5 487,1.775 486.775,2 486.5,2 486.225,2 486,1.775 486,1.5 Z m -4,-1 C 482,0.225 482.225,0 482.5,0 482.775,0 483,0.225 483,0.5 483,0.775 482.775,1 482.5,1 482.225,1 482,0.775 482,0.5 Z"
       id="path245" />
    <path
       style="fill:#333333;fill-opacity:1"
       d="M 182.99714,328.49714 157.50899,302.99428 272.50286,187.99714 387.49674,73 H 321.74837 256 V 36.475387 -0.04922512 L 369.75,0.22538744 483.5,0.5 490.15125,3.65125 C 493.80944,5.3844375 498.69138,8.691375 501,11 c 2.30862,2.308625 5.61556,7.190562 7.34875,10.84875 L 511.5,28.5 511.77461,142.25 512.04923,256 H 475.52461 439 V 190.25163 124.50326 L 324.24838,239.25163 C 261.13498,302.36323 209.26917,354 208.99102,354 c -0.27815,0 -11.9754,-11.47629 -25.99388,-25.50286 z"
       id="path241" />
  </g>
</svg>
