<?xml version="1.0" encoding="UTF-8"?>
<!-- Created with Inkscape (http://www.inkscape.org/) -->
<svg width="512" height="512" version="1.1" viewBox="0 0 512 512" xmlns="http://www.w3.org/2000/svg">
 <g transform="matrix(.95723 0 0 .95214 16.005 8.5876)" stroke-linecap="round">
  <path d="m69.565 510.4c-4.3642-0.79421-11.633-2.9515-16.152-4.794-4.5193-1.8425-11.625-5.706-15.79-8.5855s-10.683-8.5091-14.484-12.51c-3.8007-4.0011-8.7426-10.365-10.982-14.142-2.2395-3.7771-5.2151-9.9127-6.6123-13.635-1.3972-3.722-3.2164-10.643-4.0425-15.381-1.2881-7.3863-1.5021-28.597-1.5021-148.85 0-121.58 0.20419-141.41 1.5348-149.04 0.84416-4.8408 2.8688-12.133 4.4993-16.205 1.6305-4.0719 5.0287-10.594 7.5517-14.495s7.1358-9.7697 10.251-13.043c3.1149-3.2738 8.4034-7.9122 11.752-10.308s9.4238-5.9356 13.5-7.8668 11.011-4.5131 15.411-5.7375c7.7471-2.1557 9.7467-2.2369 63.25-2.5702l55.25-0.34416v73.109l-49.75 2e-3c-45.361 1e-3 -50.059 0.15581-53.25 1.75-2.0024 1.0003-4.2482 3.2461-5.2484 5.2484-1.639 3.2809-1.7483 12.045-1.7463 140 0.0021 133.62 0.04337 136.57 1.9542 139.7 1.0736 1.7608 3.2996 3.8983 4.9466 4.75 2.6606 1.3759 18.194 1.5484 139.29 1.547 127.76-1e-3 136.52-0.1111 139.8-1.75 2.0024-1.0003 4.2482-3.2461 5.2484-5.2484 1.5942-3.1912 1.7486-7.889 1.75-53.25l0.00155-49.75h73.109l-0.34416 55.25c-0.33328 53.503-0.41454 55.503-2.5702 63.25-1.2243 4.4-3.7705 11.26-5.6581 15.244-1.8876 3.9843-4.8942 9.3843-6.6813 12-1.7871 2.6157-5.748 7.3961-8.8021 10.623-3.054 3.227-8.2528 7.787-11.553 10.133-3.3 2.3463-9.2135 5.8745-13.141 7.8404-3.9276 1.966-10.678 4.6025-15 5.859l-7.859 2.2845-145 0.17951c-122.62 0.15181-146.22-0.04332-152.93-1.2645z" fill="#ffff20" stroke="#c6b50e" stroke-linejoin="bevel" stroke-width="28.596" style="paint-order:normal"/>
  <path d="m183 328.5-25.488-25.503 229.99-229.99h-131.5v-73.049l227.5 0.54923 6.6512 3.1512c3.6582 1.7332 8.5401 5.0401 10.849 7.3488s5.6156 7.1906 7.3488 10.849l3.1512 6.6512 0.27461 113.75 0.27462 113.75h-73.049v-131.5l-114.75 114.75c-63.113 63.112-114.98 114.75-115.26 114.75s-11.975-11.476-25.994-25.503z" fill="#1010b0" stroke="#ffff20" stroke-width="9.2"/>
 </g>
</svg>
