<?xml version="1.0" encoding="UTF-8" standalone="no"?>
<!-- Created with Inkscape (http://www.inkscape.org/) -->

<svg
   width="86.624817mm"
   height="36.162575mm"
   viewBox="0 0 86.624814 36.162575"
   version="1.1"
   id="svg8326"
   xml:space="preserve"
   inkscape:version="1.2.2 (732a01da63, 2022-12-09)"
   sodipodi:docname="rivne_logo.svg"
   xmlns:inkscape="http://www.inkscape.org/namespaces/inkscape"
   xmlns:sodipodi="http://sodipodi.sourceforge.net/DTD/sodipodi-0.dtd"
   xmlns="http://www.w3.org/2000/svg"
   xmlns:svg="http://www.w3.org/2000/svg"><sodipodi:namedview
     id="namedview8328"
     pagecolor="#ffffff"
     bordercolor="#000000"
     borderopacity="0.25"
     inkscape:showpageshadow="2"
     inkscape:pageopacity="0.0"
     inkscape:pagecheckerboard="0"
     inkscape:deskcolor="#d1d1d1"
     inkscape:document-units="mm"
     showgrid="false"
     inkscape:zoom="1.1817453"
     inkscape:cx="176.85707"
     inkscape:cy="78.27406"
     inkscape:window-width="1280"
     inkscape:window-height="650"
     inkscape:window-x="-6"
     inkscape:window-y="-6"
     inkscape:window-maximized="1"
     inkscape:current-layer="layer1" /><defs
     id="defs8323" /><g
     inkscape:label="Layer 1"
     inkscape:groupmode="layer"
     id="layer1"
     transform="translate(-54.150221,-129.27775)"><path
       id="path8459"
       style="fill:#6f2d02;fill-opacity:1;stroke:#c6920e;stroke-width:1.765;stroke-dasharray:none;stroke-opacity:1;paint-order:stroke fill markers"
       d="M 84.056923 130.35417 C 83.300333 130.35417 83.267207 130.40331 83.213047 131.60784 C 83.158567 132.81827 83.129311 132.86099 82.34695 132.86099 C 81.597024 132.86099 81.532548 132.7824 81.479819 131.80059 C 81.429999 130.87326 81.344887 130.74019 80.804408 130.74019 L 80.186358 130.74019 L 80.186358 136.52485 L 91.527785 136.52485 L 91.527785 130.74019 L 90.819301 130.74019 C 90.151364 130.74019 90.107182 130.81199 90.053973 131.99334 C 90.000633 133.17832 89.958596 133.2465 89.277793 133.2465 C 88.596995 133.2465 88.554439 133.17838 88.501096 131.99334 C 88.446866 130.78895 88.413717 130.74019 87.657737 130.74019 C 86.933326 130.74019 86.866836 130.82395 86.814377 131.80059 C 86.760698 132.79984 86.705413 132.86099 85.85733 132.86099 C 84.973437 132.86099 84.95618 132.83877 84.900799 131.60784 C 84.846569 130.4033 84.813532 130.35417 84.056923 130.35417 z M 56.38316 132.57832 C 56.00181 132.58665 55.687028 132.69297 55.537217 133.04444 C 54.3426 135.52582 56.932855 134.82498 58.203204 134.62781 C 58.894532 141.95596 58.663329 149.36961 58.350999 156.71586 C 58.265594 157.53689 58.180056 158.35819 58.094683 159.17928 C 60.491435 159.14065 62.895412 159.27594 65.286493 159.07541 C 67.715566 156.97564 64.391899 156.72848 62.87527 157.23004 C 62.59268 154.96211 62.448225 152.67451 62.405015 150.3855 C 63.359118 148.22567 67.706481 151.25608 69.786993 149.36179 C 72.871506 148.00209 75.220069 144.27463 75.217669 140.54889 C 75.454047 137.17646 73.513668 134.02165 70.553871 133.22996 C 66.546363 132.46832 62.436439 132.84254 58.380454 132.6703 C 57.838001 132.82221 57.018744 132.56443 56.38316 132.57832 z M 65.076169 134.8495 C 66.904823 134.86288 69.183716 136.08914 70.009718 137.56768 C 71.930566 140.56849 71.102789 145.88637 67.923541 147.43943 C 66.042955 148.50116 63.848038 147.53734 62.249985 146.27257 C 62.377772 142.96196 62.404031 139.64344 62.681484 136.34243 C 63.043892 135.26988 63.978977 134.84147 65.076169 134.8495 z M 83.775803 141.87904 C 82.477672 141.88104 82.257033 141.9537 82.257033 142.17102 C 82.257033 142.4606 82.64885 142.49467 85.464589 142.44438 C 87.502778 142.40808 88.672662 142.30783 88.672662 142.17102 C 88.672662 142.03421 87.502823 141.93508 85.464589 141.89868 C 84.760632 141.88608 84.208513 141.87896 83.775803 141.87956 L 83.775803 141.87904 z M 89.503619 142.49399 C 89.150818 142.49399 89.147568 142.50619 89.147568 143.67842 L 89.147568 144.86232 L 93.199001 144.86232 L 93.162827 143.73216 C 93.127807 142.62979 93.117151 142.60005 92.740631 142.5343 C 92.39576 142.474 92.355125 142.52626 92.355125 143.01903 C 92.355125 143.50626 92.305678 143.57041 91.938612 143.57041 C 91.574291 143.57041 91.523134 143.50402 91.523134 143.03246 C 91.523134 142.56082 91.471984 142.49399 91.107655 142.49399 C 90.743335 142.49399 90.69166 142.56089 90.69166 143.03246 C 90.69166 143.50411 90.639993 143.57041 90.275665 143.57041 C 89.911343 143.57041 89.860186 143.50402 89.860186 143.03246 C 89.860186 142.5779 89.804577 142.49399 89.503619 142.49399 z M 78.448997 142.70948 C 78.172008 142.71348 78.159835 142.78662 78.180279 143.73216 C 78.192449 144.29475 78.205565 144.77947 78.209735 144.8091 C 78.213935 144.8387 79.045932 144.86232 80.058717 144.86232 L 81.899949 144.86232 L 81.899949 143.78642 C 81.899949 142.78985 81.878875 142.70948 81.611594 142.70948 C 81.402611 142.70948 81.312474 142.84305 81.284999 143.19369 C 81.255899 143.56501 81.156658 143.6944 80.860736 143.74611 C 80.515869 143.80641 80.474196 143.75527 80.474196 143.2619 C 80.474196 142.77468 80.425786 142.70948 80.058717 142.70948 C 79.691657 142.70948 79.643239 142.77465 79.643239 143.2619 C 79.643239 143.75489 79.601567 143.80637 79.256699 143.74611 C 78.960776 143.69441 78.861532 143.56501 78.832436 143.19369 C 78.803856 142.82894 78.716134 142.70961 78.476385 142.70948 C 78.466885 142.70947 78.457937 142.70937 78.448997 142.70948 z M 82.494228 143.14047 L 82.494228 146.52114 C 82.494228 148.38041 82.537219 149.80912 82.589829 149.69665 C 82.642439 149.58414 82.829251 149.1363 83.004791 148.70137 C 83.789525 146.75722 85.777487 146.06838 87.082578 147.28802 C 87.65345 147.82151 88.315578 148.95626 88.315578 149.40106 C 88.315578 149.51041 88.368575 149.60002 88.433917 149.60002 C 88.507837 149.60002 88.553289 148.3799 88.553289 146.37024 L 88.553289 143.14047 L 85.5235 143.14047 L 82.494228 143.14047 z M 91.166567 145.29227 L 89.147052 145.29331 L 89.147052 153.43958 C 89.147052 157.91991 89.18204 161.64953 89.2256 161.72848 C 89.26915 161.80738 89.480096 161.87214 89.693272 161.87214 L 90.080328 161.87214 L 90.119085 155.89679 C 90.155815 150.13432 90.166551 149.88552 90.435345 148.89619 C 90.777037 147.63863 91.429551 146.88417 92.460028 146.55524 C 93.110822 146.34747 93.186082 146.26998 93.186082 145.808 L 93.186082 145.29227 L 91.166567 145.29227 z M 78.09863 145.29331 L 78.09863 145.93926 C 78.09863 146.55492 78.122272 146.58536 78.603509 146.58987 C 79.194137 146.59487 79.949319 147.17387 80.3202 147.90503 C 80.905306 149.05858 80.949619 149.61406 80.949619 155.80067 C 80.949619 158.9822 80.985124 161.65057 81.028684 161.72951 C 81.072244 161.80841 81.286318 161.87265 81.504107 161.87265 L 81.899949 161.87265 L 81.899949 145.29331 L 79.99929 145.29331 L 78.09863 145.29331 z M 133.53194 145.72429 C 130.5524 145.72609 127.478 147.51667 126.72719 150.5426 C 125.42817 154.04519 127.92678 157.82533 131.23957 159.01908 C 132.72378 159.1652 134.24561 159.14211 135.7194 158.90281 C 137.51085 158.7781 141.65733 155.67328 137.98231 154.83794 C 136.5327 155.1566 135.96713 158.21547 133.60739 157.6016 C 130.88803 157.66571 129.53631 154.68032 129.78436 152.30838 L 139.38946 152.30838 C 140.68155 151.80051 139.14665 149.06612 138.50786 148.07143 C 137.31279 146.45693 135.4419 145.72313 133.53194 145.72429 z M 97.392026 145.80439 C 96.101089 145.79843 94.358651 147.27958 96.166778 147.41669 C 98.229112 148.16025 96.780833 152.08291 97.187388 154.05504 C 97.146726 155.67766 97.106091 157.30035 97.065431 158.92296 L 100.01099 158.92296 C 102.45137 158.7436 105.39173 159.4207 107.27618 157.45897 C 109.57846 155.50253 107.62338 152.17552 104.94815 152.09702 C 102.81513 151.73678 106.64673 151.55503 106.8023 150.50746 C 108.15691 149.02746 107.00402 147.1152 105.69798 146.09067 C 103.14438 146.05342 100.59134 145.99055 98.037465 145.97905 C 97.854787 145.85798 97.631089 145.80549 97.392026 145.80439 z M 112.19732 145.87363 C 110.8886 145.86102 109.73302 146.18636 110.10908 147.4911 C 113.21633 147.04274 111.19996 151.94434 111.73534 153.79253 C 111.69238 155.50267 111.64956 157.21283 111.60666 158.92296 L 115.04056 158.92296 C 114.79746 156.89646 114.57151 154.86792 114.36308 152.83755 L 120.0139 152.83755 C 119.92659 154.14277 119.85419 155.44877 119.74673 156.75255 C 118.35411 159.89818 122.61059 158.98531 124.30615 158.62841 C 125.82913 156.50653 122.94027 158.33548 122.74862 156.93652 C 122.52387 153.28208 122.77253 149.61685 122.82613 145.95838 L 119.42892 145.95838 C 119.51535 147.60898 119.86293 149.3049 119.73898 150.92087 C 118.00056 151.33768 116.17166 151.15398 114.39151 151.26917 C 114.52773 149.58203 114.65849 147.89293 114.87985 146.21521 C 114.32577 146.09783 113.21522 145.88344 112.19732 145.87363 z M 78.09863 146.75316 L 78.09863 148.28382 C 78.09863 149.59866 78.127802 149.81499 78.30637 149.81499 C 78.454454 149.81499 78.589311 149.4286 78.774041 148.47296 C 78.91671 147.73486 79.023252 147.11376 79.011236 147.09268 C 78.999216 147.07158 78.789123 146.9865 78.544081 146.90354 L 78.09863 146.75316 z M 92.85897 146.80329 L 92.85897 146.80381 C 92.250204 146.80981 92.20407 147.02374 92.494134 148.48484 C 92.684744 149.44495 92.817727 149.81499 92.972141 149.81499 C 93.157789 149.81499 93.186082 149.61563 93.186082 148.30759 C 93.186082 146.80614 93.184305 146.80003 92.85897 146.80329 z M 85.658376 147.03015 C 85.644566 147.0302 85.630718 147.0309 85.616518 147.03118 C 84.511776 147.05558 84.492065 147.09835 84.842922 148.73806 C 85.121069 150.03784 85.166929 150.13629 85.496112 150.11782 C 85.813919 150.09992 85.880553 149.96732 86.135349 148.83211 C 86.291667 148.13576 86.393199 147.44181 86.361175 147.2906 C 86.325075 147.1201 86.100776 147.03277 85.698683 147.03067 C 85.685283 147.0306 85.672186 147.0301 85.658376 147.03015 z M 92.038865 147.04927 C 91.955395 147.0485 91.286532 147.61936 91.181553 147.78721 C 91.131713 147.86691 92.143009 150.00763 92.235235 150.01756 C 92.267925 150.02056 92.359554 149.94918 92.43884 149.85788 C 92.548182 149.73195 92.521831 149.38183 92.32877 148.40784 C 92.188777 147.70161 92.062032 147.09225 92.047133 147.05392 C 92.045733 147.05092 92.042965 147.04927 92.038865 147.04927 z M 101.77936 147.1149 C 104.11327 147.11291 105.56665 150.51842 102.56949 151.24385 C 101.74439 151.47487 100.88922 151.53371 100.03631 151.51411 C 99.675832 151.01325 99.990443 149.83676 99.886448 149.07912 C 99.928104 148.18807 99.518064 146.84568 100.88639 147.2813 C 101.19296 147.167 101.49273 147.11514 101.77936 147.1149 z M 133.07047 147.21825 C 134.6594 147.22685 136.2545 148.27433 136.39895 150.0987 C 136.5436 150.63248 135.91639 150.67019 135.58608 150.68729 C 133.96952 150.27984 128.71157 152.02826 130.1678 148.96026 C 130.75471 147.75882 131.91098 147.21198 133.07047 147.21825 z M 79.273752 147.31592 C 79.227223 147.31632 79.192301 147.33071 79.176601 147.36191 C 79.019951 147.67484 78.690759 149.63703 78.760605 149.84186 C 78.881493 150.19636 79.027123 150.02973 79.513014 148.97783 C 79.780457 148.39889 79.998773 147.87771 79.998773 147.81977 C 79.998773 147.6266 79.497943 147.31399 79.273752 147.31592 z M 86.820062 147.44615 C 86.625837 147.45415 86.482388 147.85703 86.304848 148.73961 C 86.060353 149.95493 86.056071 150.46095 86.291412 150.46095 C 86.347012 150.46095 86.637685 149.95253 86.936334 149.33078 L 87.478936 148.2001 L 87.230373 147.82287 C 87.069651 147.57917 86.94149 147.44896 86.82988 147.44615 C 86.82678 147.44607 86.823062 147.44602 86.820062 147.44615 z M 84.322023 147.55208 C 84.104304 147.55708 83.562896 148.03205 83.562896 148.26987 C 83.562896 148.36127 83.776975 148.814 84.03832 149.27652 C 84.299679 149.73907 84.511179 150.21919 84.508575 150.34313 C 84.505975 150.46714 84.262472 150.0927 83.967006 149.51062 L 83.429054 148.45177 L 83.110211 149.03675 C 82.841219 149.5295 82.819026 149.65285 82.969134 149.82016 C 83.544496 150.46142 84.101996 151.06917 84.131854 151.08675 C 84.150854 151.09785 84.338138 150.88926 84.547849 150.62321 C 84.757559 150.35715 84.941307 150.13355 84.956093 150.12609 C 85.007003 150.10039 84.495492 147.76934 84.399538 147.58981 C 84.385028 147.56271 84.357653 147.55118 84.322023 147.55208 z M 80.16207 148.03732 L 79.671144 149.07912 C 79.302459 149.86086 79.211365 150.19001 79.306825 150.39842 C 79.469816 150.75435 79.425856 150.77297 80.05355 150.08578 C 80.650643 149.43212 80.693205 149.22599 80.377561 148.51946 L 80.16207 148.03732 z M 91.000168 148.19339 C 90.955589 148.19639 90.914421 148.23984 90.866327 148.31224 C 90.389344 149.0297 90.425048 149.31906 91.077683 150.00826 C 91.728433 150.69552 91.938096 150.74641 91.938096 150.21704 C 91.938096 150.04348 91.739406 149.48026 91.496262 148.96543 C 91.228568 148.39861 91.105739 148.18524 91.000168 148.19339 z M 87.647402 148.25126 L 87.079994 149.45481 C 86.768015 150.11666 86.546996 150.75918 86.589068 150.88263 C 86.696835 151.19867 86.719761 151.1868 87.498057 150.41134 C 87.882053 150.02874 88.196002 149.66512 88.195688 149.60364 C 88.195328 149.54214 88.071417 149.21258 87.92077 148.87138 L 87.647402 148.25126 z M 90.437929 149.738 C 90.423469 149.73877 90.412293 149.74585 90.405373 149.75815 C 90.366353 149.82895 90.334576 150.15877 90.334576 150.49092 C 90.334576 150.98647 90.403783 151.1317 90.720599 151.30069 C 91.196774 151.55468 91.549154 151.50897 91.607883 151.18545 C 91.654533 150.92838 90.654621 149.7218 90.437929 149.738 z M 80.625091 149.9509 C 80.501796 149.9529 80.319372 150.08819 80.070603 150.35243 C 79.770067 150.67165 79.523866 150.96373 79.523866 151.002 C 79.523866 151.0403 79.553849 151.21378 79.590529 151.38699 C 79.646819 151.65287 79.743948 151.66148 80.214264 151.44487 C 80.652945 151.24281 80.77983 151.08271 80.811126 150.69194 C 80.851206 150.19175 80.794054 149.94742 80.625091 149.9509 z M 82.787233 150.13952 C 82.757373 150.14152 82.734374 150.15331 82.720054 150.17931 C 82.664584 150.27984 82.603907 150.59516 82.585695 150.87953 C 82.555745 151.34713 82.627336 151.43184 83.325702 151.76888 C 83.750411 151.97385 84.110904 152.1512 84.127203 152.16265 C 84.143543 152.17405 84.156659 151.99907 84.156659 151.77353 C 84.156659 151.34199 83.110883 150.14098 82.793434 150.13952 C 82.791334 150.1395 82.789233 150.13943 82.787233 150.13952 z M 88.20499 150.16846 C 88.069254 150.16646 87.858715 150.34196 87.522345 150.68522 C 86.666756 151.55834 86.728568 151.45975 86.807143 151.83089 C 86.864183 152.10027 86.984207 152.09188 87.683058 151.77043 C 88.427517 151.42799 88.489766 151.35564 88.453037 150.87539 C 88.416757 150.40109 88.358824 150.17069 88.20499 150.16846 z M 90.361965 151.40508 C 90.257108 151.40908 90.256288 151.56228 90.281349 152.02364 C 90.302189 152.4073 90.322665 152.74593 90.326825 152.77554 C 90.330825 152.80524 90.574873 152.82928 90.86891 152.82928 C 91.264915 152.82928 91.403761 152.74558 91.403761 152.5063 C 91.403761 152.32867 91.403123 152.11091 91.401694 152.02209 C 91.399394 151.86881 91.286927 151.79449 90.556268 151.46657 C 90.468928 151.42727 90.406235 151.40318 90.361965 151.40508 z M 80.672117 151.56269 C 80.607057 151.56569 80.515329 151.5961 80.385829 151.6402 C 79.818461 151.83312 79.761578 151.90403 79.761578 152.41122 C 79.761578 152.76299 79.845425 152.82928 80.295396 152.82928 C 80.81445 152.82928 80.830247 152.80952 80.830247 152.15904 C 80.830247 151.71135 80.82696 151.56424 80.686586 151.56269 C 80.682086 151.56264 80.676897 151.56245 80.672117 151.56269 z M 88.416864 151.7725 C 88.412764 151.77236 88.407798 151.77286 88.403428 151.77301 C 88.348828 151.77501 88.274822 151.79978 88.172951 151.83658 C 87.276998 152.16133 86.889308 152.43068 86.889308 152.72954 C 86.889308 152.97559 87.071037 153.04477 87.721299 153.04477 L 88.552773 153.04477 L 88.552773 152.37143 C 88.552773 151.92446 88.544338 151.77665 88.416864 151.7725 z M 82.62962 151.77301 C 82.502222 151.77801 82.493711 151.92446 82.493711 152.37143 L 82.493711 153.04477 L 83.325702 153.04477 C 83.975957 153.04477 84.156659 152.97609 84.156659 152.73006 C 84.156659 152.43118 83.769486 152.16133 82.873533 151.83658 C 82.77167 151.79958 82.696631 151.77491 82.642022 151.77301 C 82.637622 151.77287 82.63378 151.77287 82.62962 151.77301 z M 101.4724 152.75435 C 103.68463 152.76557 106.05016 154.6689 104.36473 156.90293 C 102.43017 158.35633 99.36941 157.88103 99.957761 154.78006 C 100.0257 153.97532 99.29439 152.42978 100.67193 152.83858 C 100.93118 152.78 101.20072 152.75297 101.4724 152.75435 z M 90.275148 153.04425 L 90.303053 157.40471 C 90.318503 159.80287 90.332176 161.78929 90.333026 161.81891 C 90.333925 161.84861 90.5749 161.87265 90.86891 161.87265 L 91.403761 161.87265 L 91.403761 153.04477 L 90.839455 153.04477 L 90.275148 153.04425 z M 79.761061 153.04477 L 79.761061 161.87265 L 80.830247 161.87265 L 80.830247 153.04477 L 80.295396 153.04477 L 79.761061 153.04477 z M 82.493711 153.24011 L 82.493711 162.51809 L 84.161309 162.51809 L 84.12927 157.94266 L 84.097747 153.36723 L 83.295729 153.30367 L 82.493711 153.24011 z M 86.888792 153.24011 L 86.888792 162.51809 L 88.556907 162.51809 L 88.525384 157.94266 L 88.493345 153.36723 L 87.691327 153.30367 L 86.888792 153.24011 z M 79.761061 162.08763 L 79.761061 163.59451 L 81.899432 163.59451 L 81.899432 162.08763 L 80.830247 162.08763 L 79.761061 162.08763 z M 89.146535 162.08763 L 89.146535 163.59451 L 91.403761 163.59451 L 91.403761 162.08763 L 90.275148 162.08763 L 89.146535 162.08763 z M 82.493194 162.73358 L 82.493194 164.45648 L 84.156659 164.45648 L 84.156659 162.73358 L 83.325185 162.73358 L 82.493194 162.73358 z M 86.888792 162.73358 L 86.888792 164.45648 L 88.552773 164.45648 L 88.552773 162.73358 L 87.720782 162.73358 L 86.888792 162.73358 z " /></g></svg>
