<?xml version="1.0" encoding="UTF-8" standalone="no"?>
<!-- Generator: Adobe Illustrator 23.0.3, SVG Export Plug-In . SVG Version: 6.00 Build 0)  -->

<svg
   width="238.01"
   height="85.348"
   version="1.1"
   viewBox="0 0 238.01 85.348"
   xml:space="preserve"
   id="svg62"
   sodipodi:docname="rivne_txt.svg"
   xmlns:inkscape="http://www.inkscape.org/namespaces/inkscape"
   xmlns:sodipodi="http://sodipodi.sourceforge.net/DTD/sodipodi-0.dtd"
   xmlns="http://www.w3.org/2000/svg"
   xmlns:svg="http://www.w3.org/2000/svg"><defs
     id="defs66" /><sodipodi:namedview
     id="namedview64"
     pagecolor="#ffffff"
     bordercolor="#000000"
     borderopacity="0.25"
     inkscape:showpageshadow="2"
     inkscape:pageopacity="0.0"
     inkscape:pagecheckerboard="0"
     inkscape:deskcolor="#d1d1d1"
     showgrid="false" /><g
     transform="translate(-12.843 -.15)"
     fill="#d7ba85"
     stroke="#e43133"
     stroke-width="5.1"
     style="paint-order:stroke fill markers"
     id="g60"><g
       id="g906"><path
         class="st0"
         d="m 57.400967,49 c -0.7,-6 -3.9,-9.3 -8.1,-11.4 -6.5,-3.2 -13.3,-3.1 -20,-1.2 -7.1,2.1 -11.2,7.1 -11,17.7 0.2,10.5 0,12.3 0,22.8 V 79 h 13.3 V 48.4 c 0,-4.5 1.8,-7.1 4.9,-7.7 4,-0.8 7,1 7.8,5.3 0.6,2.8 0.8,5.9 0.6,8.8 -0.3,4.4 -2.9,6.5 -6.5,7.4 -1.4,0.3 -4.6,0.3 -4.6,0.3 v 5.2 c 0,0 8.6,-0.1 11.5,-0.3 7.9,-0.6 13.2,-9.1 12.1,-18.4"
         style="paint-order:stroke fill markers;stroke:#000000;stroke-opacity:1;stroke-width:11.1;stroke-dasharray:none"
         id="path2" /><path
         class="st0"
         d="m57.401 49c-0.7-6-3.9-9.3-8.1-11.4-6.5-3.2-13.3-3.1-20-1.2-7.1 2.1-11.2 7.1-11 17.7 0.2 10.5 0 12.3 0 22.8v2.1h13.3v-30.6c0-4.5 1.8-7.1 4.9-7.7 4-0.8 7 1 7.8 5.3 0.6 2.8 0.8 5.9 0.6 8.8-0.3 4.4-2.9 6.5-6.5 7.4-1.4 0.3-4.6 0.3-4.6 0.3v5.2s8.6-0.1 11.5-0.3c7.9-0.6 13.2-9.1 12.1-18.4"
         style="paint-order:stroke fill markers;stroke:#e43133;stroke-opacity:1;stroke-width:5.5;stroke-dasharray:none"
         id="path32" /></g><g
       id="g917"><g
         transform="translate(3.2002)"
         id="g8"
         style="stroke-width:11.1;stroke-dasharray:none;stroke:#000000;stroke-opacity:1"><path
           class="st0"
           d="m 86.0998,6.6 -7.4,2.2 c 0.9,-3.4999998 1.7,-6.6999998 1.7,-6.6999998 l 0.3,-1.1 h -10.1 l 0.3,1.1 c 0,0 0.9,3.2 1.8,6.7999998 -3.3,-1 -6.4,-1.9 -6.4,-1.9 l -1.1,-0.4 v 10.8 l 1.1,-0.3 c 0,0 3.1,-0.9 6.4,-1.9 l -2.1,7.9 h 10.2 l -0.3,-1.1 c 0,0 -0.9,-3.2 -1.8,-6.8 l 7.5,2.2 z"
           style="stroke:#000000;stroke-width:11.1;stroke-dasharray:none;stroke-opacity:1;paint-order:stroke fill markers"
           id="path4" /><polygon
           class="st0"
           points="66.7 36.8 83.9 36.8 83.9 79 72 79 72 41.6 66.7 41.6"
           style="paint-order:stroke fill markers;stroke-width:11.1;stroke-dasharray:none;stroke:#000000;stroke-opacity:1"
           id="polygon6" /></g><g
         transform="translate(3.1003)"
         id="g38"><path
           class="st0"
           d="m 86.3997,6.4 -7.4,2.2 c 0.9,-3.5 1.7,-6.7 1.7,-6.7 l 0.3,-1.10000005 h -10.1 L 71.1997,1.9 c 0,0 0.9,3.2 1.8,6.8 -3.3,-1 -6.4,-1.9 -6.4,-1.9 l -1.1,-0.4 v 10.8 l 1.1,-0.3 c 0,0 3.1,-0.9 6.4,-1.9 l -2.1,7.9 h 10.2 l -0.3,-1.1 c 0,0 -0.9,-3.2 -1.8,-6.8 l 7.5,2.2 z"
           style="paint-order:stroke fill markers"
           id="path34" /><polygon
           class="st0"
           points="72 79 72 41.6 66.7 41.6 66.7 36.8 83.9 36.8 83.9 79"
           style="paint-order:stroke fill markers"
           id="polygon36" /></g></g><g
       id="g922"><path
         class="st0"
         d="M 107.5,41.5 H 102 v -4.6 c 0.2,-0.1 0.3,-0.2 0.4,-0.2 9.8,0.2 19.7,-0.8 29.5,0.7 2.2,0.3 4.5,1.2 6.5,2.5 4.2,2.7 4.7,8.1 1,11.7 -1.8,1.7 -4,2.8 -6.1,4.1 -0.4,0.3 -0.9,0.4 -1.3,0.6 v 0.4 c 0.4,0.1 0.7,0.2 1.1,0.3 2.1,0.7 4.3,1.2 6.3,2.2 3.8,2.1 5,6.2 3.4,10.7 -1.3,3.5 -3.6,5.9 -6.5,7.3 -7.2,3.6 -14.5,3.8 -21.8,0.9 -4.4,-1.8 -6.7,-5.6 -6.8,-11 -0.1,-7.9 -0.1,-15.7 -0.1,-23.6 -0.1,-0.5 -0.1,-1.2 -0.1,-2 m 16.1,18 c 0,-0.5 -0.1,-0.9 -0.1,-1.4 0,-3 0,-3 2.4,-3.8 2.4,-0.8 3.8,-2.9 3.9,-5.9 0.1,-2.9 -1,-5.4 -3.3,-5.9 -2.4,-0.6 -4.9,-0.6 -7.5,-0.8 v 26.4 c 0,4.7 1.8,6.7 5.9,6.6 3.5,-0.1 5.9,-2.5 6.5,-6.3 0.5,-3.6 -1.3,-7 -4.4,-8.2 -1,-0.4 -2.1,-0.5 -3.4,-0.7"
         style="stroke:#000000;stroke-width:11.1;stroke-dasharray:none;stroke-opacity:1;paint-order:stroke fill markers"
         id="path10" /><path
         class="st0"
         d="m 107.4,41.5 h -5.5 v -4.6 c 0.2,-0.1 0.3,-0.2 0.4,-0.2 9.8,0.2 19.7,-0.8 29.5,0.7 2.2,0.3 4.5,1.2 6.5,2.5 4.2,2.7 4.7,8.1 1,11.7 -1.8,1.7 -4,2.8 -6.1,4.1 -0.4,0.3 -0.9,0.4 -1.3,0.6 v 0.4 c 0.4,0.1 0.7,0.2 1.1,0.3 2.1,0.7 4.3,1.2 6.3,2.2 3.8,2.1 5,6.2 3.4,10.7 -1.3,3.5 -3.6,5.9 -6.5,7.3 -7.2,3.6 -14.5,3.8 -21.8,0.9 -4.4,-1.8 -6.7,-5.6 -6.8,-11 -0.1,-7.9 -0.1,-15.7 -0.1,-23.6 -0.1,-0.5 -0.1,-1.2 -0.1,-2 m 16.1,18 c 0,-0.5 -0.1,-0.9 -0.1,-1.4 0,-3 0,-3 2.4,-3.8 2.4,-0.8 3.8,-2.9 3.9,-5.9 0.1,-2.9 -1,-5.4 -3.3,-5.9 -2.4,-0.6 -4.9,-0.6 -7.5,-0.8 v 26.4 c 0,4.7 1.8,6.7 5.9,6.6 3.5,-0.1 5.9,-2.5 6.5,-6.3 0.5,-3.6 -1.3,-7 -4.4,-8.2 -1,-0.4 -2.1,-0.5 -3.4,-0.7"
         style="paint-order:stroke fill markers"
         id="path40" /></g><g
       id="g940"><g
         transform="translate(26)"
         id="g18"
         style="stroke:#000000;stroke-width:11.1;stroke-dasharray:none;stroke-opacity:1"><path
           class="st0"
           d="m 130.7,36.801 v 4.6992 h 5.3984 v 37.5 h 12 c 0.006,-14.899 -0.008,-42.099 -0.008,-42.099 0,0 -6.9337,0.08175 -17.39,-0.10021 z"
           style="stroke:#000000;stroke-width:11.1;stroke-dasharray:none;stroke-opacity:1;paint-order:stroke fill markers"
           id="path12" /><rect
           class="st0"
           x="162"
           y="36.799999"
           width="11.9"
           height="42.200001"
           style="stroke:#000000;stroke-width:11.1;stroke-dasharray:none;stroke-opacity:1;paint-order:stroke fill markers"
           id="rect14" /><path
           class="st0"
           d="m 148,48.3 c 0,7.5 3.8,12.9 14,11.9 v 7.4 c 0,0 -9.7,1.6 -14,-5.8 -4.2,-7.5 0,-15.9 0,-13.5"
           style="stroke:#000000;stroke-width:11.1;stroke-dasharray:none;stroke-opacity:1;paint-order:stroke fill markers"
           id="path16" /></g><g
         transform="translate(25.9)"
         style="paint-order:stroke fill markers"
         id="g48"><path
           d="m 130.7,36.801 v 4.6992 h 5.3984 v 37.5 h 12 c 0.006,-14.899 -0.008,-42.099 -0.008,-42.099 0,0 -6.9337,0.08175 -17.39,-0.10021 z"
           style="paint-order:stroke fill markers"
           id="path42" /><rect
           class="st0"
           x="162"
           y="36.799999"
           width="11.9"
           height="42.200001"
           style="paint-order:stroke fill markers"
           id="rect44" /><path
           class="st0"
           d="m 148,48.3 c 0,7.5 3.8,12.9 14,11.9 v 7.4 c 0,0 -9.7,1.6 -14,-5.8 -4.2,-7.5 0,-15.9 0,-13.5"
           style="paint-order:stroke fill markers"
           id="path46" /></g></g><g
       id="g957"><g
         transform="translate(38.2)"
         id="g28"
         style="stroke:#000000;stroke-width:11.1;stroke-dasharray:none;stroke-opacity:1"><path
           class="st0"
           d="m 196.1,36.8 h -17.3 v 4.7 h 5.4 V 79 h 12 V 68.1 c 0,0 -0.1,-29.9 -0.1,-31.3"
           style="stroke:#000000;stroke-width:11.1;stroke-dasharray:none;stroke-opacity:1;paint-order:stroke fill markers"
           id="path20" /><rect
           class="st0"
           x="192.66017"
           y="34.260197"
           width="23.979601"
           height="4.6999998"
           style="stroke:#000000;stroke-width:11.1;stroke-dasharray:none;stroke-opacity:1;paint-order:stroke fill markers"
           id="rect22" /><path
           class="st0"
           d="m 196.2,68.1 c 1.5,-7 7.8,-10.6 15.1,-9.4 v -6.8 c 0,0 -7.7,-2.2 -12.8,3.5 -5.2,5.7 -2.8,14.6 -2.3,12.7"
           style="stroke:#000000;stroke-width:11.1;stroke-dasharray:none;stroke-opacity:1;paint-order:stroke fill markers"
           id="path24" /><rect
           class="st0"
           x="191.7"
           y="73.300003"
           width="23.200001"
           height="5.6999998"
           style="stroke:#000000;stroke-width:11.1;stroke-dasharray:none;stroke-opacity:1;paint-order:stroke fill markers"
           id="rect26" /></g><g
         transform="translate(38.1)"
         id="g58"><path
           class="st0"
           d="m 196.1,36.8 h -17.3 v 4.7 h 5.4 V 79 h 12 V 68.1 c 0,0 -0.1,-29.9 -0.1,-31.3"
           style="paint-order:stroke fill markers"
           id="path50" /><rect
           class="st0"
           x="192.66017"
           y="34.260197"
           width="23.979601"
           height="4.5796008"
           style="stroke-width:5.2204;paint-order:stroke fill markers"
           id="rect52" /><path
           class="st0"
           d="m 196.2,68.1 c 1.5,-7 7.8,-10.6 15.1,-9.4 v -6.8 c 0,0 -7.7,-2.2 -12.8,3.5 -5.2,5.7 -2.8,14.6 -2.3,12.7"
           style="paint-order:stroke fill markers"
           id="path54" /><rect
           class="st0"
           x="191.7"
           y="73.300003"
           width="23.200001"
           height="5.6999998"
           style="paint-order:stroke fill markers"
           id="rect56" /></g></g></g></svg>
