<?xml version="1.0" encoding="UTF-8"?>
<!-- Generator: Adobe Illustrator 23.0.3, SVG Export Plug-In . SVG Version: 6.00 Build 0)  -->
<svg width="238.01" height="85.348" version="1.1" viewBox="0 0 238.01 85.348" xml:space="preserve" xmlns="http://www.w3.org/2000/svg"><g transform="translate(-12.843 -.15)" fill="none" stroke="#000" stroke-width="10.9" style="paint-order:stroke fill markers"><path class="st0" d="m57.4 49c-0.7-6-3.9-9.3-8.1-11.4-6.5-3.2-13.3-3.1-20-1.2-7.1 2.1-11.2 7.1-11 17.7 0.2 10.5 0 12.3 0 22.8v2.1h13.3v-30.6c0-4.5 1.8-7.1 4.9-7.7 4-0.8 7 1 7.8 5.3 0.6 2.8 0.8 5.9 0.6 8.8-0.3 4.4-2.9 6.5-6.5 7.4-1.4 0.3-4.6 0.3-4.6 0.3v5.2s8.6-0.1 11.5-0.3c7.9-0.6 13.2-9.1 12.1-18.4" style="paint-order:stroke fill markers"/><g transform="translate(3.2002)"><path class="st0" d="m87.6 11.2-7.4 2.2c0.9-3.5 1.7-6.7 1.7-6.7l0.3-1.1h-10.1l0.3 1.1s0.9 3.2 1.8 6.8c-3.3-1-6.4-1.9-6.4-1.9l-1.1-0.4v10.8l1.1-0.3s3.1-0.9 6.4-1.9l-2.1 7.9h10.2l-0.3-1.1s-0.9-3.2-1.8-6.8l7.5 2.2z" style="paint-order:stroke fill markers"/><polygon class="st0" points="66.7 36.8 83.9 36.8 83.9 79 72 79 72 41.6 66.7 41.6" style="paint-order:stroke fill markers"/></g><path class="st0" d="m106.2 41.5h-5.5v-4.6c0.2-0.1 0.3-0.2 0.4-0.2 9.8 0.2 19.7-0.8 29.5 0.7 2.2 0.3 4.5 1.2 6.5 2.5 4.2 2.7 4.7 8.1 1 11.7-1.8 1.7-4 2.8-6.1 4.1-0.4 0.3-0.9 0.4-1.3 0.6v0.4c0.4 0.1 0.7 0.2 1.1 0.3 2.1 0.7 4.3 1.2 6.3 2.2 3.8 2.1 5 6.2 3.4 10.7-1.3 3.5-3.6 5.9-6.5 7.3-7.2 3.6-14.5 3.8-21.8 0.9-4.4-1.8-6.7-5.6-6.8-11-0.1-7.9-0.1-15.7-0.1-23.6-0.1-0.5-0.1-1.2-0.1-2m16.1 18c0-0.5-0.1-0.9-0.1-1.4 0-3 0-3 2.4-3.8s3.8-2.9 3.9-5.9c0.1-2.9-1-5.4-3.3-5.9-2.4-0.6-4.9-0.6-7.5-0.8v26.4c0 4.7 1.8 6.7 5.9 6.6 3.5-0.1 5.9-2.5 6.5-6.3 0.5-3.6-1.3-7-4.4-8.2-1-0.4-2.1-0.5-3.4-0.7" style="paint-order:stroke fill markers"/><g transform="translate(21.8)"><path class="st0" d="m130.7 36.801v4.6992h5.3984v37.5h12c6e-3 -14.899-8e-3 -42.099-8e-3 -42.099s-6.9337 0.08175-17.39-0.10021z" style="paint-order:stroke fill markers"/><rect class="st0" x="162" y="36.8" width="11.9" height="42.2" style="paint-order:stroke fill markers"/><path class="st0" d="m148 48.3c0 7.5 3.8 12.9 14 11.9v7.4s-9.7 1.6-14-5.8c-4.2-7.5 0-15.9 0-13.5" style="paint-order:stroke fill markers"/></g><g transform="translate(30.5)"><path class="st0" d="m196.1 36.8h-17.3v4.7h5.4v37.5h12v-10.9s-0.1-29.9-0.1-31.3" style="paint-order:stroke fill markers"/><rect class="st0" x="192.6" y="36.8" width="22.3" height="4.7" style="paint-order:stroke fill markers"/><path class="st0" d="m196.2 68.1c1.5-7 7.8-10.6 15.1-9.4v-6.8s-7.7-2.2-12.8 3.5c-5.2 5.7-2.8 14.6-2.3 12.7" style="paint-order:stroke fill markers"/><rect class="st0" x="191.7" y="73.3" width="23.2" height="5.7" style="paint-order:stroke fill markers"/></g></g><g transform="translate(-12.843 -.15)" fill="#d7ba85" stroke="#e43133" stroke-width="5.1" style="paint-order:stroke fill markers"><path class="st0" d="m57.401 49c-0.7-6-3.9-9.3-8.1-11.4-6.5-3.2-13.3-3.1-20-1.2-7.1 2.1-11.2 7.1-11 17.7 0.2 10.5 0 12.3 0 22.8v2.1h13.3v-30.6c0-4.5 1.8-7.1 4.9-7.7 4-0.8 7 1 7.8 5.3 0.6 2.8 0.8 5.9 0.6 8.8-0.3 4.4-2.9 6.5-6.5 7.4-1.4 0.3-4.6 0.3-4.6 0.3v5.2s8.6-0.1 11.5-0.3c7.9-0.6 13.2-9.1 12.1-18.4" style="paint-order:stroke fill markers"/><g transform="translate(3.1003)"><path class="st0" d="m87.6 11.2-7.4 2.2c0.9-3.5 1.7-6.7 1.7-6.7l0.3-1.1h-10.1l0.3 1.1s0.9 3.2 1.8 6.8c-3.3-1-6.4-1.9-6.4-1.9l-1.1-0.4v10.8l1.1-0.3s3.1-0.9 6.4-1.9l-2.1 7.9h10.2l-0.3-1.1s-0.9-3.2-1.8-6.8l7.5 2.2z" style="paint-order:stroke fill markers"/><polygon class="st0" points="72 79 72 41.6 66.7 41.6 66.7 36.8 83.9 36.8 83.9 79" style="paint-order:stroke fill markers"/></g><path class="st0" d="m105.1 41.5h-5.5v-4.6c0.2-0.1 0.3-0.2 0.4-0.2 9.8 0.2 19.7-0.8 29.5 0.7 2.2 0.3 4.5 1.2 6.5 2.5 4.2 2.7 4.7 8.1 1 11.7-1.8 1.7-4 2.8-6.1 4.1-0.4 0.3-0.9 0.4-1.3 0.6v0.4c0.4 0.1 0.7 0.2 1.1 0.3 2.1 0.7 4.3 1.2 6.3 2.2 3.8 2.1 5 6.2 3.4 10.7-1.3 3.5-3.6 5.9-6.5 7.3-7.2 3.6-14.5 3.8-21.8 0.9-4.4-1.8-6.7-5.6-6.8-11-0.1-7.9-0.1-15.7-0.1-23.6-0.1-0.5-0.1-1.2-0.1-2m16.1 18c0-0.5-0.1-0.9-0.1-1.4 0-3 0-3 2.4-3.8s3.8-2.9 3.9-5.9c0.1-2.9-1-5.4-3.3-5.9-2.4-0.6-4.9-0.6-7.5-0.8v26.4c0 4.7 1.8 6.7 5.9 6.6 3.5-0.1 5.9-2.5 6.5-6.3 0.5-3.6-1.3-7-4.4-8.2-1-0.4-2.1-0.5-3.4-0.7" style="paint-order:stroke fill markers"/><g transform="translate(21.9)" style="paint-order:stroke fill markers"><path d="m130.7 36.801v4.6992h5.3984v37.5h12c6e-3 -14.899-8e-3 -42.099-8e-3 -42.099s-6.9337 0.08175-17.39-0.10021z" style="paint-order:stroke fill markers"/><rect class="st0" x="162" y="36.8" width="11.9" height="42.2" style="paint-order:stroke fill markers"/><path class="st0" d="m148 48.3c0 7.5 3.8 12.9 14 11.9v7.4s-9.7 1.6-14-5.8c-4.2-7.5 0-15.9 0-13.5" style="paint-order:stroke fill markers"/></g><g transform="translate(30.4)"><path class="st0" d="m196.1 36.8h-17.3v4.7h5.4v37.5h12v-10.9s-0.1-29.9-0.1-31.3" style="paint-order:stroke fill markers"/><rect class="st0" x="192.6" y="36.8" width="22.3" height="4.7" style="paint-order:stroke fill markers"/><path class="st0" d="m196.2 68.1c1.5-7 7.8-10.6 15.1-9.4v-6.8s-7.7-2.2-12.8 3.5c-5.2 5.7-2.8 14.6-2.3 12.7" style="paint-order:stroke fill markers"/><rect class="st0" x="191.7" y="73.3" width="23.2" height="5.7" style="paint-order:stroke fill markers"/></g></g></svg>
