<?xml version="1.0" encoding="UTF-8"?>
<svg width="127.67" height="124.23" enable-background="new 0 0 128 128" version="1.1" viewBox="0 0 127.67 124.23" xmlns="http://www.w3.org/2000/svg">
 <linearGradient id="a" x1="53.947" x2="53.947" y1="4.499" y2="123.77" gradientUnits="userSpaceOnUse">
  <stop stop-color="#9db4cd" offset=".1531"/>
  <stop stop-color="#badbff" offset=".87246"/>
 </linearGradient>
 <g transform="translate(-3.8702 -1.9659)">
  <g transform="translate(5.8004)" fill="#ffff20" stroke="#000" stroke-width="3.6">
   <path d="m102.2 69.4c0.4 0.6 1.1 1 1.8 1 0.3 0 0.6-0.1 0.9-0.2l16.2-7.7c0.5-0.3 0.9-0.7 1.1-1.3s0.1-1.3-0.2-1.8l-2.8-4.7c-0.3-0.5-0.9-0.9-1.5-1s-1.2 0.1-1.7 0.5l-13.4 12.2c-0.8 0.7-0.9 1.9-0.4 2.8-0.1 0 0 0.2 0 0.2z" style="paint-order:stroke fill markers"/>
   <path d="m123.9 75.3c0-0.6-0.3-1.2-0.8-1.6-0.4-0.4-1-0.5-1.6-0.4l-17.8 3.6c-0.9 0.2-1.7 1-1.7 2v0.3c0 1.1 0.9 2 1.9 2.1l17.8 1.4h0.2c0.5 0 1-0.2 1.3-0.5 0.4-0.4 0.7-1 0.7-1.6 0.1 0 0-5.3 0-5.3z" style="paint-order:stroke fill markers"/>
   <path d="m121.8 97-17-8.1c-0.8-0.4-1.6-0.1-2.1 0.6l-0.5 0.9c-0.4 0.7-0.3 1.6 0.3 2.2l14.1 12.8c0.3 0.3 0.7 0.4 1.1 0.4h0.2c0.5-0.1 0.9-0.3 1.2-0.8l3.4-5.7c0.2-0.4 0.3-0.9 0.2-1.4-0.2-0.3-0.5-0.7-0.9-0.9z" style="paint-order:stroke fill markers"/>
  </g>
  <path d="m75.3 105.9c1.2-0.9 12-1.7 13.1-1.9 1.8-0.2 5.2-1.2 6.6-2.8 5.2-5.6-0.3-9.6 1.5-12.5 0.1-0.2 0.6-0.8 1.2-1.7 0.2-0.4 0.4-0.8 0.6-1.3 0.1-0.2 0.8-1.9 0.1-3-0.7-1-2.9-0.2-8.2-0.1-2.4 0.1-3.7-1.8-3.7-1.8s2.7-1 8-3.2c2.5-1 4.1-2 4.5-4.2 0.1-0.8-0.1-1.4-0.3-1.9-0.3-1-0.7-1.2-0.9-1.9-0.2-0.8 0-1.6 0.6-2.2 0.9-0.9 3-1.6 3.4-4.8 0.7-5.8-10.3-6.5-9.1-15.8 0.1-0.5 0.1-0.1 1-6.5 0.1-0.7 0.2-1.2 0.2-1.6 0 0 0-0.7-0.1-1.4-0.8-4.8-5.8-13.4-5.8-13.4-2.4-4-2.5-4.4-2.7-4.6l-0.3-0.3c1.1-0.9 2.4-2.2 2.3-3.5-0.1-1.4-2.2-2.7-3.5-3.3-3.6-1.7-43.2-19.2-64.3 3.5-10.6 11.4-12.1 22-12.8 26.6-5.5 36 26.3 51.3 29.4 64 0.3 1.2 0.5 3.6 0.5 5.7 0 5.14-0.33 9.24-0.64 12h38.05c-0.1-6.16-0.06-17.03 1.29-18.1z" fill="url(#a)" stroke="#3468a0" stroke-width="4.4" style="paint-order:stroke fill markers"/>
 </g>
</svg>
