<?xml version="1.0" encoding="UTF-8"?>
<!-- Created with Inkscape (http://www.inkscape.org/) -->
<svg width="151.11mm" height="153.97mm" version="1.1" viewBox="0 0 151.11 153.97" xml:space="preserve" xmlns="http://www.w3.org/2000/svg"><path d="m70.28 153.56c-5.9911-1.7811-10.095-5.0956-15.598-4.5352-1.4932-5.7955 1.8666-8.3702 5.2757-3.0533 7.2827 3.5131-4.3851-5.9854-5.7861-6.413-1.9167 3.6785-0.19426 12.572-6.3482 6.8389-3.0215-4.4674-11.731-0.41185-12.588-8.0521-5.6698-0.68106-7.7624-6.4492-11.803-9.274 0.47236-7.3378-8.7308-9.3474-8.7941-16.586-2.6176-1.5707 6.0176-3.378-0.08037-5.1312-3.0341 2.2078-1.0773 12.892 3.793 15.595 3.4735 1.4111 5.9537 5.8004 0.33778 2.5025-7.6539-4.1278-5.6935-13.787-11.636-18.655-1.0967-6.6673-6.265-12.833-3.9625-19.973-3.9388-5.7751-4.1625-13.662 0.05208-19.356-1.5188-6.009 1.0869-12.656 3.9271-17.904-3.0648-6.9805 9.7791-8.3241 9.0515-11.555-2.595 3.3002-7.0466 3.9301-4.3192-1.504 0.366-4.4128 8.8809-8.8426 3.3347-2.2485-3.2266 5.2511 4.9237-1.002 2.8562-4.1266 1.8732-5.8897 8.0422-7.5383 10.407-13.646 6.5452-3.4236 12.2-6.9287 18.411-10.085 2.772-0.83115 13.316 1.1076 5.986 2.401-6.4093-2.3044-7.5574 10.251 0.31542 9.7483 7.8197 5.6557-0.88372-6.1703 5.204-6.2284-1.2226 7.9443 3.5646 13.593 9.7584 18.147 4.7061-0.70112-0.17516-9.5895-4.8968-7.8121-4.902-2.4499-2.7654-6.2972 1.8915-3.5668 2.2349 1.0225 6.2062 7.2435 3.9676 1.0217-1.02-3.5942-13.266-4.0634-7.8712-6.8605 2.6192 1.698 5.6707 4.2856 1.5719 0.10998-4.0591-5.0915-7.8411-1.9418-10.607 2.4982-7.8433 0.94014 5.0434-8.5246 7.1958-10.762-2.4467 2.0989-9.4712 0.96119-2.963-0.958 3.7704 0.34034 7.7153-1.0035 1.5438-0.7212-2.7627 0.72235-11.255 4.5448-4.8111-0.07784 6.8297-2.3662 13.486-1.6056 20.139-2.6258 6.9829-1.0805 13.817 1.3778 21.265 1.2742 6.8399 3.737 14.425 5.4777 20.412 10.282 4.9529 2.1659 11.198 5.4682 13.179 11.341 4.9384 2.244 4.2114 7.1516 9.4959 9.2695 4.8943 4.8868-0.55954 13.396 4.6746 17.228 1.6083-2.7605-4.7858-11.218 1.3054-5.3987 0.92553 7.3939 5.9919 13.797 4.846 21.262 1.3143 5.6546 5.2724 13.715 0.2372 19.775 0.12126 6.0068-1.2332 13.053-4.1133 19.023 0.43332 7.8015-10.963 6.0094-9.9757 14.16-0.89671 3.8108-9.8042 4.4241-3.5343 0.8953 3.8985-2.2695 3.9231-10.269-0.73427-3.9552-4.2139 4.8109-2.1222 14.122 3.9738 6.0204 3.0133-2.0948 5.3274-14.909 5.1612-5.652-1.5692 6.6056-9.6252 13.951-16.359 10.191-0.82348-6.5672-10.437 0.47718-14.887-1.9039-3.7294 2.8252-5.9906 9.7996-9.6592 13.202 0.30977 3.5182 4.4189 10.02 4.7121 5.1483-6.1397-3.4699 0.40766-11.574 3.1975-3.8024 0.95221 7.8944-5.2239-6.2154-3.3506 1.1283 3.4004 6.0042 10.217-1.6511 12.355-0.36647-3.0646 6.9148-11.016 1.7164-14.419 7.9803-4.474 1.8833-1.5785-14.432-7.4107-5.8797-1.5378 2.0634-9.8267 5.7398-2.6741 5.5062 3.7499 2.133 5.8932-2.8948 1.3743-0.0945-2.526-1.1262 5.7453-8.7128 4.3313-1.6781 1.4257 7.2939-7.419 0.9381-9.241 5.6001-5.2532 2.6503-11.365 3.2357-17.117 2.2918zm11.259-2.1257c4.2906 0.1987 8.8736-5.8358 2.7364-2.812-1.9135 4.0686-11.579-0.41965-5.8958-0.79273 4.9091 1.1015 6.7418-3.5553 0.91046-3.7153-2.0387 5.2004-11.323 8.4353-12.386 3.1659 5.5181 2.6815 12.387-2.9863 9.9455-7.48 3.2672 4.3434 11.903-4.9674 3.6567-4.7563-1.1253 3.1022-11.372 10.594-6.1819 3.9376-1.6516-3.084-8.0864-5.3057-6.2172-0.46186 3.4789 2.2212 10.404 10.026 2.3435 5.9827-4.593 2.0887-9.9421 4.6254-2.3011 6.4075 4.2755 1.5539 8.9928 1.4722 13.39 0.5246zm-23.151-3.6276c-2.5582-4.3227-3.3373 1.4337 0 0zm29.508-3.7506c3.0159-0.56906 10.443-9.6497 4.7234-7.2848-3.8741 3.7754-7.2633 0.167-10.684 5.1136-0.26939 1.0098 4.2695 5.6773 5.9605 2.1712zm-37.055-0.64985c4.7562-7.0698-4.0896-13.172-7.4054-18.863-3.8628 0.36405-12.741 1.0871-13.336-2.4708 4.2961 0.8199 18.543 0.83405 13.65-5.8691-4.3629-2.5307-2.8129 7.3044-9.0261 4.9119-5.6297-5.0662 9.4328-7.7144 1.3751-8.2533-2.6715-1.8487-5.9929 9.5941-7.6073 2.1018 1.4002-3.5647 3.6941-5.7195-2.33-5.1149-3.8546 1.0398 4.9738 8.563 2.8652 13.041 0.93073 4.9955-7.0157 4.3337-1.4856 8.4338-0.7491-2.2914 7.4326-9.5616 6.661-2.5728-3.2319 3.0539-5.2517 6.7858 0.88296 8.1067-2.3447-6.6676 13.367-13.425 9.3212-3.92-1.3049 3.9704-11.097 5.7303-3.5289 9.1307 6.4039 4.2766 2.9654-9.7232 9.3113-5.5794 2.6983 3.6573-5.8724 8.0537 0.2374 8.2718l0.41599-1.3548zm16.549 0.85694c4.6037-1.7983-2.3382-7.1911-5.1642-4.983-1.9979-3.457-9.6454-3.8576-3.9848 0.35539 2.8263 1.4094 5.6817 7.5888 9.149 4.6276zm-19.211-3.941c1.8217-5.4318-3.4192 1.537-0.78379 1.247zm29.325-4.3833c5.2576-1.576-5.1013-6.5478 1.3908-4.7344 5.693-1.823 2.9607-14.401-1.8143-18.56-5.3643-2.1024-8.7017 9.9853-7.5375 14.925 1.174 2.507 4.5955 13.752 7.961 8.369zm-5.5022-3.334c3.0446-3.4156 7.3776-8.0178 3.6975-12.68-2.9894 2.0522 1.1094 13.476-3.1568 6.2656-2.5455-4.441 3.7303-14.916 6.0895-6.0246 2.0987 4.6742-1.6842 12.105-6.6302 12.439zm-7.978 3.7744c-1.4833-2.9554-7.0906-3.8791-3.5854-0.56013 0.58103 0.79261 4.2768 2.1524 3.5854 0.56013zm-24.432-0.92368c6.1874-3.2213 0.88823-8.1337-1.7819-1.8072-1.0785 2.4312-1.1035 4.6828 1.7819 1.8072zm51.204 0.16212c4.4407-5.9398-7.1975 2.6704-1.3143 0.97968l1.3143-0.9795zm-35.848-0.0767c1.9921-3.6018-8.006-9.6549-3.1891-15.718 2.7788-7.1534 13.717-5.6765 15.889-12.813-3.4157-0.74851-10.977 4.2917-14.892 6.961-6.8005 5.7348-4.5393 16.148 1.3825 21.617l0.56798 0.47547 0.24168-0.52307zm34.638-3.4457c-4.0916-3.8029 1.5212-17 4.6281-7.8056 1.3439 2.3063-4.4566 10.256 0.12851 8.0407 6.0944-4.7584 1.9991-15.548-5.5236-14.262-0.35833 5.2947-5.2198 11.748-5.9001 15.49 3.0033 4.8857 3.6842 0.3223 6.6671-1.4634zm9.474 0.92858c5.1628-5.8244 5.2403-15.544-1.7254-20.04-3.8055-2.6403-9.7042-6.2439-13.547-5.866 2.3342 7.3358 14.282 5.6489 16.172 13.904 2.9033 5.1914-3.858 11.415-4.0378 13.938 2.2595 2.552 1.4501-0.65227 3.1382-1.9367zm-32.174 1.6956c5.0694-2.1876-4.7539-9.349-3.7227-14.47-2.5704-7.2823-13.737 4.8019-7.7115 9.7479 3.2068 6.3452 4.1199-0.36106 1.6955-3.5741-1.0016-4.7181 4.8193-8.8422 5.544-1.8296 0.14192 3.9675-2.0195 9.5253 3.0304 10.889zm-36.28-4.1939c6.0147-5.2921-3.5829-1.2455 0 0zm30.082-3.368c-2.5697-10.697-0.82494 9.1809 0 0zm31.396 0.48184c0.50974-11.616-4.3905 7.273 0 0zm-65.6-2.454c2.0633-4.5989-4.8469 0.82338 0 0zm100.48 0.24236c-0.9303-6.3527-5.4892 1.2653 0 0zm-5.4773-3.6655c0.78563-3.5962 5.3889-10.04 4.2999-12.21-3.7167-0.47735-7.1133 1.2038-3.187 4.1016 1.5666 6.576-5.8257 2.6317-5.9891-1.4024-3.4889 0.55925-6.1331 6.5443-1.1716 7.0626-2.6316-2.9506-1.3723-7.0336 1.4954-2.4279 3.1007 8.8417-11.124 2.068-6.0476-4.0603 0.24806-2.7905-12.328-2.7786-5.9183 0.42609 4.5093-0.15644 6.6945 1.7366 1.5579 3.7943-1.6485 7.119 11.083 5.0826 14.961 4.7158zm6.0566-4.9116c0.57683-3.2468 9.9734-6.219 3.5567-6.5685-3.0802 1.7771-9.9016 10.471-4.6316 11.369 0.22022-1.6257 0.36021-3.2951 1.0748-4.8002zm-100.64 4.396c2.6497-5.9496-10.886-10.399-6.0972-14.109 7.3577-0.8264 14.699-0.65731 21.971 0.65491 6.4854-0.85313 13.393-3.8066 17.973-8.4766 3.7602-6.6065 9.1989-12.448 9.2961-20.534 1.6701-7.4106-3.4721-13.824-8.7348-18.341-2.4541-0.38851-11.603 7.4431-8.9101 0.4529 0.99628-4.194 12.301-0.32586 5.5232-4.4026-4.7829-3.112-9.485 9.044-12.116 4.4944-1.9445-7.1879 15.061-4.6447 6.3084-8.2662-5.4559-3.7908-11.136-0.40478-9.6318 6.1227-3.3392 7.1772-4.1502-4.748-1.1188-6.0755-4.7755 1.0321-2.952 15.016-7.9004 11.393-3.0276-6.7483 7.0199-10.956 8.0997-14.171-8.2449-0.85337-11.023 5.632-14.586 11.442-5.5427-0.82898 2.2685-9.7586 5.1043-11.148-7.0041-0.23653-14.315 6.2764-10.642 13.512 0.15311 10.788-6.2332-4.0766-2.6715-6.6093-5.4174 2.3822-4.501 8.4262-6.2882 12.743 3.7586 7.3031-2.1389 14.725 1.9848 21.312 1.4489 6.9327 5.9986 12.902 3.6406 20.342 6.0448 0.5919 4.7434 9.3869 8.7962 9.6636zm-4.1315-1.3849c0.82476-4.344-8.4652-9.2885-4.4661-2.215 0.2581 0.88061 4.485 5.2658 4.4661 2.215zm14.954-1.531c5.6693-3.9049-2.0043-2.8774-1.5875 1.0645l0.56567-0.31269zm-6.2751-3.6334c2.6366-5.8649-3.4135 1.74 5e-6 0zm89.643 0.30193c-1.1794-5.5975-2.8813 0.10915-5e-5 0zm-74.17-1.8474c5.305-5.8172-14.237 0.56058-4.0339 0.55483 1.3465-0.0878 2.823 0.23827 4.0339-0.55483zm90.219-2.6204c4.5036-8.5903-7.6067 0.48494 0 0zm-125.18-2.0229c1.7978-3.4133-6.0397-6.4234-2.7505-0.84032 0.66099 0.47681 2.8796 4.3376 2.7505 0.84032zm129.08 0.2732c5.7084-4.7248-4.0244-5.0336-1.3164 0.26787l0.27881 0.29145zm-27.098-1.7255c5.9319-0.95468 11.993-0.11352 17.98-0.0366-0.40124-5.0249 3.8118-7.5048 3.8393-12.341 1.2977-2.8395 1.027-7.5662 3.7695-9.6244-5.3601-5.3909 0.92472-13.395-1.9597-18.428-0.89316-1.9817-1.692-11.042-2.5146-5.0867 2.9972 3.9917-5.1374 13.163-3.2064 4.5306 3.6621-5.3999 0.56102-11.675-5.6399-13.006 2.1214 1.6901 7.9405 11.155 2.9443 10.107-4.2561-4.8628-3.4148-14.325-12.833-13.363-8.4369-0.30934 6.5492 4.2209 5.7534 8.663 2.1313 9.6296-6.7157-0.70453-6.3059-4.4441-2.4333-3.9137-4.5433-1.4007-1.1515 1.2738 3.4116 3.6385-3.1294 10.881-3.0007 3.1229 2.19-10.633-11.071-7.2345-16.41-3.7702-3.1823 3.2457 9.0794-4.3702 10.909 1.0252 4.8931 8.1214-9.2237-2.3135-10.005 1.9114 5.6453-2.4806 10.345 11.339 3.7328 5.8016-3.9734-8.384-15.881-3.946-12.031 5.1709-0.03636 7.1867-4.8103 13.859-2.8711 21.377 1.6504 7.1329 9.4328 10.659 14.559 15.226 4.325 2.6408 9.5835 3.0399 14.441 1.8919zm-96.837-2.0451c0.33247-6.4534-6.5699 1.4431-0.26458 1.6841l0.18805-0.48717zm119.39 0.7179c1.9392-4.5897-4.4925-3.5851-2.5566 0.81688 0.84639-0.26829 1.6248-0.87923 2.5566-0.81688zm-123.44-1.7138c3.1265-6.132-6.2599-3.5763-3.0232-0.42708 0.78339-0.73747 3.2211 2.0844 3.0232 0.42708zm127.81-0.6474c3.8481-3.6405-6.2636-4.6962-2.3645 0.21858l0.80266 0.46302zm-132.49-3.0887c2.5334-3.4198-5.4351-4.0153-1.7024 0.4016l0.7884 0.98746zm136.21-0.0413c3.5134-6.0449-5.7129-0.37674-0.64439 1.0087zm-129.77-2.2193c-2.217-9.5905-4.6772 5.1727 0 0zm123.07 0.74628c4.1203-3.8511-3.0847-4.4074-1.4946 0.52218zm-126.88-3.2375c0.59558-6.837-8.122 1.1205-1.0166 1.1883l0.50174-0.40217zm132.09 0.55078c4.4485-5.4083-8.0423-3.8162-1.348 0.82761zm-136.81-3.3252c2.6369-4.0129-4.7966-4.9548-1.8455 0.01816l0.79958 1.2243zm140.33 0.42837c3.7079-10.706-6.4974-0.10494 0 0zm-6.4287-1.5824c4.0633-2.5986-2.6832-6.4038-1.8821-0.26654-0.67251 2.3537 1.3978 0.08812 1.8821 0.26654zm-127.25-0.37374c-1.6616-9.424-5.8051 2.9754 0 0zm131.7-3.643c2.9396-4.91-6.9472-1.9615-1.2872 1.3861l0.47313-0.40716zm-135.77 0.0748c0.83147-8.3299-6.808 3.0333 0 0zm139.9-6.1123c1.8723-2.5164 0.35451-15.528-3.5624-11.145 5.4213 4.5665-0.71736 10.793 1.3825 14.879 0.80437-1.1963 1.6571-2.3791 2.1799-3.7344zm-143.18 2.696c-1.6189-4.101-2.5146-9.6142-0.22364-14.395-4.5226-2.0746-4.9202 16.273 0.22364 14.395zm5.536-1.1848c2.1726-2.8521 1.6072-15.388-2.3055-11.797 4.141 2.6741-2.228 15.807 2.3055 11.797zm130.6 0.95146c-0.83637-3.6339-0.82206-9.9611 0.7958-13.313-4.7094-3.355-4.5706 13.675-0.7958 13.313zm3.4039-3.5702c3.3117-4.6686-3.0203-11.697-2.5884-3.1105-0.0247 1.1121 1.8263 7.8398 2.5884 3.1105zm-137.59 0.79212c2.9784-3.2666-1.0056-13.032-2.4172-4.5735 0.15422 1.0357 1.0611 5.4981 2.4172 4.5735zm1.2472-12.397c2.4907-6.1979-6.5832-1.4364-0.88172 1.0768l0.88172-1.0768zm136.01-0.55446c2.1971-5.2604-6.9972-0.9996-0.75765 1.3572zm-3.6601-2.8637c2.3888-3.7727-6.0875-4.4124-1.7496 0.75652l0.72133 0.56645 1.0283-1.323zm-129.06 0.12901c3.4074-8.4524-6.4235 1.4611 0 0zm135.21-1.3641c0.78252-5.2628-2.5536-4.7012-3.2005-0.78833 1.0455 1.4305 2.4651 4.7881 3.2005 0.78833zm-141.38 0.65942c3.2211-6.1095-4.8743-4.1019-1.1555 0.84619zm3.831-3.3991c6.0116-2.3802-4.5413-6.6929-1.8717-0.70129l1.0178 1.2424zm133.7-0.52255c2.2549-6.0584-7.5605-1.4442-1.628 0.35353l1.0327 0.69773zm-129.58-2.3976c6.1015-4.7959-5.1408-4.2168-0.99643 0.55087zm126.27-1.9089c-4.1702-5.3388-4.746 2.3085-1.3562 1.5819 0.47604-0.50611 0.97663-0.99053 1.3562-1.5819zm-131.99-0.33638c2.4733-1.6269-1.7735-6.8146-2.1474-1.2709-0.81387 1.9799 0.45712 2.798 2.1474 1.2709zm137.16-0.51924c-2.0711-10.163-4.3418 4.7909 0 0zm-132.07-3.8086c-2.9673-6.4676-5.323 5.4299-0.36289 1.818 1.3117-0.49812 1.0586-0.75224 0.36289-1.818zm5.0289 1.9295c3.8879-2.5184 8.9196-6.1402 1.6516-8.3744-3.3849-6.0742-15.932 2.0867-9.1811 3.6055 0.72022-1.5582 0.26867-8.1123 2.7279-2.0039 1.8006-0.63909 7.9387-1.5503 5.3885 4.1382-0.38297 1.069-4.0223 4.1297-0.58692 2.6345zm122.93-0.69236c3.1718-4.0962-11.909-7.2142-5.5921-0.64109 2.0263-3.7756 3.261-1.5071 2.7767 1.4926 0.83795 0.26699 2.7205 0.67029 2.8154-0.85148zm-72.354 0.17994c3.2302-3.1486-10.677-10.071-2.358-8.8217 4.2959 3.0995-1.8125-6.1207-4.9264-2.746-4.8589 1.3257-7.9706-1.8443-1.9395-3.7324 3.8749-0.60387 8.9825 5.0464 4.0533-1.059-1.8316-7.1389-8.3408 0.51694-10.766-4.0275 3.1184-1.7242 9.7004-1.6376 2.6261-2.0101-5.3317 2.411-10.553-8.9808-2.7049-3.9023 2.8938 2.029 7.4502 2.8168 2.9003-0.75914-3.1604 0.07704-11.029-5.6032-3.7262-3.1848 3.3591 1.7684-8.0618-7.2471-12.224-5.3248-5.4405-2.3655-5.0957 8.6733-3.9336 11.786 6.4732 2.1898 4.1329-4.5673 2.0529-7.5298 1.2504-7.8992 3.7027 4.3354 4.23 3.4859 0.34226-3.9543 8.0041-9.0872 4.9951-2.0042-1.1475 3.0377-3.3797 7.7096-0.14407 2.6042 1.6102 3.667-6.2469 12.316 1.1143 15.11-4.034-2.1328 0.12293-12.354 0.99105-4.3728-2.264 3.6151 5.462 11.031 2.0133 4.4684-0.488-6.8534 4.8933-6.0715 3.3833 0.33218-2.4141 4.9292 6.3332 8.31 7.8113 8.8165-3.6913-2.4996-4.8736-9.9164 0.73856-4.2691 1.8069 2.5706 0.70215 8.8158 5.8129 7.1408zm65.107-0.11379c-5.2494-4.7695 1.6623-8.6212 4.4895-6.6494 0.78788-5.6364-3.8822-1.5292-6.6638-0.84959-8.7225 1.5207-2.9551 6.6905 2.1742 7.499zm-117.51-1.3421c3.9074-8.0784-6.8073-0.739 0 0zm69.138-0.31153c2.2384-2.9267 1.1743-12.9 6.265-10.798 1.6961 3.5714-7.2831 13.181-0.16758 7.8425 1.8609-2.3466 4.3543-15.694 6.2298-7.5408 0.57564 2.8151-6.8084 9.2778-0.95097 5.0994 1.149-2.4612 7.0668-10.341 8.136-6.094-0.2701 2.8068-10.02 7.2902-2.7686 4.4035 3.9347-4.0154 10.626-8.5417 11.194-13.855-3.0299-0.12944-14.299 1.0134-12.101 2.4032 3.815-1.4325 11.121-0.06986 4.0404 2.8422-6.1488-2.8824-13.285-1.2221-17.492 4.5233-1.8481 1.4522-8.924 13.019-2.3845 11.174zm-53.317-5.5127c-0.79817-1.9086-8.3685-4.6582-5.4115-8.5552 4.3518 0.37416 4.9556 9.529 8.6968 7.2138-4.0991-1.6682-3.581-12.816 0.08625-5.1688-2.8489 7.0167 12.005 7.7165 5.0249 1.2542-4.288-0.28327-7.6578-7.5298-1.4473-3.6556 3.4867 3.5192-1.9553-5.8642-5.198-2.9471-6.0205-1.6491-8.9511 3.3605-12.834 6.2213-0.96997-4.4113 7.3873-6.5156-0.2564-4.6818-5.5053 3.6021 4.7476 9.741 8.9152 9.9638 0.7913-0.1787 1.653 1.1848 2.4236 0.35556zm83.835-2.6894c1.8001-1.7613 5.6024-11.184 7.3252-5.9704-0.1882 3.2932-8.9373 8.1077-1.2855 5.8901 1.4028-1.5717 6.5176-11.106 5.8245-3.9262-1.7614 3.0824-6.181 5.4123 0.18276 3.7071 6.6872-1.1672 4.656-12.004 0.63726-14.016 7.485 0.55846-7.1471-9.0749-3.1697-1.171-2.4804 0.92032-3.1788-9.7848-8.1956-8.7899 3.5376 3.1866 6.5876 5.0137 1.295 7.9048 1.391 2.9426 9.1887 4.7242 8.0476-1.4515 2.1219 2.4598 1.0788 7.0805 4.8068 8.8587-0.38317 4.2104-11.104-4.9109-8.6449 0.25221-4.229 0.52138-12.02 3.9157-10.05 8.9011 1.0315 0.77834 2.2428 0.26375 3.227-0.18891zm20.662-3.5976c-2.6702-4.3261-2.2564 0.1112 0.455 1.0188zm-50.696-5.5398c4.947-2.2869 8.9819-6.2821 5.4618-11.55 1.108-7.3862 5.3579 3.5939 2.1267 6.3403 8.8985-0.82969-5.0097-17.313 3.7108-12.471 3.1403 1.9851-2.1851 13.869 2.8595 6.8978 2.1947-4.0902-5.0737-14.89-7.6463-11.272 6.9999 0.84172-1.0727 2.2935-3.7963 2.4739-3.3852 3.3218-3.0785 3.2963 0.81178 1.6151 6.1274 0.23879-2.8058 5.2389-5.3928 3.473-3.0329 2.5662-6.5932 11.271-1.4561 3.9119 4.5617-4.9191 7.295 0.48028 2.0806 3.1409-4.739-1.0912-8.5152 8.7174-2.3614 2.4526 5.8547-3.3127 5.7663 3.6426-0.25925 2.3975-5.0772 1.3717-3.0364 10.222 1.5757 4.1023l1.1095-0.73016 1.1758-0.78228zm49.874 1.765c3.9474 1.2639-4.1771-7.7649-1.833-1.0314 0.87683 5.5824-0.49258-1.7474 1.833 1.0314zm-18.474-1.6411c3.7356-2.0287 5.4598-1.3953 0.50046-3.1478-0.32785-0.05587-2.4187 4.6806-0.50046 3.1478zm-96.688-1.1112c8.6136-5.8911-6.6011-0.75015 0 0zm8.5598-2.1533c6.3753-3.9108-2.1124-9.2294-3.5012-5.2178 5.0132-1.72-4.3609 5.62 2.2138 5.654zm15.484-0.47273c0.53621-2.0055-0.87953-0.33192-0.40549 0.38142zm-21.505-4.0749c-0.30809-3.9829-4.7521 5.2467 0.04294 1.4968-0.01431-0.49894-0.02863-0.99787-0.04294-1.4968zm91.948 0.28913c-0.45532-3.4863 2.6651-10.026-3.3037-8.9695-6.5801-3.3643-10.123 12.01-3.1789 6.4379 0.21128-4.6703 6.925-7.4325 3.6139-0.71463-5.0409 3.1747 0.4212 1.9538 2.6681 3.964zm10.529-3.5057c0.26325-1.7444-6.568-10.393-10.028-7.1278 5.3114-0.08172 7.0888 5.8741 10.028 7.1278zm-98.476-0.81185c0.02432-4.066 13.026-7.8277 4.0641-6.1752-1.6836-0.74515-7.6406 8.9716-4.0641 6.1752zm4.7484-1.1353c5.9665-6.4839-7.5732 2.7566-0.97254 0.57867zm44.725-4.1972c-1.3509-2.1411-0.42911-10.592 1.6478-3.7914-0.7083 6.5887 3.8134-3.6251-0.62601-5.0794-3.3088-7.7719-8.9748 8.8251-5.1629 4.0341-0.26302-4.896 5.6099-5.7192 2.1741-0.53143-2.4374 1.439-0.90033 7.6023 1.967 5.3681zm-36.727-1.5007c5.1492 1.5565 4.3007-7.1941 1.8272-1.5551-2.1046 1.365-8.2227 2.6532-1.8272 1.5551zm74.181-0.02792c-2.3383-1.01-2.048 0.79387 0 0zm-4.0113-0.87105c-2.7314-5.1912-5.1991 0.53589-0.11057 0.7278 1.1326 0.6617 1.1573-0.46285 0.11057-0.7278zm-6.4542-0.98103c1.3852-4.7226-6.9833-8.0597-5.374-3.0481 1.1943 0.57185 4.9724 6.6713 5.374 3.0481zm-62.997-1.0201c4.2359-3.8432-7.7885 2.2405-1.2093 0.70099l1.2093-0.70099zm72.474 0.86145c-1.5988-4.1097-6.319-1.9545-0.57762 0.1577l0.57762-0.1577zm-43.636-5.7951c4.0257-2.6561 3.5364-5.1134-0.46982-2.142-2.3179-1.75-11.064 1.0424-8.1904 3.0413 3.3905 1.2112 6.1274 3.1238 8.6602-0.89936zm37.337 1.9642c-5.1306-5.7099-3.7584 2.1395 0 0zm-59.653-0.50838c5.7202-3.6094-7.8551 1.2216-1.284 0.80227l1.284-0.80227zm43.38-0.41639c2.1345-1.4783 11.453-1.2789 6.4714-4.2794 2.9683 4.6412-6.7158-2.1535-3.7032 2.6831-3.9406-1.3038-6.7072-3.1847-11.197-1.6322-9.0037-4.7104 3.034 9.1932 7.4223 3.5247zm-6.1314-5.0255c3.2337-1.9443-7.9419-1.4291-1.0583 0.39861zm-15.222-0.28074c2.866-2.1786-6.9356-0.38661-1.3096 0.40952zm24.522 0.18334c-1.5576-1.7239-4.3343 0.76702 0 0zm-16.88-0.58796c3.435-1.4556-5.6428-1.7422-1.3229 0.30646zm36.799 135.08c-6.7753 0.54564-11.486-15.215-1.7709-9.1842 5.024 1.979 2.2286 11.966 8.3245 5.2006 6.8759-3.6592-3.2181 7.4233-6.5536 3.9836zm0.10386-3.8626c-1.7351-6.7268-8.9234-2.8695-2.1659 1.0483 0.52661 0.52509 4.2231 1.4958 2.1659-1.0483zm6.5065-2.0554c-6.0007-1.8555-2.7067-10.535 1.9873-4.6462 0.15445 5.6918 3.0559 0.49409 5.6263 0.58182-0.42697 3.8022-4.3991 4.9736-7.6135 4.0644zm1.0048-2.0276c-1.8152-5.471-4.0894-0.28227 0 0z" fill="#d5b85a" stroke-width=".26458"/></svg>
