<?xml version="1.0" encoding="UTF-8"?>
<!-- Created with Inkscape (http://www.inkscape.org/) -->
<svg width="160mm" height="160mm" version="1.1" viewBox="0 0 160 160" xml:space="preserve" xmlns="http://www.w3.org/2000/svg"><ellipse cx="79.895" cy="80" rx="76.382" ry="76.506" fill="#0f4c23" stroke="#0f4c23" stroke-linecap="round" stroke-linejoin="round" stroke-width="6.9878" style="paint-order:stroke fill markers"/><path d="m74.564 156.35c-6.1347-1.7738-10.337-5.0746-15.972-4.5165-1.529-5.7717 1.9113-8.3358 5.4021-3.0408 7.4573 3.4987-4.4902-5.9608-5.9248-6.3866-1.9626 3.6634-0.19892 12.52-6.5004 6.8108-3.0939-4.449-12.012-0.41016-12.89-8.019-5.8057-0.67825-7.9484-6.4227-12.086-9.2359 0.48368-7.3076-8.9401-9.309-9.0049-16.518-2.6803-1.5642 6.1618-3.3641-0.08229-5.1101-3.1068 2.1987-1.1031 12.839 3.8839 15.531 3.5568 1.4053 6.0964 5.7765 0.34588 2.4922-7.8374-4.1108-5.83-13.73-11.915-18.578-1.123-6.6399-6.4152-12.78-4.0575-19.891-4.0332-5.7514-4.2623-13.606 0.053328-19.276-1.5552-5.9843 1.113-12.604 4.0212-17.83-3.1383-6.9518 10.013-8.2899 9.2684-11.507-2.6572 3.2866-7.2155 3.9139-4.4227-1.4978 0.37477-4.3947 9.0938-8.8062 3.4146-2.2393-3.3039 5.2295 5.0417-0.99788 2.9247-4.1096 1.9181-5.8655 8.235-7.5073 10.656-13.59 6.7021-3.4095 12.492-6.9002 18.852-10.044 2.8384-0.82773 13.635 1.103 6.1295 2.3911-6.5629-2.2949-7.7385 10.209 0.32298 9.7082 8.0071 5.6324-0.9049-6.1449 5.3287-6.2028-1.2519 7.9116 3.65 13.537 9.9923 18.072 4.8189-0.69824-0.17936-9.5501-5.0142-7.78-5.0195-2.4398-2.8317-6.2713 1.9368-3.5521 2.2885 1.0183 6.355 7.2137 4.0627 1.0175-1.0444-3.5794-13.584-4.0467-8.0599-6.8323 2.682 1.691 5.8066 4.268 1.6096 0.10953-4.1564-5.0706-8.029-1.9338-10.861 2.4879-8.0313 0.93627 5.1643-8.4895 7.3683-10.718-2.5053 2.0903-9.6982 0.95724-3.034-0.95406 3.8608 0.33894 7.9002-0.99937 1.5808-0.71823-2.8289 0.71938-11.525 4.5261-4.9264-0.07752 6.9934-2.3565 13.809-1.599 20.622-2.615 7.1503-1.0761 14.148 1.3721 21.775 1.269 7.0038 3.7216 14.771 5.4552 20.901 10.24 5.0716 2.157 11.466 5.4457 13.495 11.294 5.0568 2.2348 4.3123 7.1222 9.7235 9.2314 5.0116 4.8667-0.57296 13.341 4.7866 17.157 1.6468-2.7491-4.9005-11.172 1.3367-5.3765 0.94771 7.3635 6.1355 13.74 4.9622 21.175 1.3458 5.6313 5.3988 13.659 0.24288 19.694 0.12417 5.9821-1.2628 12.999-4.2119 18.945 0.44372 7.7694-11.226 5.9847-10.215 14.102-0.9182 3.7951-10.039 4.4059-3.619 0.89163 3.9919-2.2602 4.0171-10.227-0.75187-3.9389-4.3149 4.7911-2.1731 14.064 4.069 5.9956 3.0855-2.0862 5.4551-14.848 5.2849-5.6288-1.6068 6.5784-9.8559 13.894-16.751 10.149-0.84321-6.5402-10.687 0.47523-15.244-1.8961-3.8188 2.8136-6.1342 9.7593-9.8907 13.148 0.3172 3.5037 4.5248 9.9788 4.825 5.1271-6.2868-3.4556 0.41743-11.526 3.2741-3.7868 0.97504 7.8619-5.3491-6.1898-3.4309 1.1237 3.4819 5.9795 10.462-1.6443 12.651-0.36497-3.1381 6.8864-11.28 1.7093-14.765 7.9475-4.5812 1.8756-1.6163-14.373-7.5883-5.8555-1.5747 2.0549-10.062 5.7162-2.7382 5.4836 3.8398 2.1242 6.0344-2.8829 1.4072-0.0941-2.5865-1.1216 5.883-8.677 4.4351-1.6712 1.4599 7.2639-7.5968 0.93423-9.4625 5.577-5.3791 2.6394-11.637 3.2224-17.527 2.2824zm11.529-2.117c4.3934 0.19788 9.0863-5.8118 2.802-2.8004-1.9594 4.0519-11.857-0.41792-6.0371-0.78947 5.0268 1.097 6.9034-3.5407 0.93228-3.7-2.0876 5.179-11.594 8.4006-12.683 3.1529 5.6504 2.6705 12.684-2.974 10.184-7.4492 3.3455 4.3255 12.188-4.947 3.7443-4.7368-1.1523 3.0894-11.645 10.55-6.3301 3.9214-1.6912-3.0713-8.2802-5.2839-6.3662-0.45997 3.5623 2.2121 10.653 9.9848 2.3997 5.9581-4.7031 2.0801-10.18 4.6064-2.3563 6.3812 4.378 1.5475 9.2083 1.4662 13.711 0.52244zm-23.706-3.6127c-2.6195-4.3049-3.4173 1.4278 0 0zm30.215-3.7352c3.0882-0.56673 10.693-9.61 4.8366-7.2548-3.967 3.7599-7.4374 0.16632-10.94 5.0926-0.27585 1.0056 4.3718 5.654 6.1034 2.1623zm-37.943-0.64718c4.8702-7.0407-4.1876-13.118-7.5829-18.785-3.9554 0.36255-13.046 1.0826-13.656-2.4606 4.3991 0.81652 18.987 0.83061 13.977-5.845-4.4675-2.5203-2.8803 7.2744-9.2424 4.8917-5.7646-5.0454 9.6589-7.6827 1.4081-8.2194-2.7355-1.8411-6.1365 9.5547-7.7896 2.0932 1.4338-3.55 3.7826-5.696-2.3858-5.0939-3.947 1.0355 5.093 8.5278 2.9339 12.987 0.95304 4.975-7.1839 4.3159-1.5212 8.3991-0.76705-2.282 7.6107-9.5223 6.8207-2.5622-3.3094 3.0414-5.3776 6.7579 0.90412 8.0734-2.4009-6.6402 13.687-13.37 9.5446-3.9039-1.3362 3.9541-11.363 5.7067-3.6135 9.0932 6.5574 4.259 3.0365-9.6832 9.5345-5.5565 2.763 3.6423-6.0131 8.0206 0.24309 8.2378l0.42596-1.3492zm16.946 0.85341c4.714-1.7909-2.3942-7.1615-5.288-4.9625-2.0458-3.4428-9.8766-3.8418-4.0803 0.35393 2.894 1.4036 5.8179 7.5576 9.3683 4.6086zm-19.671-3.9248c1.8654-5.4095-3.5012 1.5307-0.80258 1.2419zm30.028-4.3653c5.3836-1.5695-5.2236-6.5209 1.4241-4.7149 5.8295-1.8155 3.0317-14.342-1.8578-18.484-5.4929-2.0938-8.9103 9.9442-7.7182 14.864 1.2021 2.4967 4.7056 13.695 8.1518 8.3346zm-5.6341-3.3203c3.1176-3.4016 7.5544-7.9848 3.7861-12.628-3.061 2.0438 1.136 13.421-3.2325 6.2398-2.6065-4.4227 3.8197-14.855 6.2355-5.9998 2.149 4.655-1.7246 12.055-6.7891 12.388zm-8.1692 3.7589c-1.5189-2.9432-7.2605-3.8631-3.6713-0.55782 0.59496 0.78934 4.3793 2.1436 3.6713 0.55782zm-25.018-0.91988c6.3357-3.208 0.90952-8.1003-1.8246-1.7998-1.1043 2.4212-1.1299 4.6635 1.8246 1.7998zm52.431 0.16146c4.5471-5.9154-7.37 2.6594-1.3458 0.97565l1.3458-0.97547zm-36.707-0.0764c2.0398-3.587-8.1979-9.6152-3.2655-15.653 2.8454-7.124 14.046-5.6532 16.27-12.76-3.4976-0.74543-11.24 4.274-15.249 6.9324-6.9635 5.7112-4.6481 16.082 1.4156 21.528l0.58159 0.4735 0.24747-0.52091zm35.468-3.4315c-4.1897-3.7873 1.5577-16.93 4.739-7.7735 1.3761 2.2968-4.5634 10.214 0.13159 8.0076 6.2405-4.7388 2.047-15.484-5.656-14.203-0.36692 5.2729-5.3449 11.7-6.0415 15.426 3.0753 4.8656 3.7725 0.32099 6.8269-1.4574zm9.7011 0.92477c5.2865-5.8005 5.3659-15.48-1.7668-19.958-3.8967-2.6294-9.9368-6.2182-13.872-5.8419 2.3901 7.3056 14.624 5.6257 16.56 13.847 2.9729 5.17-3.9505 11.368-4.1346 13.881 2.3136 2.5415 1.4849-0.64958 3.2134-1.9287zm-32.945 1.6886c5.1909-2.1786-4.8678-9.3106-3.8119-14.41-2.632-7.2524-14.066 4.7822-7.8963 9.7078 3.2837 6.3191 4.2186-0.35957 1.7361-3.5594-1.0256-4.6987 4.9348-8.8058 5.6769-1.8221 0.14532 3.9512-2.0679 9.4861 3.103 10.844zm-37.15-4.1766c6.1589-5.2704-3.6688-1.2404 0 0zm30.803-3.3542c-2.6313-10.653-0.84471 9.1432 0 0zm32.149 0.47986c0.52196-11.568-4.4957 7.2431 0 0zm-67.172-2.4439c2.1128-4.58-4.9631 0.81999 0 0zm102.89 0.24136c-0.9526-6.3266-5.6208 1.2601 0 0zm-5.6086-3.6504c0.80447-3.5814 5.5181-9.9987 4.403-12.16-3.8058-0.47537-7.2838 1.1989-3.2634 4.0848 1.6042 6.549-5.9653 2.6209-6.1326-1.3966-3.5725 0.55696-6.2801 6.5174-1.1997 7.0336-2.6947-2.9385-1.4052-7.0047 1.5312-2.4179 3.175 8.8053-11.391 2.0595-6.1925-4.0436 0.25399-2.779-12.623-2.7672-6.0602 0.42435 4.6174-0.15581 6.8549 1.7294 1.5952 3.7787-1.688 7.0897 11.349 5.0617 15.32 4.6964zm6.2018-4.8914c0.59064-3.2334 10.212-6.1934 3.6419-6.5415-3.154 1.7698-10.139 10.428-4.7426 11.322 0.22549-1.619 0.36885-3.2816 1.1006-4.7804zm-103.05 4.3779c2.7132-5.9251-11.147-10.356-6.2433-14.051 7.534-0.82299 15.051-0.6546 22.498 0.65223 6.6408-0.84962 13.714-3.791 18.404-8.4418 3.8503-6.5793 9.4194-12.397 9.5189-20.45 1.7101-7.3801-3.5553-13.767-8.9442-18.266-2.5129-0.38691-11.881 7.4125-9.1237 0.45104 1.0202-4.1768 12.596-0.32452 5.6556-4.3845-4.8975-3.0992-9.7123 9.0068-12.406 4.4759-1.9911-7.1583 15.422-4.6256 6.4596-8.2322-5.5867-3.7752-11.403-0.40312-9.8627 6.0975-3.4192 7.1477-4.2497-4.7285-1.1456-6.0505-4.89 1.0279-3.0228 14.954-8.0898 11.346-3.1002-6.7205 7.1882-10.911 8.2938-14.113-8.4425-0.84986-11.287 5.6088-14.936 11.395-5.6755-0.82557 2.3229-9.7185 5.2266-11.102-7.172-0.23556-14.658 6.2506-10.897 13.456 0.15678 10.744-6.3826-4.0598-2.7355-6.5821-5.5472 2.3724-4.6089 8.3916-6.4389 12.691 3.8487 7.2731-2.1902 14.664 2.0324 21.224 1.4836 6.9042 6.1424 12.849 3.7279 20.258 6.1897 0.58946 4.8571 9.3483 9.007 9.6239zm-4.2305-1.3792c0.84453-4.3261-8.6681-9.2503-4.5731-2.2059 0.26429 0.87698 4.5925 5.2442 4.5731 2.2059zm15.312-1.5247c5.8052-3.8888-2.0523-2.8656-1.6255 1.0601l0.57923-0.31139zm-6.4255-3.6185c2.6998-5.8408-3.4953 1.7328 5e-6 0zm91.792 0.30069c-1.2077-5.5745-2.9504 0.10871-5e-5 0zm-75.948-1.8398c5.4322-5.7933-14.578 0.55827-4.1306 0.55255 1.3788-0.0875 2.8907 0.23729 4.1306-0.55255zm92.381-2.6096c4.6115-8.555-7.789 0.48295 0 0zm-128.18-2.0146c1.8409-3.3993-6.1845-6.397-2.8164-0.83686 0.67683 0.47484 2.9486 4.3198 2.8164 0.83686zm132.17 0.27208c5.8452-4.7054-4.1209-5.0129-1.348 0.26677l0.28548 0.29025zm-27.747-1.7184c6.0741-0.95075 12.28-0.11304 18.411-0.0365-0.41086-5.0042 3.9032-7.4739 3.9313-12.29 1.3288-2.8278 1.0516-7.5351 3.8599-9.5848-5.4886-5.3687 0.94688-13.34-2.0067-18.352-0.91458-1.9736-1.7326-10.997-2.5749-5.0658 3.069 3.9753-5.2605 13.109-3.2832 4.512 3.7499-5.3777 0.57447-11.627-5.7751-12.953 2.1722 1.6831 8.1308 11.109 3.0149 10.065-4.3581-4.8428-3.4966-14.266-13.141-13.308-8.6391-0.30807 6.7062 4.2035 5.8913 8.6274 2.1824 9.59-6.8767-0.70163-6.457-4.4258-2.4916-3.8976-4.6522-1.3949-1.1791 1.2686 3.4934 3.6235-3.2044 10.836-3.0726 3.1101 2.2425-10.589-11.336-7.2048-16.803-3.7547-3.2586 3.2324 9.297-4.3522 11.17 1.021 5.0104 8.088-9.4448-2.304-10.245 1.9035 5.7806-2.4704 10.593 11.292 3.8223 5.7777-4.0686-8.3495-16.262-3.9298-12.319 5.1496-0.03723 7.1571-4.9256 13.802-2.9399 21.289 1.69 7.1036 9.6589 10.615 14.908 15.163 4.4286 2.6299 9.8132 3.0274 14.787 1.8841zm-99.158-2.0367c0.34044-6.4269-6.7274 1.4372-0.27092 1.6772l0.19256-0.48517zm122.25 0.71494c1.9857-4.5708-4.6002-3.5704-2.6179 0.81353 0.86667-0.26719 1.6637-0.87561 2.6179-0.81353zm-126.4-1.7068c3.2014-6.1068-6.4099-3.5616-3.0957-0.42532 0.80217-0.73445 3.2983 2.0758 3.0957 0.42532zm130.87-0.64474c3.9403-3.6255-6.4137-4.6769-2.4212 0.21768l0.82189 0.46112zm-135.67-3.076c2.5941-3.4057-5.5654-3.9988-1.7432 0.39995l0.8073 0.98339zm139.47-0.0412c3.5976-6.02-5.8498-0.37519-0.65984 1.0046zm-132.88-2.2101c-2.2701-9.5511-4.7893 5.1514 0 0zm126.02 0.74321c4.219-3.8353-3.1586-4.3893-1.5304 0.52004zm-129.92-3.2242c0.60986-6.8089-8.3167 1.1159-1.041 1.1834l0.51376-0.40052zm135.26 0.54852c4.5551-5.3861-8.2351-3.8005-1.3803 0.82421zm-140.09-3.3115c2.7001-3.9964-4.9116-4.9344-1.8897 0.01809l0.81874 1.2193zm143.69 0.42661c3.7968-10.662-6.6531-0.10451 0 0zm-6.5828-1.5759c4.1607-2.5879-2.7475-6.3775-1.9272-0.26544-0.68863 2.344 1.4313 0.08776 1.9272 0.26544zm-130.3-0.3722c-1.7014-9.3852-5.9442 2.9632 0 0zm134.86-3.628c3.0101-4.8898-7.1137-1.9534-1.318 1.3804l0.48446-0.40548zm-139.02 0.07449c0.8514-8.2956-6.9712 3.0208 0 0zm143.25-6.0872c1.9172-2.5061 0.36301-15.464-3.6478-11.099 5.5512 4.5477-0.73456 10.749 1.4156 14.818 0.82365-1.1914 1.6968-2.3693 2.2321-3.719zm-146.61 2.6849c-1.6577-4.0841-2.5749-9.5747-0.229-14.336-4.631-2.0661-5.0381 16.206 0.229 14.336zm5.6687-1.1799c2.2247-2.8404 1.6457-15.325-2.3608-11.748 4.2403 2.6631-2.2814 15.742 2.3608 11.748zm133.73 0.94755c-0.85641-3.619-0.84176-9.9201 0.81488-13.258-4.8223-3.3412-4.6802 13.619-0.81488 13.258zm3.4855-3.5555c3.3911-4.6494-3.0927-11.649-2.6504-3.0977-0.0253 1.1075 1.8701 7.8076 2.6504 3.0977zm-140.89 0.78886c3.0498-3.2532-1.0297-12.978-2.4751-4.5547 0.15792 1.0314 1.0865 5.4755 2.4751 4.5547zm1.2771-12.346c2.5504-6.1724-6.741-1.4305-0.90285 1.0724zm139.27-0.55218c2.2498-5.2388-7.1649-0.99549-0.7758 1.3516zm-3.7478-2.8519c2.446-3.7572-6.2334-4.3943-1.7915 0.75341l0.73862 0.56412 1.053-1.3176zm-132.15 0.12848c3.4891-8.4176-6.5775 1.4551 0 0zm138.45-1.3585c0.80128-5.2412-2.6148-4.6819-3.2772-0.78509 1.0706 1.4246 2.5242 4.7684 3.2772 0.78509zm-144.77 0.65671c3.2983-6.0844-4.9911-4.085-1.1832 0.84271zm3.9228-3.3851c6.1557-2.3704-4.6501-6.6654-1.9166-0.69841l1.0422 1.2373zm136.9-0.5204c2.309-6.0335-7.7417-1.4383-1.667 0.35208l1.0574 0.69486zm-132.69-2.3877c6.2477-4.7762-5.264-4.1995-1.0203 0.5486zm129.3-1.901c-4.2702-5.3168-4.8598 2.299-1.3887 1.5754 0.48746-0.50403 1-0.98646 1.3887-1.5754zm-135.15-0.335c2.5326-1.6202-1.816-6.7866-2.1989-1.2657-0.83338 1.9718 0.46808 2.7865 2.1989 1.2657zm140.45-0.5171c-2.1207-10.121-4.4458 4.7712 0 0zm-135.24-3.7929c-3.0384-6.441-5.4506 5.4076-0.37159 1.8105 1.3431-0.49607 1.084-0.74915 0.37159-1.8105zm5.1494 1.9216c3.9811-2.508 9.1334-6.1149 1.6912-8.34-3.466-6.0492-16.314 2.0781-9.4012 3.5907 0.73748-1.5518 0.27511-8.0789 2.7933-1.9957 1.8438-0.63646 8.129-1.5439 5.5177 4.1212-0.39215 1.0646-4.1187 4.1127-0.60099 2.6237zm125.88-0.68951c3.2478-4.0794-12.194-7.1845-5.7261-0.63845 2.0749-3.7601 3.3392-1.5009 2.8433 1.4865 0.85804 0.26589 2.7857 0.66753 2.8829-0.84798zm-74.088 0.1792c3.3076-3.1357-10.933-10.03-2.4145-8.7854 4.3989 3.0868-1.8559-6.0955-5.0445-2.7347-4.9754 1.3202-8.1616-1.8367-1.986-3.7171 3.9678-0.60138 9.1978 5.0256 4.1504-1.0546-1.8755-7.1095-8.5407 0.51482-11.024-4.0109 3.1931-1.7171 9.9329-1.6309 2.689-2.0018-5.4595 2.4011-10.806-8.9439-2.7697-3.8863 2.9632 2.0207 7.6288 2.8052 2.9698-0.75602-3.2361 0.07673-11.293-5.5802-3.8155-3.1717 3.4396 1.7611-8.255-7.2173-12.517-5.3029-5.5709-2.3558-5.2178 8.6376-4.0279 11.738 6.6283 2.1808 4.232-4.5485 2.1021-7.4988 1.2804-7.8667 3.7914 4.3176 4.3314 3.4716 0.35046-3.938 8.1959-9.0498 5.1148-1.996-1.175 3.0252-3.4607 7.6779-0.14752 2.5935 1.6488 3.6519-6.3966 12.265 1.141 15.048-4.1307-2.124 0.12588-12.303 1.0148-4.3548-2.3183 3.6002 5.5929 10.986 2.0616 4.45-0.4997-6.8252 5.0106-6.0465 3.4644 0.33081-2.472 4.9089 6.485 8.2758 7.9985 8.7802-3.7798-2.4893-4.9904-9.8756 0.75626-4.2515 1.8502 2.56 0.71898 8.7795 5.9522 7.1114zm66.667-0.11332c-5.3752-4.7499 1.7021-8.5857 4.5971-6.6221 0.80677-5.6132-3.9752-1.5229-6.8235-0.8461-8.9316 1.5144-3.0259 6.663 2.2263 7.4682zm-120.33-1.3366c4.0011-8.0452-6.9705-0.73596 0 0zm70.795-0.31025c2.292-2.9147 1.2024-12.847 6.4152-10.754 1.7368 3.5567-7.4577 13.127-0.1716 7.8103 1.9055-2.337 4.4587-15.629 6.3791-7.5098 0.58944 2.8035-6.9716 9.2396-0.97376 5.0784 1.1765-2.4511 7.2362-10.298 8.331-6.0689-0.27658 2.7953-10.26 7.2602-2.835 4.3854 4.029-3.9989 10.881-8.5066 11.462-13.798-3.1025-0.12891-14.642 1.0092-12.391 2.3933 3.9064-1.4266 11.388-0.06958 4.1372 2.8305-6.2962-2.8705-13.603-1.2171-17.911 4.5047-1.8924 1.4462-9.1379 12.965-2.4417 11.128zm-54.595-5.49c-0.8173-1.9008-8.5691-4.639-5.5412-8.52 4.4561 0.37262 5.0744 9.4898 8.9052 7.1841-4.1973-1.6613-3.6668-12.763 0.08832-5.1475-2.9172 6.9878 12.293 7.6848 5.1453 1.249-4.3908-0.2821-7.8413-7.4988-1.482-3.6406 3.5703 3.5047-2.0022-5.8401-5.3226-2.935-6.1648-1.6423-9.1656 3.3467-13.142 6.1957-0.99322-4.3932 7.5644-6.4888-0.26254-4.6625-5.6373 3.5873 4.8614 9.7009 9.1289 9.9228 0.81027-0.17796 1.6926 1.1799 2.4817 0.3541zm85.844-2.6783c1.8432-1.7541 5.7367-11.138 7.5008-5.9458-0.19271 3.2797-9.1515 8.0744-1.3163 5.8659 1.4364-1.5652 6.6738-11.06 5.9641-3.9101-1.8036 3.0697-6.3291 5.39 0.18713 3.6919 6.8475-1.1624 4.7676-11.955 0.65254-13.958 7.6644 0.55616-7.3184-9.0376-3.2457-1.1662-2.5398 0.91654-3.255-9.7446-8.392-8.7538 3.6224 3.1735 6.7455 4.9931 1.326 7.8723 1.4243 2.9305 9.4089 4.7048 8.2405-1.4455 2.1728 2.4497 1.1046 7.0514 4.922 8.8223-0.39235 4.1931-11.37-4.8907-8.8521 0.25117-4.3304 0.51924-12.308 3.8996-10.291 8.8645 1.0562 0.77514 2.2966 0.26267 3.3043-0.18813zm21.157-3.5828c-2.7342-4.3083-2.3105 0.11074 0.46591 1.0146zm-51.911-5.517c5.0656-2.2775 9.1972-6.2563 5.5927-11.503 1.1346-7.3558 5.4863 3.5791 2.1777 6.3142 9.1118-0.82628-5.1298-17.242 3.7997-12.42 3.2156 1.9769-2.2375 13.812 2.928 6.8694 2.2473-4.0734-5.1953-14.829-7.8296-11.226 7.1677 0.83826-1.0984 2.2841-3.8873 2.4637-3.4663 3.3081-3.1523 3.2827 0.83124 1.6085 6.2743 0.23781-2.8731 5.2174-5.5221 3.4587-3.1056 2.5556-6.7512 11.225-1.491 3.8958 4.671-4.8989 7.4698 0.47831 2.1305 3.128-4.8526-1.0867-8.7193 8.6816-2.418 2.4425 5.995-3.2991 5.9045 3.6276-0.26546 2.3876-5.1989 1.3661-3.1092 10.18 1.6135 4.0854l1.1361-0.72716 1.204-0.77906zm51.069 1.7577c4.042 1.2587-4.2772-7.733-1.8769-1.0272 0.89785 5.5594-0.50438-1.7402 1.8769 1.0272zm-18.917-1.6344c3.8251-2.0204 5.5907-1.3896 0.51246-3.1349-0.33572-0.05564-2.4767 4.6614-0.51246 3.1349zm-99.005-1.1066c8.8201-5.8669-6.7593-0.74706 0 0zm8.765-2.1444c6.5281-3.8947-2.163-9.1914-3.5851-5.1963 5.1334-1.7129-4.4654 5.5969 2.2669 5.6307zm15.855-0.47079c0.54906-1.9973-0.90061-0.33056-0.41521 0.37985zm-22.02-4.0581c-0.31547-3.9665-4.866 5.2251 0.04397 1.4906-0.01466-0.49689-0.02931-0.99377-0.04397-1.4906zm94.152 0.28794c-0.46624-3.472 2.729-9.9848-3.3829-8.9326-6.7378-3.3505-10.366 11.961-3.2551 6.4114 0.21634-4.6511 7.091-7.4019 3.7005-0.71169-5.1617 3.1616 0.4313 1.9458 2.732 3.9477zm10.781-3.4913c0.26956-1.7372-6.7254-10.35-10.268-7.0985 5.4387-0.08138 7.2587 5.8499 10.268 7.0985zm-100.84-0.80851c0.0249-4.0493 13.338-7.7955 4.1615-6.1498-1.724-0.74209-7.8237 8.9347-4.1615 6.1498zm4.8622-1.1306c6.1095-6.4572-7.7547 2.7453-0.99585 0.57629zm45.797-4.1799c-1.3833-2.1323-0.43939-10.548 1.6873-3.7758-0.72528 6.5616 3.9048-3.6102-0.64101-5.0585-3.3881-7.7399-9.1899 8.7888-5.2866 4.0175-0.26932-4.8759 5.7444-5.6957 2.2262-0.52924-2.4958 1.4331-0.92191 7.571 2.0141 5.346zm-37.607-1.4945c5.2726 1.5501 4.4038-7.1645 1.871-1.5487-2.155 1.3594-8.4198 2.6423-1.871 1.5487zm75.959-0.0278c-2.3944-1.0058-2.0971 0.7906 0 0zm-4.1074-0.86747c-2.7969-5.1699-5.3237 0.53369-0.11323 0.72481 1.1598 0.65898 1.185-0.46095 0.11323-0.72481zm-6.6089-0.977c1.4184-4.7032-7.1507-8.0266-5.5028-3.0356 1.2229 0.5695 5.0916 6.6439 5.5028 3.0356zm-64.507-1.0159c4.3374-3.8274-7.9752 2.2313-1.2383 0.69811zm74.211 0.85791c-1.6371-4.0928-6.4704-1.9465-0.59146 0.15705zm-44.682-5.7713c4.1222-2.6452 3.6212-5.0924-0.48108-2.1332-2.3735-1.7428-11.329 1.0381-8.3867 3.0288 3.4718 1.2062 6.2743 3.111 8.8678-0.89566zm38.232 1.9561c-5.2536-5.6864-3.8485 2.1307 0 0zm-61.083-0.50629c5.8573-3.5946-8.0434 1.2166-1.3148 0.79897zm44.42-0.41468c2.1857-1.4722 11.728-1.2736 6.6265-4.2618 3.0394 4.6221-6.8768-2.1446-3.792 2.6721-4.035-1.2984-6.868-3.1716-11.465-1.6255-9.2195-4.691 3.1067 9.1554 7.6002 3.5102zm-6.2784-5.0048c3.3112-1.9363-8.1323-1.4232-1.0837 0.39697zm-15.587-0.27959c2.9347-2.1696-7.1018-0.38502-1.341 0.40784zm25.11 0.18259c-1.5949-1.7168-4.4382 0.76387 0 0zm-17.285-0.58554c3.5173-1.4496-5.778-1.735-1.3546 0.3052zm37.681 134.52c-6.9377 0.54341-11.761-15.152-1.8134-9.1464 5.1444 1.9709 2.282 11.917 8.524 5.1792 7.0407-3.6442-3.2952 7.3928-6.7107 3.9672zm0.10636-3.8467c-1.7767-6.6992-9.1373-2.8577-2.2178 1.044 0.53923 0.52294 4.3243 1.4896 2.2178-1.044zm6.6624-2.047c-6.1445-1.8479-2.7716-10.492 2.0349-4.6271 0.15815 5.6684 3.1291 0.49206 5.7612 0.57943-0.43721 3.7866-4.5045 4.9532-7.796 4.0477zm1.0289-2.0193c-1.8587-5.4485-4.1874-0.2811 0 0z" fill="#d5b85a" stroke="#0f4c23" stroke-width="5.3168" style="paint-order:stroke fill markers"/></svg>
