<?xml version="1.0" encoding="UTF-8"?>
<!-- Created with Inkscape (http://www.inkscape.org/) -->
<svg width="423.64mm" height="90.08mm" version="1.1" viewBox="0 0 423.64 90.08" xml:space="preserve" xmlns="http://www.w3.org/2000/svg"><g transform="translate(62.141 -129.03)"><path d="m-25.95 212.16-0.07326-2.6992-1.1665-0.076c-0.6416-0.0423-1.368-0.24535-1.6142-0.45155-0.28311-0.23699-1.1411-0.4181-2.3345-0.49275-1.1405-0.0713-2.0622-0.25987-2.3302-0.47663-0.24382-0.19731-0.97133-0.4137-1.6167-0.481-0.64536-0.0672-1.3071-0.27148-1.4706-0.45365-0.16344-0.18225-0.75882-0.39959-1.3231-0.4831-0.56424-0.0834-1.0855-0.29546-1.1584-0.47117-0.0728-0.17565-0.52967-0.38836-1.0151-0.47262-0.48545-0.0842-0.88263-0.24775-0.88263-0.36322 0-0.11554-0.39421-0.36234-0.87602-0.54866-0.4818-0.18616-0.95549-0.45755-1.0526-0.60307-0.09709-0.14541-0.37507-0.26434-0.61761-0.26434-0.24254 0-0.58674-0.21599-0.7649-0.47991-0.17816-0.26389-0.43963-0.4798-0.58106-0.4798-0.14142 0-0.49053-0.216-0.77581-0.47991-0.28527-0.26391-0.69373-0.47989-0.90768-0.47989-0.21394 0-0.389-0.17199-0.389-0.38233 0-0.21033-0.23341-0.43886-0.51867-0.50787-0.28527-0.069-0.51867-0.28495-0.51867-0.47988 0-0.19485-0.22262-0.40819-0.49469-0.47398-0.27209-0.0658-0.5529-0.32573-0.62406-0.57748-0.07113-0.2517-0.31535-0.4576-0.54265-0.4576-0.22731 0-0.41328-0.14532-0.41328-0.32272 0-0.17755-0.2334-0.51822-0.51867-0.757-0.28527-0.23884-0.51867-0.57864-0.51867-0.75502s-0.2334-0.45552-0.51868-0.6203c-0.28527-0.16483-0.51867-0.43909-0.51867-0.60938 0-0.17041-0.16792-0.36936-0.37315-0.44224-0.20523-0.0726-0.44964-0.45464-0.54312-0.84846-0.09341-0.3938-0.33084-0.77308-0.52746-0.84284-0.19662-0.0696-0.43375-0.50302-0.52697-0.96273-0.09314-0.45961-0.31601-0.88777-0.49514-0.9513-0.17912-0.0633-0.39712-0.52907-0.48446-1.0344-0.08736-0.50529-0.31871-0.97556-0.51418-1.045-0.21028-0.0742-0.40723-0.62513-0.48232-1.3482-0.06976-0.67212-0.319-1.4185-0.55374-1.6584-0.30252-0.30926-0.42724-0.88508-0.42827-1.9771-0.0016-1.6743-0.39494-3.3402-0.78875-3.3402-0.48332 0-0.30697-7.2189 0.18874-7.7257 0.31491-0.32206 0.4671-1.0264 0.54839-2.5383 0.07599-1.4142 0.24124-2.228 0.50961-2.51 0.2184-0.22968 0.45421-0.96745 0.52402-1.6396 0.07505-0.72306 0.27205-1.2735 0.48232-1.3483 0.19547-0.0695 0.4296-0.5555 0.52029-1.0803 0.09066-0.52465 0.32026-1.0093 0.51016-1.0767 0.18988-0.0673 0.41976-0.48996 0.51084-0.93911 0.09101-0.44915 0.26772-0.81665 0.39257-0.81665 0.12485 0 0.40673-0.35086 0.62642-0.77981 0.68294-1.3333 1.1101-1.9327 1.5335-2.1519 0.22444-0.1162 0.40806-0.30503 0.40806-0.41973 0-0.55566 4.8177-5.0462 5.4138-5.0462 0.15031 0 0.3982-0.21597 0.55087-0.47991 0.15268-0.2639 0.43605-0.4799 0.62972-0.4799 0.19368 0 0.41509-0.15175 0.49202-0.33722 0.07691-0.18548 0.48813-0.40805 0.91376-0.49454 0.42563-0.0867 0.83408-0.30243 0.90767-0.47991 0.07355-0.17739 0.49969-0.39688 0.94686-0.48778 0.44718-0.0914 0.876-0.31698 0.95294-0.50251 0.07691-0.1855 0.41916-0.33732 0.76048-0.33732 0.34134 0 0.854-0.21589 1.1393-0.47975 0.28526-0.26398 0.85069-0.4799 1.2565-0.4799 0.40846 0 0.94735-0.21428 1.2072-0.47992 0.34284-0.35042 0.79875-0.47983 1.6909-0.47983 0.82883 0 1.4335-0.15429 1.8809-0.47983 0.53012-0.38589 1.0521-0.47995 2.6626-0.47995 3.1352 0 3.7501-0.45554 3.7501-2.7788v-1.7799h0.778c0.43223 0 1.0085-0.21334 1.2967-0.4799 0.3206-0.29667 0.86445-0.47988 1.4242-0.47988 0.62462 0 1.0059-0.14888 1.2294-0.47982 0.2316-0.34312 0.60478-0.47995 1.3094-0.47995 0.59945 0 1.2788-0.20057 1.7343-0.51217 1.3676-0.93545 1.5642-0.58845 1.5642 2.7603v2.983l0.97251 0.55323c0.75555 0.42981 1.4989 0.58371 3.3321 0.69001 1.742 0.10097 2.4765 0.24502 2.8064 0.55018 0.28831 0.26676 0.85416 0.41339 1.5953 0.41339 0.80271 0 1.3046 0.14449 1.6672 0.47983 0.34578 0.31991 0.86445 0.47992 1.556 0.47992 0.71378 0 1.0373 0.1042 1.0373 0.33423 0 0.36815 0.54543 0.62542 1.326 0.62542 0.27808 0 0.57155 0.15908 0.65217 0.35346 0.080615 0.1943 0.54375 0.4223 1.0292 0.50654 0.48545 0.0842 0.88264 0.22996 0.88264 0.32382 0 0.21773 1.8947 1.3703 2.5867 1.5734 0.28892 0.0849 0.52531 0.30901 0.52531 0.49808 0 0.18902 0.17095 0.34374 0.37988 0.34374 0.20893 0 0.50479 0.21588 0.65746 0.47982 0.15267 0.26393 0.44853 0.4799 0.65746 0.4799 0.20893 0 0.37988 0.16197 0.37988 0.35988 0 0.19795 0.10772 0.35988 0.23939 0.35988 0.31145 0 1.8353 1.4098 1.8353 1.698 0 0.12179 0.17505 0.22147 0.389 0.22147 0.21395 0 0.389 0.15816 0.389 0.35148 0 0.19335 0.2334 0.46704 0.51867 0.60819 0.28527 0.14132 0.51868 0.40969 0.51868 0.59639 0 0.18676 0.15743 0.42597 0.34985 0.53145 0.34314 0.1882 0.79599 0.87377 1.5819 2.3949 0.21693 0.41985 0.49996 0.8237 0.62895 0.89744 0.12898 0.0735 0.31491 0.43208 0.41313 0.79619 0.09818 0.36417 0.32978 0.82403 0.51455 1.022 0.18477 0.19794 0.41226 0.75432 0.50552 1.2365 0.09321 0.48212 0.32674 0.93239 0.51885 1.0006 0.2217 0.0781 0.39187 0.66868 0.46585 1.615 0.08437 1.0796 0.2473 1.5794 0.59038 1.8115 0.72356 0.48943 0.72548 15.295 0.0021 15.784-0.32472 0.21974-0.50203 0.74138-0.58808 1.7301-0.07286 0.838-0.26769 1.4937-0.4773 1.6069-0.19475 0.10523-0.42751 0.61603-0.51724 1.1351-0.08968 0.51918-0.32053 1.0647-0.51291 1.2125-0.19238 0.14763-0.42596 0.64419-0.51906 1.1033-0.09304 0.4592-0.32959 0.89173-0.52553 0.96137-0.19594 0.0694-0.35626 0.28682-0.35626 0.48275 0 0.19608-0.2334 0.63094-0.51867 0.96649-0.28527 0.33547-0.51868 0.75364-0.51868 0.92913 0 0.17555-0.2334 0.4347-0.51867 0.57593-0.28527 0.14123-0.51867 0.36092-0.51867 0.48832 0 0.21781-0.3788 0.65246-1.5683 1.7995-0.27852 0.26856-0.50639 0.61944-0.50639 0.77972 0 0.16033-0.087523 0.29338-0.1945 0.29571-0.10698 3e-3 -0.83636 0.53663-1.6208 1.1873-0.78449 0.6508-1.6306 1.3508-1.8802 1.5554-0.24963 0.20464-0.56645 0.37221-0.70407 0.37221-0.13762 0-0.37512 0.21591-0.52779 0.4798-0.15267 0.26392-0.48879 0.47991-0.74694 0.47991-0.25814 0-0.68058 0.21591-0.93874 0.47991-0.25817 0.26389-0.67222 0.47977-0.92012 0.47977-0.2479 0-0.51214 0.14812-0.5872 0.32899-0.075057 0.18106-0.46682 0.40534-0.87059 0.49866-0.40376 0.0931-0.90917 0.30824-1.1231 0.47776-0.21395 0.16957-0.7898 0.37835-1.2797 0.46403-0.48986 0.0858-1.0734 0.30222-1.2967 0.48128-0.22331 0.17897-0.92708 0.38648-1.5639 0.46112-0.63685 0.0741-1.279 0.28874-1.427 0.47603-0.17558 0.22212-0.96771 0.38193-2.2798 0.45981-1.3586 0.0803-2.164 0.2478-2.4835 0.51525-0.26179 0.21918-0.90528 0.39589-1.4419 0.39589-1.5516 0-1.9724 0.3321-1.9724 1.5571 0 1.0374-0.02113 1.0638-0.97251 1.218-0.53488 0.0869-1.0892 0.29006-1.2318 0.45204-0.14263 0.16191-0.7804 0.35873-1.4172 0.43722-0.63685 0.0779-1.2787 0.29499-1.4263 0.48109-0.14764 0.18605-0.84484 0.39825-1.5493 0.47142-0.73562 0.0759-1.4102 0.29673-1.5846 0.51738-0.83419 1.0555-1.1346 0.48099-1.2105-2.315zm-0.10108-10.877c0.08659-0.20872 0.15742-2.4761 0.15742-5.0386v-4.6592h0.61336c0.33735 0 0.91009-0.21586 1.2728-0.47981 0.3822-0.27811 1.0521-0.47984 1.5935-0.47984 0.61321 0 1.0867-0.1649 1.3782-0.47996 0.31079-0.33578 0.76502-0.47979 1.5133-0.47979 0.73983 0 1.2138-0.14783 1.5386-0.47986 1.3359-1.3657 1.4263-1.0011 1.4263 5.75 0 5.9136 0.02543 6.2423 0.50162 6.4782 0.73934 0.36613 2.5155 0.3019 2.9573-0.10689 0.21119-0.19539 1.041-0.42666 1.8441-0.51403 2.7128-0.29494 2.477 1.8843 2.477-22.897 0-22.075-0.00753-22.301-0.74812-22.301-0.23831 0-0.63314-0.21589-0.87739-0.47981-0.35827-0.38712-0.76503-0.47988-2.1046-0.47988-1.2367 0-1.6986-0.0923-1.8098-0.35993-0.19302-0.46534-0.93404-0.45928-1.6639 0.0134-0.55979 0.36276-0.57638 0.49946-0.57638 4.7507 0 4.7748-0.052 4.9529-1.4465 4.9529-0.45323 0-0.9588 0.15028-1.1235 0.33391-0.1647 0.18362-0.8113 0.40479-1.4369 0.4916-0.6256 0.087-1.278 0.3145-1.4497 0.50593-0.17176 0.19154-0.69072 0.34811-1.1532 0.34811-0.46252 0-1.1377 0.21606-1.5003 0.47991-1.2162 0.88507-1.2259 0.84208-1.2259-5.4143 0-3.6041-0.1043-6.0745-0.26846-6.3582-0.31812-0.55002-1.2408-0.61619-1.4531-0.10429-0.11119 0.26812-0.57301 0.35994-1.8098 0.35994-1.3395 0-1.7463 0.0931-2.1046 0.47988-0.24426 0.26393-0.64495 0.47982-0.89044 0.47982-1.281 0-1.2537-0.48511-1.2537 22.32v21.254l0.84284 0.73624c0.60682 0.53018 1.1926 0.77779 2.092 0.88448 0.68703 0.0812 1.5007 0.31116 1.8082 0.5104 0.76141 0.49345 2.6726 0.48205 2.8796-0.0173zm29.088-10.719c0.092362-0.38907 0.38944-0.91226 0.66019-1.1628 0.27075-0.25048 0.49227-0.74044 0.49227-1.0888 0-0.34833 0.17712-0.75317 0.3936-0.89977 0.22539-0.15254 0.4619-0.83028 0.55341-1.586 0.087899-0.72585 0.3484-1.52 0.57891-1.7647 0.62928-0.66819 0.62928-11.878 0-12.546-0.2305-0.24478-0.48948-1.0267-0.5755-1.7377-0.086018-0.71093-0.32027-1.4667-0.52056-1.6796-0.20029-0.21279-0.44258-0.79181-0.53843-1.2867-0.1072-0.55352-0.31946-0.89974-0.55152-0.89974-0.22118 0-0.37725-0.22922-0.37725-0.55403 0-1.2516-1.7543-1.9897-2.4729-1.0405-0.57497 0.75945-0.56803 26.192 0.007344 26.952 0.57727 0.76253 2.1112 0.30189 2.3505-0.70576zm-46.176-12.775v-13.676h-0.778c-0.63312 0-0.79467 0.11171-0.8675 0.59985-0.0492 0.3298-0.3118 0.79294-0.58351 1.029-0.2717 0.23616-0.49401 0.65102-0.49401 0.92189 0 0.27103-0.2334 0.76726-0.51867 1.1027-0.28526 0.33553-0.51866 0.93795-0.51866 1.3386 0 0.4007-0.18082 0.91342-0.40182 1.1393-1.0976 1.1221-1.1006 13.964-0.0036 15.086 0.22292 0.22785 0.40531 0.74219 0.40531 1.1428 0 0.4007 0.2334 1.0031 0.51867 1.3386 0.28527 0.33555 0.51867 0.82137 0.51867 1.0797 0 0.25831 0.2334 0.74419 0.51867 1.0798 0.28527 0.33553 0.51867 0.76399 0.51867 0.95206 0 0.51408 0.29778 0.69175 1.0276 0.61294l0.65804-0.071zm73.262 3.7446c0-25.332-0.02558-26.858-0.45384-27.046-0.24961-0.10972-2.0199-0.25632-3.934-0.32554-2.453-0.0893-3.5118-0.21468-3.5875-0.42603-0.05901-0.16492 0.08102-0.29988 0.31143-0.29988 0.23032 0 0.4852-0.16026 0.56642-0.35602 0.08112-0.19588 0.60271-0.81661 1.1589-1.3795 0.55616-0.56295 1.0112-1.1547 1.0112-1.3151 0-0.16035 0.23341-0.40711 0.51867-0.54844 0.28527-0.14121 0.51867-0.41487 0.51867-0.60818 0-0.1933 0.17505-0.35148 0.389-0.35148 0.21395 0 0.389-0.0889 0.389-0.19676 0-0.10817 0.33134-0.54006 0.73631-0.95969l0.73631-0.76307h32.026c17.615 0 32.091 0.0598 32.171 0.13339 0.23335 0.21594-0.39072 1.8274-0.75821 1.9578-0.18527 0.0657-0.33686 0.30946-0.33686 0.5414 0 0.23196-0.2334 0.69638-0.51867 1.0319-0.28527 0.33551-0.51867 0.76522-0.51867 0.9549s-0.2334 0.54028-0.51868 0.77912c-0.28526 0.23878-0.51867 0.6335-0.51867 0.87695 0 0.24352-0.2334 0.6586-0.51867 0.92248-0.28527 0.26398-0.51867 0.69931-0.51867 0.96731 0 0.26807-0.17188 0.54844-0.38194 0.62305-0.21007 0.0741-0.45494 0.49558-0.54416 0.93554-0.0892 0.44004-0.31479 0.85419-0.50127 0.92043-0.18648 0.066-0.41942 0.4588-0.51764 0.87251-0.09815 0.41377-0.33115 0.80639-0.51763 0.87258-0.18648 0.0661-0.41205 0.48036-0.50127 0.92044-0.08916 0.4399-0.33409 0.86095-0.54417 0.9355-0.21007 0.0742-0.38194 0.32221-0.38194 0.55019s-0.30763 0.82518-0.68361 1.3272l-0.6836 0.91254h-3.9844c-4.3099 0-4.9911-0.29556-3.4658-1.5038 0.28527-0.22602 0.51867-0.65588 0.51867-0.95532 0-0.29947 0.2334-0.67933 0.51868-0.84418 0.28527-0.16479 0.51867-0.5447 0.51867-0.84416 0-0.29942 0.2334-0.72933 0.51866-0.9553 0.28528-0.22595 0.51868-0.68188 0.51868-1.0131 0-0.3311 0.11959-0.60213 0.26575-0.60213 0.77298 0 1.0601-2.2658 0.35017-2.7632-0.76552-0.53635-23.529-0.51648-24.694 0.022l-0.81785 0.37748v7.4119c0 9.0049-1.3698 7.9087 9.8821 7.9087 7.792 0 8.9353 0.0469 9.3395 0.38568 0.31921 0.26724 1.1614 0.4238 2.7434 0.51017 1.3412 0.0731 2.4461 0.25571 2.6786 0.44266 0.21768 0.17491 0.91788 0.39165 1.556 0.48146 0.63813 0.0903 1.3353 0.29726 1.5492 0.46086 0.21395 0.16382 0.81491 0.36813 1.3355 0.45437 0.52054 0.0864 1.0892 0.31574 1.2636 0.51021 0.17443 0.19442 0.59051 0.35359 0.9246 0.35359 0.34204 0 0.72875 0.20964 0.88504 0.47987 0.16066 0.2777 0.543 0.47986 0.90768 0.47986 0.36468 0 0.74702 0.20216 0.90768 0.47993 0.15267 0.26386 0.38096 0.47979 0.50731 0.47979 0.30831 0 2.5 2.0407 2.694 2.5084 0.08456 0.20399 0.33252 0.37079 0.55095 0.37079 0.21935 0 0.39714 0.20713 0.39714 0.46274 0 0.25448 0.15194 0.60544 0.33762 0.77981 0.51784 0.48627 1.424 2.3725 1.6178 3.3676 0.09544 0.49025 0.33641 1.0163 0.53545 1.1691 0.53632 0.41184 0.53028 8.9855-0.0066 9.1761-0.22189 0.0782-0.43914 0.655-0.54642 1.4495-0.09799 0.72586-0.32948 1.3724-0.51488 1.4382-0.18524 0.0657-0.41717 0.45805-0.51538 0.87178-0.09816 0.41375-0.34263 0.81041-0.54313 0.88162-0.2005 0.071-0.36455 0.24379-0.36455 0.38357 0 0.1398-0.1736 0.42517-0.38577 0.63416-0.21218 0.209-0.86921 0.89005-1.4601 1.5134-0.59085 0.62336-1.2925 1.1975-1.5592 1.2759-0.26672 0.0777-0.48495 0.29696-0.48495 0.48606 0 0.189-0.22554 0.3438-0.5012 0.3438s-0.57528 0.21591-0.66581 0.4798c-0.10115 0.29483-0.39238 0.47991-0.7553 0.47991-0.32486 0-0.80189 0.21591-1.0601 0.47989-0.26215 0.26799-0.79875 0.47979-1.2153 0.47979-0.41027 0-0.80771 0.14897-0.8832 0.3309-0.07619 0.18386-0.6946 0.39934-1.3909 0.48481-0.68948 0.0846-1.3969 0.31364-1.572 0.50888-0.17514 0.19519-0.68343 0.35754-1.1295 0.36068-1.0882 8e-3 -2.7946 0.38612-2.9885 0.6628-0.08611 0.12289-2.1369 0.30107-4.5574 0.39609-2.8204 0.11066-4.7177 0.29516-5.2832 0.51381-0.73286 0.28333-3.8211 0.34108-18.226 0.34108h-17.344zm13.941-3.876 0.06607-22.925-0.86254-0.28859c-1.1347-0.37963-1.7342-0.36408-2.8687 0.0741l-0.93934 0.36315v22.622c0 25.709-0.2753 23.249 2.5902 23.147l1.9482-0.069zm25.369 21.965c1.0432-2.7741 0.39125-21.523-0.75829-21.809-0.95738-0.23759-13.842-0.15893-14.546 0.0892l-0.66522 0.23394v10.995c0 13.247-1.1662 11.593 8.1193 11.514l7.4892-0.063zm11.704-1.0797c0.07455-0.26389 0.308-0.47988 0.51867-0.47988 0.21067 0 0.44407-0.2159 0.51867-0.47983 0.07456-0.26389 0.28922-0.47987 0.47692-0.47987 0.18771 0 0.42355-0.24294 0.5241-0.53981 0.10056-0.29692 0.40017-0.79738 0.66581-1.1121 0.26566-0.31469 0.48301-0.95397 0.48301-1.4207 0-0.47136 0.20169-1.0547 0.45383-1.3124 0.38041-0.38887 0.45383-0.9411 0.45383-3.4127 0-2.4717-0.07338-3.0239-0.45383-3.4128-0.27954-0.28579-0.45383-0.84833-0.45383-1.4648 0-0.68089-0.1658-1.1542-0.51868-1.4807-0.28527-0.26393-0.51867-0.638-0.51867-0.8313 0-0.19331-0.2334-0.4671-0.51867-0.60835-0.28527-0.14123-0.51868-0.38277-0.51868-0.53682 0-1.1056-2.0685-2.1082-2.8527-1.3825-0.73408 0.67907-0.81685 18.252-0.08943 18.996 0.5856 0.59872 1.6556 0.57472 1.8297-0.0414zm26.268-16.888v-26.725l-0.63922-0.3875c-0.50576-0.30669-1.3445-0.38758-4.0197-0.38758-2.832 0-3.3804-0.0583-3.3804-0.35985 0-0.19788 0.175-0.35986 0.38898-0.35986 0.21392 0 0.38896-0.0927 0.38896-0.20493 0-0.11268 0.26259-0.4877 0.5835-0.83339 1.1067-1.1921 1.7506-2.0376 1.7506-2.2988 0-0.14404 0.17505-0.26199 0.38894-0.26199 0.2162 0 0.389-0.21319 0.389-0.47972 0-0.27102 0.17291-0.47994 0.39711-0.47994 0.21853 0 0.46886-0.17278 0.55645-0.38386 0.0876-0.21112 0.43928-0.64299 0.78161-0.95969l0.62245-0.57597h30.547c16.801 0 30.611 0.0598 30.691 0.13339 0.22322 0.20652-0.38419 1.8825-0.76027 2.098-0.18405 0.10547-0.33478 0.43963-0.33478 0.74252 0 0.30292-0.23351 0.74614-0.51868 0.98499-0.2853 0.23886-0.51875 0.71554-0.51875 1.0592 0 0.365-0.21563 0.74951-0.51855 0.92458-0.31454 0.18173-0.51879 0.55956-0.51879 0.9597 0 0.40017-0.20424 0.77805-0.51866 0.95976-0.2932 0.16943-0.51861 0.55953-0.51861 0.89752 0 0.32868-0.23343 0.81372-0.51878 1.0776-0.28523 0.26392-0.51865 0.69578-0.51865 0.95972 0 0.2639-0.23339 0.69581-0.51865 0.95978-0.28526 0.26389-0.5187 0.68251-0.5187 0.93031 0 0.24776-0.17498 0.58491-0.38896 0.74922-0.214 0.16426-0.38894 0.48679-0.38894 0.71676 0 0.23-0.23342 0.6927-0.51872 1.0282-0.28522 0.33555-0.51871 0.81715-0.51871 1.0703 0 1.2493-0.89086 1.5036-5.2682 1.5036-3.9917 0-5.7253-0.50281-3.5492-1.0293 0.39738-0.096 0.51868-0.32723 0.51868-0.98766 0-0.57715 0.11959-0.86231 0.36126-0.86231 0.38576 0 0.67612-0.50078 0.67612-1.166 0-0.22375 0.23335-0.59171 0.51873-0.81778 0.28526-0.22599 0.51856-0.67031 0.51856-0.98732 0-0.31711 0.16859-0.63642 0.37471-0.70958 0.20604-0.0729 0.45096-0.50909 0.54422-0.96878 0.0934-0.45964 0.33309-0.89385 0.53293-0.96477 0.5989-0.21269 0.42842-1.2493-0.2757-1.6761-1.7592-1.0664-22.741-0.4532-23.068 0.67427-0.19936 0.68677-0.12968 17.842 0.0759 18.733l0.16627 0.71974 20.223 0.23997 0.0715 3.779 0.0715 3.7789h-20.477l-0.15629 0.77974c-0.27492 1.3706-0.0237 16.928 0.27828 17.206 0.18735 0.1731 3.9064 0.23414 11.667 0.19161l11.392-0.0625 0.36673-0.71983c0.20182-0.39589 0.52425-0.80608 0.71665-0.91161 0.19248-0.10557 0.34986-0.38792 0.34986-0.62748 0-0.23959 0.23337-0.71008 0.51863-1.0456 0.28527-0.33554 0.51877-0.72805 0.51877-0.87217 0-0.14409 0.23334-0.47802 0.51864-0.74195 0.28528-0.26396 0.51862-0.64181 0.51862-0.83972 0-0.198 0.23339-0.57591 0.51872-0.83983 0.28538-0.26389 0.51863-0.65359 0.51863-0.86587 0-0.21241 0.26254-0.6424 0.58347-0.95556 0.84126-0.82112 8.4932-0.90942 8.4932-0.098 0 0.26395-0.11764 0.47983-0.26134 0.47983-0.14378 0-0.44827 0.43195-0.67656 0.95982-0.22824 0.5278-0.51902 0.95973-0.6462 0.95973-0.12716 0-0.23114 0.17191-0.23114 0.38202s-0.2335 0.65656-0.51867 0.99203c-0.28535 0.33558-0.51875 0.78551-0.51875 0.99989 0 0.21437-0.23331 0.52465-0.51858 0.68948-0.28532 0.16485-0.51877 0.54469-0.51877 0.84414 0 0.29951-0.23337 0.72941-0.51865 0.95542-0.28528 0.2259-0.51861 0.68183-0.51861 1.013 0 0.37186-0.14693 0.6021-0.38414 0.6021-0.21128 0-0.46245 0.29693-0.55818 0.65983-0.0958 0.36299-0.38967 0.91736-0.65331 1.2321-0.26347 0.31473-0.47915 0.708-0.47915 0.87402 0 0.166-0.175 0.36405-0.38896 0.44002-0.214 0.0754-0.38894 0.35853-0.38894 0.62785 0 0.26935-0.23346 0.67462-0.51872 0.90064-0.28522 0.226-0.52241 0.62978-0.52689 0.89737-5e-3 0.26757-0.29067 0.7835-0.63587 1.1464l-0.6277 0.65985h-50.077zm13.693 18.759c0.23762-0.21987 0.31117-5.6344 0.31117-22.907v-22.62l-0.76517-0.36605c-0.86458-0.41368-2.4936-0.48876-2.7358-0.1261-0.0882 0.13192-0.38162 0.23988-0.65192 0.23988-0.92808 0-1.1809 45.291-0.25585 45.832 0.56584 0.33079 3.7268 0.28979 4.0976-0.0531zm58.398-18.487c-2e-3 -14.549-0.10134-26.595-0.22037-26.768-0.54122-0.78952-1.6314-1.004-5.1064-1.004-3.3911 0-4.2824-0.19732-3.2346-0.71609 0.28924-0.14328 0.52599-0.40602 0.52599-0.58398 0-0.1779 0.23335-0.37993 0.51862-0.44891 0.28524-0.0689 0.51861-0.29752 0.51861-0.50788 0-0.21026 0.17515-0.38235 0.38906-0.38235 0.21399 0 0.38895-0.0887 0.38895-0.19635 0-0.10802 0.41302-0.62081 0.91772-1.1396 0.50483-0.51889 1.2926-1.399 1.7506-1.9557 1.0819-1.3153 35.16-2.0511 37.521-0.81017 0.45174 0.23739 1.9448 0.37171 5.056 0.45479 3.5603 0.0949 4.4712 0.18898 4.7054 0.48521 0.19032 0.24089 0.86034 0.40215 1.946 0.46847 1.0648 0.0649 1.7664 0.23118 1.9658 0.46553 0.17049 0.20043 0.8586 0.42166 1.5291 0.49151 0.68587 0.0715 1.4294 0.32168 1.6998 0.5719 0.26431 0.2446 0.75985 0.44472 1.1012 0.44472 0.34127 0 0.68349 0.15171 0.7604 0.33721 0.0771 0.18554 0.49787 0.41001 0.93548 0.49899 0.43752 0.0894 0.7955 0.24272 0.7955 0.34185 0 0.0991 0.55435 0.54018 1.2318 0.98013 1.4872 0.96575 3.6956 3.1159 3.6956 3.5981 0 0.13078 0.23339 0.37278 0.51866 0.53759 0.28524 0.1648 0.51867 0.4997 0.51867 0.74396 0 0.24433 0.23337 0.71884 0.51869 1.0544 0.2853 0.33549 0.5187 0.90782 0.5187 1.2718 0 0.36401 0.15813 0.71795 0.35147 0.78658 0.23758 0.0843 0.4113 0.80657 0.53606 2.2282 0.10138 1.1567 0.34996 2.5427 0.55233 3.0799 0.46891 1.2449 0.47348 2.4989 0.013 3.5267-0.19947 0.44502-0.44901 1.7798-0.55458 2.9664-0.10861 1.2202-0.33162 2.2623-0.51352 2.3993-0.1769 0.13316-0.38918 0.66041-0.47174 1.1716-0.0825 0.51125-0.33005 1.1135-0.55017 1.3385-0.22004 0.22509-0.40007 0.57282-0.40007 0.77286 0 0.20012-0.23342 0.55925-0.51866 0.79802-0.28528 0.23888-0.51866 0.57698-0.51866 0.75118 0 0.38497-4.2346 4.4074-4.6398 4.4074-0.15823 0-0.28762 0.11354-0.28762 0.2522 0 0.13877-0.37925 0.41024-0.84281 0.60346-0.90192 0.37582-1.467 0.67207-2.5828 1.3542-0.38647 0.2362-0.94092 0.42948-1.232 0.42948-0.29102 0-0.76248 0.21593-1.0478 0.47986-0.34579 0.31993-0.86443 0.4799-1.556 0.4799-0.69156 0-1.2102 0.15995-1.556 0.47983-0.43075 0.39848-0.86445 0.47995-2.5583 0.47995-1.6471 0-2.1667 0.0926-2.6991 0.47983-0.62768 0.45673-1.0521 0.47978-8.827 0.47978h-8.1676l-0.28474 0.7557c-0.37318 0.99023-0.37318 8.2955 0 9.2857l0.28474 0.75562h4.902c5.1243 0 5.3523 0.0525 4.3833 1.015-0.2852 0.28331-0.51865 0.65663-0.51865 0.82971 0 0.17302-0.17504 0.31468-0.38895 0.31468-0.21397 0-0.38906 0.15814-0.38906 0.35147 0 0.19331-0.23336 0.46695-0.51859 0.60825-0.28539 0.14125-0.51873 0.415-0.51873 0.60822 0 0.19335-0.17875 0.35149-0.39716 0.35149-0.21838 0-0.47204 0.18072-0.56367 0.40157-0.0914 0.22078-0.32564 0.57175-0.51997 0.7798-0.95788 1.025-1.6312 1.9134-1.6312 2.1524 0 0.19043-3.8439 0.26531-13.615 0.26531h-13.615zm13.312 17.927c0.39987-0.77583 0.43699-2.6995 0.43699-22.629v-21.781l-0.72733-0.64467c-0.95369-0.84544-2.7226-0.91099-3.4564-0.12824-0.49016 0.52288-0.78583 42.511-0.31787 45.131l0.16082 0.89978h1.7333c1.7289 0 1.7346-2e-3 2.1705-0.84792zm24.752-31.345 0.067-13.598-0.81993-0.37851c-1.4569-0.67243-13.084-0.55244-13.885 0.14323l-0.6003 0.52171v13.227c0 15.836-1.1555 13.825 7.9007 13.746l7.2704-0.0636zm11.33 10.271c0.36391-0.31202 0.66161-0.67739 0.66161-0.81179 0-0.13448 0.2335-0.3009 0.5188-0.36991 0.29366-0.0712 0.51863-0.32728 0.51863-0.59059 0-0.25588 0.23341-0.6606 0.51863-0.89944 0.32183-0.26941 0.51873-0.73896 0.51873-1.2369 0-0.48967 0.20763-0.99472 0.53259-1.2953 0.75586-0.69928 0.68471-10.898-0.0787-11.293-0.29919-0.15466-0.45385-0.52444-0.45385-1.085 0-0.64847-0.12305-0.87997-0.51872-0.97573-0.34137-0.0824-0.51864-0.32728-0.51864-0.71586 0-0.54124-1.2457-1.993-1.7101-1.993-0.10672 0-0.41115-0.18171-0.67639-0.40378-1.3047-1.0925-1.3739-0.54371-1.3739 10.909 0 12.154 0.0617 12.475 2.0614 10.761zm25.817 2.8743v-26.725l-0.6392-0.3875c-0.50588-0.30669-1.3446-0.38758-4.0197-0.38758-2.832 0-3.3805-0.0583-3.3805-0.35985 0-0.19788 0.17509-0.35986 0.389-0.35986 0.21398 0 0.389-0.0889 0.389-0.19676 0-0.10818 0.36244-0.56707 0.80552-1.0197 0.44302-0.45264 0.99175-1.093 1.2194-1.4228 0.45682-0.66215 0.98058-1.2457 1.6707-1.8612 0.24961-0.22273 0.45383-0.54286 0.45383-0.71143 0-0.16859 0.17093-0.30657 0.37984-0.30657 0.20893 0 0.50542-0.21698 0.65884-0.48216 0.27421-0.47411 0.4895-0.48115 12.781-0.41996l12.503 0.0622 0.12969 26.753 0.12967 26.753 4.4087 0.11998c2.7178 0.0736 4.2345 0.1988 3.9548 0.32557-0.24961 0.11313-0.45379 0.35944-0.45379 0.5474 0 0.18804-0.16014 0.39861-0.35586 0.46805-0.19568 0.0694-0.74378 0.63294-1.218 1.2521-0.4741 0.61923-1.0142 1.2123-1.2002 1.3177-0.18592 0.10553-0.33806 0.28566-0.33806 0.40031 0 0.11458-0.43755 0.64071-0.97249 1.169-0.53489 0.52828-1.2059 1.2339-1.4912 1.568l-0.51867 0.60755-25.285 0.0226zm13.847 18.668c0.0866-0.20875 0.15747-10.517 0.15747-22.908v-22.528l-0.76516-0.36605c-0.98044-0.46902-2.0527-0.46512-3.0851 0.0117l-0.81786 0.37746v22.608c0 17.264 0.0739 22.676 0.31124 22.896 0.49589 0.45885 4.0028 0.38233 4.1994-0.0921zm31.017-18.635-3e-3 -26.693-0.79741-0.41987c-0.65309-0.3445-1.4449-0.41995-4.406-0.41995-3.0358 0-3.6097-0.0572-3.6097-0.35985 0-0.19788 0.1788-0.35986 0.39718-0.35986 0.21837 0 0.4692-0.17374 0.55725-0.38605 0.0881-0.21244 0.44869-0.67126 0.80134-1.0198 0.35274-0.34851 0.82571-0.90361 1.0511-1.2335 0.45033-0.65916 0.97147-1.2411 1.6667-1.8612 0.24957-0.22273 0.45379-0.54286 0.45379-0.71143 0-0.16859 0.171-0.30657 0.37995-0.30657 0.20891 0 0.50476-0.21595 0.65743-0.47986 0.27312-0.47225 60.425-0.80845 60.425-0.33782 0 0.0775-0.2334 0.41669-0.51867 0.75223-0.28525 0.33547-0.51865 0.81135-0.51865 1.0575 0 0.24615-0.23342 0.66343-0.51868 0.9273-0.28525 0.26396-0.51866 0.72591-0.51866 1.0265 0 0.30054-0.23339 0.7314-0.51866 0.95737-0.2853 0.22598-0.51878 0.68523-0.51878 1.0206 0 0.33536-0.17181 0.67078-0.38187 0.74534-0.21008 0.0744-0.45822 0.51166-0.55138 0.97136-0.0932 0.45968-0.31839 0.88862-0.50033 0.95316-0.18183 0.0644-0.40695 0.49352-0.50019 0.95325-0.0934 0.45961-0.33804 0.89559-0.54414 0.9687-0.20611 0.0729-0.37476 0.39147-0.37476 0.7072 0 0.3158-0.23335 0.79015-0.51857 1.0541-0.28812 0.26656-0.5187 0.79975-0.5187 1.1997 0 0.45526-0.13281 0.71978-0.36124 0.71978-0.41819 0-0.67617 0.51098-0.67617 1.3393 0 0.33599-0.15195 0.58023-0.36115 0.58023-0.39656 0-0.67614 0.50406-0.67614 1.2192 0 0.43668-0.22939 0.45934-4.4736 0.44135-2.4604-0.0106-4.3276-0.073-4.1493-0.13995 0.17828-0.0667 0.32423-0.38192 0.32423-0.70086 0-0.31897 0.23336-0.79576 0.51859-1.0597 0.28527-0.26392 0.51873-0.72581 0.51873-1.0264 0-0.30055 0.23335-0.73146 0.51862-0.95741 0.30543-0.24189 0.51868-0.70775 0.51868-1.133 0-0.4573 0.13251-0.72211 0.36125-0.72211 0.38571 0 0.67613-0.50084 0.67613-1.166 0-0.22373 0.2334-0.59183 0.51867-0.81783 0.66902-0.52994 0.70822-2.029 0.065-2.4808-0.35791-0.25152-2.4864-0.3204-10.079-0.32641l-9.6249-8e-3 -0.68367 0.6326-0.68375 0.63257 0.0201 21.741c0.0156 16.861 0.0934 21.93 0.34704 22.581l0.32726 0.8398 3.8615 0.0666c4.2794 0.0737 4.5973 0.17349 3.6321 1.1372-0.3668 0.36607-0.66685 0.75788-0.66685 0.8705 0 0.11279-0.17499 0.20498-0.38898 0.20498-0.21613 0-0.38906 0.21325-0.38906 0.47987 0 0.27094-0.17287 0.47986-0.39713 0.47986-0.21841 0-0.46353 0.16021-0.54474 0.35604-0.0813 0.19582-0.60279 0.81655-1.159 1.3795-0.55608 0.56292-1.0111 1.1547-1.0111 1.315 0 0.16044-0.23345 0.40725-0.51876 0.54842-0.28522 0.14128-0.51858 0.415-0.51858 0.60835 0 0.30387-1.7205 0.35145-12.707 0.35145h-12.707l-3e-3 -26.693zm13.422 18.365c0.25198-0.50196 0.32421-5.5707 0.32421-22.749v-22.103l-0.65035-0.52317c-0.80198-0.64507-2.5825-0.7135-3.2841-0.12601-0.47604 0.3986-0.78231 44.648-0.31687 45.77 0.30816 0.74284 3.53 0.52131 3.9272-0.27002zm-51.284-57.721c0-0.1689 0.23344-0.46265 0.51867-0.65281 0.2852-0.19031 0.51867-0.53799 0.51867-0.77278 0-0.23477 0.18597-0.42698 0.41332-0.42698 0.22722 0 0.47426-0.2159 0.5489-0.47977 0.0747-0.26396 0.29704-0.47984 0.49434-0.47984 0.19737 0 0.35879-0.15824 0.35879-0.3515 0-0.19333 0.23339-0.46708 0.51867-0.60829 0.28525-0.14123 0.51864-0.39822 0.51864-0.5711 0-0.1728 0.23346-0.50967 0.51873-0.74859 0.28526-0.23878 0.51864-0.57565 0.51864-0.74848 0-0.17289 0.23341-0.42986 0.51864-0.57114 0.2853-0.14123 0.51873-0.41489 0.51873-0.60822 0-0.19328 0.17868-0.35144 0.39713-0.35144 0.21841 0 0.47209-0.18073 0.56366-0.40163 0.494-1.1908 0.86113-1.278 5.3848-1.278 4.8172 0 4.7297-0.0512 2.9643 1.7356-0.55615 0.56292-1.0112 1.1547-1.0112 1.315 0 0.1604-0.23335 0.4072-0.51864 0.54844-0.28524 0.14123-0.51856 0.35212-0.51856 0.4687 0 0.11655-0.46744 0.67958-1.0386 1.2512-1.5977 1.599-1.6702 1.6835-2.4808 2.89l-0.75974 1.131-4.4735 0.01c-3.4655 7e-3 -4.4736-0.0602-4.4736-0.29815z" fill="#0c4ac6" stroke="#d7c616" stroke-width="4.9025" style="paint-order:stroke fill markers"/></g></svg>
