<?xml version="1.0" encoding="UTF-8"?>
<!-- Created with Inkscape (http://www.inkscape.org/) -->
<svg width="1361.8" height="246.15" version="1.1" viewBox="0 0 1361.8 246.15" xml:space="preserve" xmlns="http://www.w3.org/2000/svg"><path d="m25.676 221.88c-1.1596-0.19011-2.5814-0.82558-3.1594-1.4119-0.74541-0.7564-0.97701-27.906-0.79657-93.382l0.25437-92.316 1.8797-1.1573 1.8797-1.1573h153.41l1.0631 2.5679c0.74726 1.8053 1.0631 29.639 1.0631 93.715v91.147l-1.5218 1.2811-1.5215 1.2816h-16.456c-9.4916 0-17.249-0.35726-18.329-0.84429l-1.873-0.84394v-176.58l-1.374-1.5828-1.3739-1.5828h-72.483l-3.2046 2.2382v176.83l-3.3581 1.1815c-2.4768 0.87148-7.1144 1.1524-17.672 1.0705-7.8727-0.0611-15.263-0.26656-16.422-0.45675zm218.53-0.16098c-2.3966-0.33129-7.0846-1.8282-10.418-3.3266-3.3576-1.5096-7.4902-4.2124-9.2674-6.0616-1.7642-1.8356-3.5329-3.8012-3.9307-4.3679-0.39773-0.56696-1.6313-3.6857-2.7414-6.9311-1.1968-3.4994-2.0129-8.2233-2.0052-11.608 7e-3 -3.1394 0.96684-9.5608 2.1326-14.27 1.3076-5.2821 3.0282-9.7266 4.4914-11.602 1.3046-1.6722 2.3719-3.3373 2.3719-3.7006 0-0.36308 1.9561-2.037 4.3466-3.7196 2.3907-1.683 6.0638-3.5698 8.1627-4.1935 2.0988-0.62343 4.8414-1.6995 6.095-2.3911 1.2534-0.6915 5.5326-1.6373 9.5095-2.1021 3.9768-0.46462 10.499-1.3912 14.493-2.0594 3.9944-0.66799 15.435-1.7222 25.423-2.3424 10.237-0.63548 18.746-1.5365 19.502-2.0647 0.73752-0.51533 1.5706-1.935 1.8515-3.1544 0.28088-1.2196-0.0781-6.4697-0.79739-11.666-0.75667-5.4658-2.1195-10.965-3.2333-13.047-1.0588-1.9789-2.4047-4.6987-2.9906-6.0441-0.58594-1.3454-2.9279-4.1514-5.2044-6.2355-2.7003-2.472-5.4695-4.1003-7.9668-4.6841-2.1053-0.49214-6.0067-0.89115-8.6696-0.88663-2.6629 6e-3 -7.2812 0.49176-10.263 1.0828-2.9816 0.59099-7.1213 2.122-9.1992 3.4021-2.0779 1.2803-5.6659 3.8181-7.9734 5.6398-2.3074 1.8217-5.0598 4.5967-6.1165 6.1663-1.0566 1.5697-2.9015 4.3214-4.0999 6.1148-1.1984 1.7937-2.8036 3.3601-3.567 3.4816-0.76354 0.12129-2.8206-1.3462-4.5715-3.2611-1.751-1.9148-4.2531-4.7657-5.5603-6.3354-1.3072-1.5697-3.0553-4.078-3.8846-5.574l-1.5079-2.72 1.0967-2.7983c0.7046-1.7978 2.1929-3.2715 4.1631-4.1224 1.6865-0.72833 4.1057-2.0062 5.3758-2.8397 1.2702-0.83362 3.0131-1.5192 3.8734-1.5235 0.86027-5e-3 3.9607-0.95054 6.89-2.1026 3.9974-1.5721 9.0548-2.4853 20.277-3.6614 8.223-0.86177 17.156-1.5679 19.851-1.5693 2.6951-2e-3 10.565 0.58437 17.488 1.3016l12.588 1.3041 7.0927 2.9027c4.6087 1.8862 8.9722 4.5107 12.46 7.4941l5.367 4.5914 6.0278 12.987 0.30239 52.58 0.30236 52.58-1.678 1.0332c-1.1687 0.71969-5.8109 1.0298-15.292 1.0213-8.9939-0.01-14.435-0.36054-16.035-1.0393l-2.4209-1.0272-0.48791-5.1445c-0.36314-3.8295-0.96751-5.4396-2.3638-6.2996-1.0317-0.63509-2.3807-1.155-2.9977-1.155-0.61684 0-3.0391 1.094-5.3827 2.4315-2.3436 1.3371-4.6969 2.4495-5.2295 2.4717-0.5326 0.0224-3.5717 1.1298-6.7537 2.461-3.182 1.3315-6.5034 2.4206-7.381 2.4206-0.87753 0-4.8105 0.88214-8.7396 1.96-5.0392 1.3826-10.283 2.0847-17.796 2.3832-5.8584 0.2327-12.612 0.15203-15.009-0.17938zm36.044-12.608c5.2095-1.114 14.112-4.0094 21.191-6.891l12.207-4.9698 1.1631-3.5054c0.79394-2.3929 1.0686-9.3665 0.86523-21.973l-0.29758-18.467-1.9169-1.7817-1.917-1.7818-3.8931 0.36286c-2.1411 0.19952-8.6862 0.96545-14.545 1.702-6.189 0.77834-13.979 2.4186-18.594 3.9149-5.7176 1.8541-9.0117 3.5089-11.759 5.9077-2.0991 1.8326-5.2789 5.7172-7.0666 8.6322l-3.2502 5.3003 0.10469 10.409 0.10459 10.409 3.2217 5.3453c2.1861 3.6266 4.1739 5.7595 6.1833 6.6346 1.6289 0.70929 4.0537 1.5694 5.3886 1.9114 1.335 0.34176 2.7418 0.6531 3.1265 0.69165 0.38467 0.0386 4.7422-0.79442 9.6834-1.8513zm119.95 12.626c-1.281-0.30188-2.7834-1.155-3.3384-1.8959-0.72319-0.96545-0.40481-4.9084 1.1232-13.913 1.1728-6.9115 2.5763-18.406 3.1188-25.543 0.54258-7.1372 1.8446-18.114 2.8934-24.393 1.0489-6.2785 2.3707-17.47 2.9374-24.87 0.56693-7.3997 1.8746-18.225 2.906-24.055 1.0314-5.8302 1.8781-12.134 1.8816-14.008 4e-3 -2.0041 0.633-3.935 1.5281-4.6887l1.5216-1.2814h19.663c14.553 0 19.922 0.26495 20.661 1.0193 0.54876 0.56061 1.936 3.2209 3.0824 5.9118 1.1466 2.6909 2.9309 7.7565 3.9654 11.257 1.0343 3.5006 2.4923 7.3608 3.2398 8.5783 0.74778 1.2176 1.8251 4.3344 2.394 6.9263 0.56903 2.5923 1.8507 6.2665 2.8482 8.1652 0.9974 1.8989 2.1215 4.908 2.4977 6.6868 0.37649 1.7785 1.738 5.9858 3.0258 9.3495 1.2878 3.3637 3.2555 8.5007 4.3726 11.416 1.1169 2.9149 2.6685 7.6403 3.4476 10.501 0.77923 2.8603 1.8532 5.8876 2.3868 6.7271 0.53357 0.8396 1.9908 1.5266 3.2383 1.5266 1.2476 0 2.7246-0.46314 3.2824-1.0293 0.55802-0.566 1.6702-3.2263 2.4718-5.9118 0.80168-2.6854 2.4216-7.2674 3.6001-10.183 1.1784-2.915 3.1679-7.6852 4.4212-10.6 1.2534-2.9151 2.7282-7.0805 3.2772-9.2566 0.54912-2.176 1.6401-5.0016 2.4245-6.2788 0.78439-1.2773 1.9155-4.267 2.5138-6.6441 0.59821-2.3768 1.8519-5.6057 2.7858-7.1755 0.93395-1.5696 2.186-4.7924 2.7824-7.1617 0.5963-2.3694 1.9049-5.6718 2.9083-7.3389 1.003-1.6671 2.1456-4.682 2.5387-6.7002 0.39315-2.0182 1.3376-4.6942 2.099-5.9468 0.76143-1.2526 2.4812-2.6286 3.8218-3.0578 1.3407-0.42923 9.183-0.78043 17.428-0.78043h14.99l2.3768 2.0015c1.3072 1.1008 2.3805 2.8437 2.385 3.8732 5e-3 1.0295 0.64586 12.88 1.4252 26.334 0.77936 13.454 2.0647 29.599 2.8565 35.878 0.7915 6.2787 1.8895 20.039 2.4396 30.578 0.55031 10.539 1.2784 22.517 1.618 26.617l0.61766 7.4548-4.9677 2.7409-14.542-0.26336c-8.7393-0.15832-14.959-0.61632-15.589-1.1479-0.57591-0.48627-1.8812-7.6416-2.9003-15.901-1.0191-8.259-2.3278-23.639-2.9082-34.178-0.58037-10.539-1.7211-24.3-2.5353-30.578-0.8141-6.2788-2.0017-12.333-2.6394-13.454-0.63766-1.1212-1.796-2.0386-2.5742-2.0386-0.91204 0-1.9623 1.7379-2.9568 4.8927-0.84805 2.6908-2.2224 5.9932-3.0542 7.3386-0.83157 1.3456-2.0182 4.4597-2.637 6.9205-0.61869 2.4609-1.7635 5.2946-2.5437 6.2976-0.78019 1.0026-2.009 3.9532-2.7299 6.5566-0.7213 2.6034-1.9769 5.8243-2.79 7.1569-0.81328 1.333-2.1733 4.719-3.0226 7.5246-0.84901 2.8057-2.1735 5.9247-2.9433 6.931-0.76967 1.0066-1.6979 3.2977-2.0628 5.0917-0.36454 1.7939-1.6698 5.2798-2.9001 7.7465-1.2304 2.4667-2.8162 6.136-3.5239 8.1541l-1.2867 3.6692-5.1706 1.4442c-2.8439 0.79442-9.4769 1.8697-14.74 2.3897l-9.5691 0.94565-2.0629-1.5725c-1.1349-0.86459-2.6316-2.4977-3.3262-3.6292-0.69474-1.1312-1.7064-4.0677-2.248-6.5253-0.54152-2.4575-1.8567-6.1774-2.9225-8.2662-1.0657-2.0889-2.2488-5.5454-2.6292-7.6809-0.38034-2.1357-1.7204-6.0152-2.9776-8.621-1.2575-2.6056-2.3006-5.5709-2.318-6.5887-0.0179-1.0183-0.92115-3.869-2.0085-6.3357-1.0873-2.4666-2.7885-7.2368-3.7804-10.6-0.99186-3.3635-2.6545-8.317-3.6944-11.008-1.0401-2.6908-2.3395-6.3603-2.8874-8.1541-0.54797-1.7941-2.1794-5.922-3.6252-9.1734-1.4458-3.2514-2.9597-5.9117-3.3645-5.9117-0.40461 0-0.99989 0.5797-1.3229 1.2882-0.32284 0.7085-1.0422 7.4051-1.5986 14.881-0.55644 7.4761-1.6523 17.446-2.4351 22.155-0.78311 4.709-1.8525 14.983-2.3766 22.832-0.52421 7.8484-1.8781 21.058-3.009 29.355l-2.056 15.085-1.9263 1.4271c-1.145 0.84819-3.3556 1.3942-5.4502 1.3458-1.9382-0.0448-4.5722-0.32828-5.8533-0.6302zm260.4-0.0173c-1.3287-0.31131-2.5288-1.1003-2.6671-1.7532-0.13837-0.65318 1.6772-3.389 4.0343-6.0799 2.3569-2.691 5.4373-6.1768 6.8452-7.7464 1.4077-1.5699 5.037-5.6891 8.0647-9.1542 3.028-3.4649 7.902-9.0888 10.831-12.497 2.9292-3.4085 6.3375-7.2625 7.574-8.5646 1.2365-1.3018 1.9929-2.7148 1.681-3.1398-0.31179-0.42508-2.195-1.2159-4.1846-1.7574-1.9899-0.54189-5.5787-1.9207-7.9753-3.0648-2.3966-1.1438-6.1007-3.374-8.2311-4.9557-2.1303-1.5818-5.0553-4.2438-6.5002-5.9155-1.4448-1.672-3.9869-5.5385-5.6489-8.5926l-3.0221-5.553-0.65718-7.9032c-0.36141-4.3469-0.378-11.685-0.0378-16.308l0.62061-8.4051 3.6133-5.531c2.1703-3.3223 5.5014-6.8719 8.3406-8.888 2.6001-1.8462 7.2366-4.2523 10.303-5.347 3.0667-1.0947 7.3187-2.308 9.4491-2.6963 2.1304-0.38831 23.996-0.72199 48.59-0.74151l44.716-0.03549 3.0432 2.5628v130.26l-2.1522 1.2692-2.152 1.2695h-27.22l-2.1521-1.2695-2.1521-1.2692v-47.144l-2.1111-0.95148c-1.3864-0.62472-4.5529-0.77722-9.228-0.44465-3.9144 0.27862-8.3592 1.0474-9.8769 1.7086-1.5181 0.66079-4.4411 3.1413-6.4955 5.5121-2.0544 2.3711-5.7017 6.7308-8.1048 9.6887-2.4034 2.958-6.8739 8.462-9.935 12.231-3.061 3.7694-8.076 9.9564-11.144 13.749-3.6479 4.5091-6.4137 7.0915-7.9912 7.4612-1.3268 0.3111-7.6417 0.56546-14.033 0.56546-6.391 0-12.707-0.25464-14.036-0.56611zm77.06-59.227c7.3367-0.68508 13.914-1.6472 14.618-2.1382l1.2775-0.89314v-60.757l-1.4643-1.0233c-0.89608-0.62639-5.6854-1.1736-12.346-1.4108-5.9853-0.21314-13.974-0.01903-17.753 0.43141l-6.8702 0.81891-4.3065 2.7345c-2.3684 1.5037-5.2554 3.835-6.4155 5.1808-1.1601 1.3455-3.756 5.1981-5.7686 8.5618l-3.6596 6.1155-3.8e-4 11.824-3.8e-4 11.824 3.0884 5.3001c1.6984 2.9151 4.78 6.6868 6.848 8.3818 2.0677 1.6947 5.907 3.7875 8.5316 4.6504 2.6248 0.86306 6.1467 1.5862 7.8269 1.6071 1.6799 0.0212 9.0576-0.52223 16.394-1.2072zm150.71 58.686-2.1523-1.2692v-121.29l-1.5477-1.3033-1.5476-1.3032-27.336 0.45152-1.1801 2.0386c-0.64894 1.1211-2.0627 4.7905-3.1418 8.1539-1.0791 3.3637-2.4204 9.0513-2.9809 12.639-0.56025 3.5876-1.9237 9.0043-3.0297 12.036-1.1061 3.0324-2.7358 5.8341-3.6217 6.2261-0.88585 0.39223-4.2678 0.96794-7.5154 1.2797l-5.905 0.56684-1.5996-1.3468-1.5997-1.3473v-47.936l1.873-0.84405c1.2491-0.5629 28.915-0.8404 83.035-0.83305 44.639 8e-3 82.112 0.22581 83.274 0.48815 1.1614 0.26224 2.3554 1.0123 2.6538 1.6668 0.29743 0.65449-0.26113 2.5447-1.2422 4.2006-0.98221 1.6558-2.3134 4.8453-2.9589 7.0876-0.64737 2.2426-1.7743 4.8561-2.5059 5.808-0.73151 0.95207-1.9959 3.8874-2.8125 6.5233-0.81655 2.6359-2.3682 6.2462-3.4494 8.0226-1.0788 1.7766-1.9644 4.0115-1.9644 4.9664 0 0.95463-1.3304 3.9775-2.9562 6.7172-1.6267 2.7398-3.6955 5.1536-4.5994 5.3637-0.90348 0.21026-4.1443 0.62165-7.2015 0.91434-3.0569 0.29263-6.4343 0.29782-7.5056 0.0118-1.0712-0.28625-2.345-1.1455-2.8306-1.9098-0.56249-0.8848-0.41491-2.9076 0.40644-5.5743 0.70913-2.3018 1.7682-8.2202 2.3538-13.152 0.58547-4.9317 1.7056-10.746 2.4891-12.921 0.78372-2.1749 1.4294-4.7671 1.4353-5.7603 0.01-0.99332-0.83243-2.1858-1.8626-2.6501-1.0784-0.48605-8.7918-0.84409-18.183-0.84409h-16.31l-4.3042 2.5386v121.31l-2.1522 1.2692-2.1521 1.2695h-27.22zm138.26 0.69083c-0.7996-0.24734-2.2163-1.0091-3.1467-1.6928l-1.6963-1.2431v-128.27l1.3728-1.5829 1.3724-1.5828 31.774-0.51369 1.0966 1.1114c0.7621 0.77288 1.1821 10.685 1.3808 32.545l0.2856 31.434 1.329 1.3471c0.7496 0.75934 2.7365 1.3475 4.5547 1.3475 1.7734 0 4.3315-0.42491 5.6857-0.94442 1.3531-0.51932 3.4438-2.2342 4.6451-3.8108 1.2021-1.5769 3.2734-4.2132 4.6047-5.8588 1.3321-1.6454 3.3715-4.2417 4.5328-5.7699 1.1612-1.5282 3.0376-3.8791 4.1671-5.2246 1.131-1.3453 3.5343-4.4644 5.3413-6.9309 1.8077-2.4667 4.2045-5.5857 5.3261-6.931 1.1222-1.3455 3.5188-4.4646 5.3257-6.9312 1.8082-2.4666 4.1883-5.5854 5.2905-6.9309 1.1038-1.3458 3.8133-4.8314 6.0206-7.7465 2.2076-2.9152 5.335-6.4928 6.9497-7.9504l2.9393-2.6501h10.524c5.7898 0 11.369 0.37985 12.4 0.84415 1.0302 0.46423 1.8725 1.2318 1.8725 1.7057 0 0.47386-0.9012 1.837-2.0013 3.0291-1.1016 1.1921-4.2672 4.7361-7.036 7.8753-2.7662 3.1395-5.7999 6.6253-6.7404 7.7466-0.9401 1.1212-3.0176 3.5062-4.6176 5.3002-1.6006 1.7939-3.9868 4.5459-5.3043 6.1156-1.3155 1.5697-3.912 4.5051-5.7719 6.5234-1.8589 2.018-4.4555 4.9535-5.7727 6.5231-1.3151 1.5698-3.6926 4.3218-5.2796 6.1156-1.5881 1.794-4.2418 4.8699-5.8969 6.8356-1.654 1.9658-2.7803 4.0757-2.501 4.6888 0.3544 0.77936 2.3377 1.1136 6.5899 1.1114 3.3445-2e-3 10.004-0.54558 14.798-1.2088 4.7932-0.66321 10.732-1.2123 13.197-1.22l4.4814-0.0141 1.0472 2.2425c0.5742 1.2333 1.3206 3.7101 1.6555 5.5041 0.3366 1.7937 1.4197 5.8302 2.4084 8.9693 0.9897 3.1395 2.2672 8.6435 2.8387 12.231 0.5743 3.5879 1.8778 9.092 2.8974 12.231 1.0222 3.1395 2.1333 7.9096 2.4709 10.6 0.3381 2.691 1.4938 7.4876 2.5702 10.659 1.0766 3.1717 1.8086 6.6553 1.6231 7.7412-0.2404 1.4366-1.1198 2.1163-3.235 2.4949-1.597 0.28623-9.2841 0.56374-17.082 0.61683l-14.175 0.0965-1.9114-1.4271c-1.2903-0.96227-2.5799-4.0814-3.9639-9.5811-1.1283-4.4848-2.3163-10.906-2.6405-14.27-0.3223-3.3635-1.4172-9.1666-2.4335-12.895-1.0159-3.729-2.2551-9.7835-2.7512-13.454-0.4972-3.6709-1.1826-7.2787-1.5214-8.0168-0.3378-0.73847-1.656-1.5101-2.929-1.7149-1.2727-0.20483-8.9786 0.11054-17.124 0.70102-8.1442 0.59055-16.883 1.4912-19.417 2.0014-2.8699 0.57845-5.3336 1.7062-6.5346 2.9938l-1.9305 2.0657v51.909l-1.8722 0.84396c-1.0543 0.47528-7.7226 0.81613-15.252 0.77987-7.3574-0.0357-14.031-0.26675-14.83-0.51425zm205.29-0.15351c-2.397-0.33315-6.3185-1.473-8.7141-2.5333-2.3964-1.06-5.3674-2.5756-6.6057-3.3677-1.2371-0.7924-3.7742-3.1234-5.6399-5.1803-2.0482-2.2585-4.1312-5.9842-5.2542-9.4072-1.1097-3.3651-1.8676-8.2543-1.8676-12.036 0-3.5023 0.8943-9.8155 1.9871-14.029 1.1871-4.5799 3.2301-9.5238 5.0832-12.291 1.7047-2.5464 4.9912-5.9616 7.3065-7.5895 2.3124-1.6277 4.7529-2.9594 5.4216-2.9594 0.6698 0 3.2496-0.91055 5.7345-2.0231 2.8394-1.2712 8.2015-2.5065 14.428-3.3239 5.4494-0.71526 13.612-1.7876 18.141-2.3827 4.5257-0.59505 14.111-1.3494 21.303-1.6762 7.1892-0.32657 14.059-0.90596 15.267-1.2875 1.209-0.38126 2.647-1.6893 3.1976-2.9071 0.7138-1.5835 0.5931-5.1271-0.4226-12.449l-1.4197-10.236-3.3585-6.1156c-1.8486-3.3636-5.0432-7.6338-7.1027-9.4897-2.3223-2.0963-5.2071-3.7157-7.6142-4.2763-2.1315-0.49627-6.053-0.89864-8.7154-0.89408-2.6636 6e-3 -7.2608 0.48785-10.218 1.0741-3.3343 0.661-7.3923 2.3205-10.686 4.3677-2.9184 1.8158-6.6736 4.6117-8.3426 6.2131-1.6677 1.601-4.6303 5.3142-6.5817 8.2513-1.9496 2.9368-3.9837 5.5677-4.5188 5.8464-0.5369 0.27886-2.4449-0.69356-4.2406-2.1607-1.8002-1.4668-3.9515-3.8777-4.7865-5.357-0.8337-1.4795-1.9459-2.914-2.4713-3.1876-0.5257-0.27378-1.797-1.8864-2.8262-3.5837-1.1192-1.8482-1.6422-3.8698-1.3047-5.0409 0.3104-1.0753 1.3519-2.6907 2.3141-3.5898 0.9616-0.89907 4.06-2.6286 6.8865-3.8434 2.8244-1.2149 7.7529-3.1665 10.947-4.3372 4.2455-1.5554 9.8342-2.5512 20.762-3.6991 8.2224-0.86396 17.155-1.5719 19.851-1.5733 2.6949-2e-3 10.565 0.57899 17.488 1.2897l12.588 1.2922 7.0329 2.8633c4.548 1.8513 9.0107 4.5286 12.628 7.5747l5.5952 4.7113 2.7642 6.8324c2.1227 5.245 2.9464 9.2004 3.5479 17.025 0.4278 5.6059 0.8012 28.815 0.827 51.575l0.047 41.382-1.9376 1.6309-1.9361 1.6309-13.8-0.0122c-9.1451-0.01-14.614-0.35839-16.219-1.0398l-2.4225-1.0276-0.2877-5.0828-0.288-5.0825-2.49-1.3744-2.4921-1.3742-3.5145 1.7264c-1.9329 0.94967-6.7828 3.0576-10.776 4.6845-3.995 1.6268-9.1735 3.3184-11.506 3.759-2.3349 0.44086-6.6918 1.4905-9.6844 2.3332-3.3805 0.95158-9.4745 1.6892-16.092 1.9478-5.8581 0.22883-12.612 0.14357-15.01-0.18975zm36.478-12.609c4.8278-1.0589 11.341-2.9258 14.474-4.1486 3.1333-1.2225 6.7844-2.7584 8.116-3.4131 1.3312-0.65463 4.218-1.8732 6.4103-2.7082 2.8742-1.0926 4.2988-2.2583 5.085-4.1601 0.6903-1.6649 1.0939-9.5214 1.0939-21.237 0-12.474-0.3726-19.285-1.1344-20.691-0.6232-1.153-2.1692-2.3153-3.4366-2.5829-1.2639-0.26776-4.7846-0.0899-7.8214 0.39391-3.0378 0.4843-9.1446 1.2831-13.572 1.7755-4.4314 0.49207-11.404 2.0114-15.494 3.3756-4.3895 1.463-8.9218 3.6776-11.047 5.3978-1.9839 1.6044-4.5117 4.4117-5.6203 6.2387-1.1057 1.827-2.6377 4.239-3.3992 5.3603-1.0155 1.4899-1.3916 5.0006-1.4017 13.047l-0.015 11.008 3.146 5.1784c2.0721 3.408 4.1382 5.6106 6.0474 6.443 1.5937 0.69565 3.9904 1.5447 5.3261 1.8867 1.3348 0.34177 2.8851 0.65312 3.4453 0.69165 0.5616 0.0387 4.9704-0.79628 9.7971-1.8555zm-640.5-125.75c-3.5301-1.3579-5.4246-2.6573-6.1445-4.2141-0.74407-1.6095-0.72624-8.5245 0.0641-24.267 0.60663-12.109 1.3676-23.985 1.6912-26.39l0.58827-4.374 3.2117-1.13c2.0749-0.73001 6.9711-1.13 13.832-1.13 5.8409 0 11.778 0.37076 13.193 0.82389l2.5734 0.82389-0.66537 4.2725c-0.3658 2.3498-1.7149 6.8723-2.9978 10.05-1.2831 3.1776-2.8074 7.9404-3.3877 10.584-0.58042 2.6435-1.6567 5.7859-2.3921 6.9831-0.73487 1.1972-2.1779 5.2409-3.2063 8.986-1.0283 3.7452-2.5737 8.4606-3.4339 10.479-0.86038 2.0182-2.0081 5.2288-2.5508 7.1349l-0.98632 3.4655-2.1414-0.06659c-1.1779-0.03712-4.4382-0.95029-7.2454-2.0301z" fill="#04f" stroke="#fff200" stroke-width="27.723" style="paint-order:stroke fill markers"/></svg>
