<?xml version="1.0" encoding="UTF-8"?>
<!-- Created with Inkscape (http://www.inkscape.org/) -->
<svg width="166.5mm" height="183.13mm" version="1.1" viewBox="0 0 166.5 183.13" xml:space="preserve" xmlns="http://www.w3.org/2000/svg"><path d="m45.347 170.09c-0.36147-0.51608-0.41236-2.5156-0.41586-16.338l-4e-3 -15.75-2.4434-0.75517c-4.9826-1.54-10.892-4.8429-14.8-8.2723-6.0396-5.3001-10.551-13.172-12.886-22.485-1.8426-7.3484-2.171-10.615-2.3283-23.16-0.13832-11.026 0.10075-17.639 0.86093-23.816 2.0914-16.994 8.222-28.991 18.215-35.645 8.4437-5.6225 19.646-9.0968 34.731-10.772 8.035-0.89205 25.907-0.74031 35.027 0.29738 14.422 1.641 27.145 5.5715 35.041 10.825 8.092 5.3842 13.82 16.379 16.393 31.465 1.1758 6.8941 1.3392 9.4671 1.3292 20.934-0.01 11.3-0.26304 15.416-1.4567 23.68-1.2558 8.6944-3.8956 15.921-8.0212 21.96-2.0181 2.9541-6.4577 7.3123-9.4304 9.2575-4.9446 3.2356-8.0644 4.4846-16.526 6.6162-13.128 3.3074-26.347 4.7589-40.228 4.4171l-6.35-0.15635-3.4396 4.1511c-5.2356 6.3186-15.662 18.422-18.12 21.035-2.9388 3.1236-4.2654 3.7704-5.1481 2.5101z" fill="none" stroke="#fff" stroke-linejoin="round" stroke-width="24.865" style="paint-order:normal"/><path d="m45.347 170.09c-0.36147-0.51608-0.41236-2.5156-0.41586-16.338l-4e-3 -15.75-2.4434-0.75517c-4.9826-1.54-10.892-4.8429-14.8-8.2723-6.0396-5.3001-10.551-13.172-12.886-22.485-1.8426-7.3484-2.171-10.615-2.3283-23.16-0.13831-11.026 0.10075-17.639 0.86093-23.816 2.0914-16.994 8.222-28.991 18.215-35.645 8.4437-5.6225 19.646-9.0968 34.731-10.772 8.0349-0.89205 25.907-0.74031 35.027 0.29738 14.422 1.641 27.145 5.5715 35.041 10.825 8.092 5.3842 13.82 16.379 16.393 31.465 1.1758 6.8941 1.3392 9.4671 1.3292 20.934-0.01 11.3-0.26304 15.416-1.4567 23.68-1.2558 8.6944-3.8956 15.921-8.0212 21.96-2.0181 2.9541-6.4577 7.3123-9.4304 9.2575-4.9446 3.2356-8.0644 4.4846-16.526 6.6162-13.128 3.3074-26.347 4.7589-40.228 4.4171l-6.35-0.15635-3.4396 4.1511c-5.2356 6.3186-15.662 18.422-18.12 21.035-2.9388 3.1236-4.2654 3.7704-5.1481 2.5101zm67.516-45.498c2.1087-0.78458 4.3192-2.391 6.5432-4.7552 5.2738-5.6061 6.845-9.5092 5.1522-12.799-0.52982-1.0295-1.4762-1.961-4.4946-4.424-4.1423-3.38-9.2228-6.9035-12.505-8.6726-2.5083-1.352-4.6167-1.6486-6.6943-0.94177-1.6647 0.56635-2.2316 1.0693-4.7064 4.175-3.0435 3.8195-4.5888 4.3426-8.7899 2.9755-11.438-3.7223-20.756-13.116-25.695-25.907-0.73903-1.9136-0.88728-2.6016-0.76028-3.5282 0.27389-1.9982 0.90493-2.892 3.5743-5.0626 3.09-2.5126 3.5814-3.0317 4.1497-4.3829 0.61921-1.4724 0.57147-4.2395-0.0993-5.7559-1.3271-3-5.5506-9.153-10.095-14.706-2.7598-3.3726-4.1036-4.2655-6.4271-4.2702-2.5777-0.0053-6.0627 2.0008-10.04 5.7795-4.011 3.8106-5.7247 7.2328-5.4317 10.847 0.35965 4.436 7.6824 19.587 14.342 29.673 3.9478 5.9796 6.8794 9.6334 11.632 14.497 8.018 8.2064 15.503 13.669 27.608 20.15 7.288 3.9018 14.416 7.0057 17.648 7.6853 1.3806 0.29028 3.3612 0.0656 5.0894-0.57743zm14.104-43.084c0.90312-0.48334 1.1075-1.2889 1.0655-4.1989-0.18648-12.912-4.9501-24.648-13.283-32.725-4.177-4.0486-6.6841-5.8512-11.474-8.2497-5.814-2.9114-13.849-4.8264-20.251-4.8264-1.4358 0-1.7055 0.08719-2.3917 0.7734-0.98779 0.98779-1.0023 1.9488-0.044 2.9071 0.68522 0.68522 0.91397 0.73994 3.7768 0.90345 3.6319 0.20743 7.2432 0.79523 10.285 1.674 11.905 3.4395 21.577 12.259 25.922 23.638 1.6506 4.3226 2.9255 11.037 2.9394 15.481 8e-3 2.5576 0.35855 3.9489 1.1312 4.4901 0.66823 0.46804 1.599 0.52174 2.3234 0.13403zm-11.19-5.1894c0.52787-0.58065 0.59531-0.93398 0.59531-3.119 0-5.884-1.7925-11.83-5.0713-16.821-1.4397-2.1917-5.4105-6.1983-7.5963-7.6647-3.691-2.4763-8.6848-4.3694-13.651-5.1748-3.576-0.58-4.7931-0.5233-5.5762 0.2598-1.4693 1.4693-0.26432 3.8474 1.9506 3.8493 2.9497 0.0026 8.6509 1.5172 11.952 3.1754 8.1633 4.1004 13.494 12.886 13.494 22.241 0 2.5605 0.28377 3.3417 1.387 3.8184 1.0477 0.45271 1.7298 0.29959 2.5156-0.5647zm-11.434-3.8593c0.6776-0.80528 0.70794-0.95543 0.54575-2.7005-0.56873-6.1193-3.3435-10.614-7.9311-12.847-2.1699-1.0561-5.3209-1.8564-7.3089-1.8564-1.4078 0-2.3804 0.90201-2.3804 2.2076 0 1.5798 0.63138 2.0328 3.4086 2.4456 5.855 0.87032 8.7155 3.6912 9.5738 9.4416 0.43487 2.9133 0.47596 3.0495 1.0936 3.6249 0.89804 0.83665 2.1386 0.70583 2.9986-0.3162z" fill="#7360f2" style="paint-order:normal"/></svg>
