<?xml version="1.0" encoding="UTF-8"?>
<!-- Created with Inkscape (http://www.inkscape.org/) -->
<svg width="34.829mm" height="33.715mm" version="1.1" viewBox="0 0 34.829 33.715" xml:space="preserve" xmlns="http://www.w3.org/2000/svg"><g transform="translate(-86.472 -126.45)"><path d="m100.94 127.04c-1.112 0-1.1606 0.0335-1.2402 0.85989-0.08007 0.83047-0.12344 0.8599-1.2733 0.8599-1.1022 0-1.1968-0.054-1.2743-0.7276-0.07321-0.63622-0.19782-0.72761-0.99219-0.72761h-0.90847v3.9688h16.669v-3.9688h-1.0418c-0.9817 0-1.0463 0.0494-1.1245 0.8599-0.0784 0.813-0.1404 0.85989-1.141 0.85989s-1.0631-0.0469-1.1415-0.85989c-0.0797-0.82632-0.12807-0.8599-1.2392-0.8599-1.0647 0-1.1626 0.0576-1.2397 0.72761-0.0789 0.68557-0.16015 0.7276-1.4066 0.7276-1.2991 0-1.3247-0.0155-1.4061-0.8599-0.0797-0.82641-0.12767-0.85989-1.2397-0.85989zm-1.248 4.8007c-2.8911 2e-3 -3.3822 0.0917-3.3822 0.35863 0 0.35585 0.8727 0.39718 7.1437 0.33538 4.5393-0.0447 7.1443-0.16726 7.1443-0.33538s-2.6049-0.29013-7.1443-0.33486c-1.5678-0.0155-2.7978-0.0245-3.7615-0.0238zm12.757 0.75551c-0.78573 0-0.79375 0.0147-0.79375 1.4552v1.4552h9.0232l-0.0801-1.3891c-0.078-1.3546-0.10093-1.3909-0.93948-1.4717-0.76807-0.0741-0.85989-0.0105-0.85989 0.59531 0 0.59872-0.10855 0.67799-0.92604 0.67799-0.81139 0-0.92605-0.0819-0.92605-0.66145 0-0.57956-0.11465-0.66146-0.92604-0.66146s-0.92604 0.0819-0.92604 0.66146c0 0.57957-0.11465 0.66145-0.92604 0.66145s-0.92604-0.0819-0.92604-0.66145c0-0.55856-0.12347-0.66146-0.79375-0.66146zm-24.559 0.26458c-0.67663-1.9e-4 -0.70691 0.0575-0.65991 1.2568 0.02709 0.69133 0.05686 1.2865 0.06615 1.3229 0.0093 0.0364 1.8625 0.0661 4.1181 0.0661h4.101v-1.3229c0-1.2246-0.0481-1.3229-0.64337-1.3229-0.46543 0-0.66641 0.16444-0.7276 0.59531-0.0648 0.45628-0.28507 0.61498-0.94413 0.67852-0.76806 0.0741-0.8599 0.0105-0.8599-0.59532 0-0.59872-0.10855-0.67851-0.92604-0.67851-0.81749 0-0.92604 0.0798-0.92604 0.67851 0 0.60579-0.09183 0.66937-0.8599 0.59532-0.65906-0.0635-0.87984-0.22224-0.94464-0.67852-0.06365-0.4482-0.2598-0.59515-0.79375-0.59531zm8.9483 0.52917v4.1543c0 2.2847 0.09574 4.0408 0.21291 3.9026 0.11717-0.13825 0.53303-0.68877 0.92398-1.2232 1.7477-2.389 6.1745-3.2355 9.0811-1.7368 1.2714 0.65557 2.7466 2.0501 2.7466 2.5967 0 0.13436 0.11907 0.24392 0.26459 0.24392 0.16463 0 0.26458-1.4993 0.26458-3.9688v-3.9688h-6.7469zm-9.7896 2.6458v0.79375c0 0.75652 0.05274 0.7939 1.1245 0.79944 1.3154 7e-3 2.9975 0.71795 3.8235 1.6164 1.3031 1.4175 1.402 2.1 1.402 9.7022 0 3.9095 0.0792 7.1878 0.17622 7.2848 0.09701 0.097 0.57326 0.17622 1.0583 0.17622h0.88212v-20.373h-4.2333zm24.606 0v10.01c0 5.5055 0.0792 10.089 0.17621 10.186 0.097 0.097 0.56493 0.17622 1.0397 0.17622h0.863l0.0853-7.3422c0.0818-7.081 0.10674-7.3869 0.70538-8.6026 0.76099-1.5453 2.2143-2.4726 4.5093-2.8768 1.4494-0.2553 1.617-0.35059 1.617-0.91829v-0.63304h-4.4979zm-24.606 1.7937v1.881c0 1.6157 0.06531 1.8815 0.46302 1.8815 0.3298 0 0.62938-0.4747 1.0408-1.649 0.31774-0.90699 0.55593-1.6701 0.52917-1.696-0.02677-0.0259-0.49506-0.13062-1.0408-0.23255zm32.874 0.0625c-1.3558 8e-3 -1.4594 0.2706-0.81339 2.066 0.42451 1.1798 0.7206 1.634 1.0645 1.634 0.41346 0 0.47646-0.24476 0.47646-1.8521 0-1.845-3e-3 -1.852-0.7276-1.848zm-15.947 0.27853c-0.0597-1.7e-4 -0.12127-2.5e-4 -0.18449 5.2e-4 -2.4604 0.0299-2.5043 0.0833-1.7229 2.0981 0.61947 1.5972 0.72307 1.7182 1.4562 1.6955 0.7078-0.022 0.85514-0.18534 1.4226-1.5803 0.34814-0.85569 0.57465-1.7081 0.50333-1.8939-0.0804-0.20951-0.57929-0.3173-1.4748-0.31988zm14.12 0.0233c-0.18588-9.5e-4 -1.6762 0.70067-1.91 0.90692-0.11101 0.0979 2.1423 2.7282 2.3477 2.7404 0.0728 4e-3 0.27663-0.0842 0.45321-0.19637 0.24352-0.15475 0.18399-0.58495-0.24598-1.7818-0.31178-0.86782-0.59366-1.6164-0.62684-1.6635-3e-3 -4e-3 -9e-3 -6e-3 -0.0181-6e-3zm-28.43 0.32763c-0.10364 4.9e-4 -0.18105 0.0178-0.21601 0.0563-0.34888 0.38453-1.0816 2.7957-0.92604 3.0474 0.26923 0.43562 0.59266 0.23059 1.6748-1.062 0.59563-0.71142 1.0831-1.3514 1.0831-1.4226 0-0.23736-1.1166-0.62144-1.6159-0.61908zm16.828 0.15968c-0.4431-6e-3 -0.76722 0.48787-1.1689 1.5896-0.54452 1.4934-0.55306 2.1151-0.0289 2.1151 0.12383 0 0.76937-0.62508 1.4345-1.3891l1.2092-1.3891-0.55346-0.46302c-0.35795-0.29947-0.64388-0.46009-0.89245-0.46354zm-5.5847 0.13022c-0.48489 7e-3 -1.6903 0.58988-1.6903 0.88212 0 0.11226 0.47625 0.66874 1.0583 1.2371 0.58208 0.56839 1.0533 1.1582 1.0475 1.3105-6e-3 0.15237-0.54856-0.30793-1.2066-1.0232l-1.1968-1.3007-0.71107 0.71882c-0.59908 0.60549-0.6485 0.75714-0.31419 0.96273 1.2814 0.78799 2.5235 1.5344 2.59 1.556 0.0423 0.0137 0.45899-0.24255 0.92604-0.56948s0.87657-0.60165 0.9095-0.61081c0.11339-0.0316-1.0265-2.896-1.2402-3.1166-0.0323-0.0333-0.0927-0.0477-0.17208-0.0465zm-9.2646 0.59635-1.094 1.28c-0.82111 0.96062-1.0234 1.3655-0.8108 1.6216 0.363 0.43738 0.26495 0.45995 1.6629-0.38447 1.3298-0.80324 1.4249-1.0562 0.72192-1.9244zm24.138 0.19223c-0.0993 4e-3 -0.19158 0.0568-0.29869 0.14573-1.0623 0.88161-0.98221 1.2372 0.47129 2.0841 1.4493 0.84452 1.9167 0.90732 1.9167 0.25683 0-0.21328-0.44345-0.90577-0.98496-1.5384-0.59619-0.69652-0.86918-0.95827-1.1043-0.94827zm-7.4678 0.0708-1.2635 1.479c-0.69482 0.81329-1.1867 1.6027-1.093 1.7544 0.24001 0.38835 0.29084 0.3736 2.0242-0.5793 0.85521-0.47015 1.5541-0.91663 1.5534-0.99218-8e-4 -0.0756-0.27582-0.48041-0.61133-0.89969zm6.2151 1.8268c-0.0322 1e-3 -0.0564 9e-3 -0.0718 0.0248-0.0869 0.0869-0.15813 0.49205-0.15813 0.9002 0 0.60893 0.1543 0.78764 0.8599 0.99529 1.0605 0.3121 1.8448 0.25594 1.9756-0.14159 0.1039-0.3159-2.1229-1.7986-2.6055-1.7787zm-21.854 0.26149c-0.27459 3e-3 -0.68206 0.16881-1.2361 0.49351-0.66933 0.39226-1.217 0.75137-1.217 0.7984 0 0.047 0.06664 0.26001 0.14831 0.47284 0.12537 0.32672 0.34165 0.33749 1.3891 0.0713 0.977-0.2483 1.2594-0.44483 1.3291-0.92501 0.08926-0.61464-0.03712-0.91532-0.41341-0.91105zm4.8286 0.23151c-0.07314-2e-4 -0.12875 0.0156-0.16278 0.0496-0.12353 0.12353-0.25813 0.51045-0.29869 0.85989-0.0667 0.57459 0.09107 0.67934 1.6464 1.0935 0.94588 0.25186 1.7496 0.46911 1.7859 0.48318 0.0364 0.0141 0.0662-0.20086 0.0662-0.47801 0-0.53028-2.33-2.0063-3.037-2.0081zm12.053 0.0362c-0.3023-2e-3 -0.77116 0.2133-1.5203 0.6351-1.9055 1.0729-1.7682 0.95164-1.5932 1.4077 0.12702 0.33102 0.39437 0.32115 1.9508-0.0739 1.658-0.4208 1.7964-0.51006 1.7146-1.1002-0.0808-0.58282-0.20929-0.86593-0.55191-0.86868zm4.8033 1.5193c-0.23353 5e-3 -0.23515 0.19374-0.17932 0.76067 0.0464 0.47144 0.092 0.88708 0.10129 0.92346 9e-3 0.0364 0.55284 0.0661 1.2077 0.0661 0.88195 0 1.1906-0.1029 1.1906-0.39688 0-0.21828-2e-3 -0.48617-5e-3 -0.59531-5e-3 -0.18836-0.25473-0.27918-1.882-0.68213-0.19454-0.0482-0.33445-0.0783-0.43305-0.076zm-21.58 0.1943c-0.1449 4e-3 -0.34928 0.041-0.63769 0.0951-1.2636 0.23706-1.3911 0.32399-1.3911 0.94723 0 0.43227 0.18846 0.51367 1.1906 0.51367 1.156 0 1.1906-0.0239 1.1906-0.82321 0-0.56788-0.0092-0.74254-0.35243-0.73277zm4.3873 0.25787c-0.3108-6e-3 -0.33073 0.1689-0.33073 0.73587v0.82682h1.8521c1.4482 0 1.8521-0.0842 1.8521-0.38654 0-0.36726-0.8633-0.69903-2.8587-1.0981-0.22686-0.0454-0.39308-0.0756-0.5147-0.078zm12.832 0c-0.12162 2e-3 -0.28731 0.0327-0.51419 0.078-1.9954 0.39909-2.8587 0.73086-2.8587 1.0981 0 0.30236 0.40389 0.38654 1.8521 0.38654h1.8521v-0.82682c0-0.56697-0.0204-0.74214-0.33124-0.73587zm4.1677 1.5622 0.0625 5.3583c0.0344 2.9469 0.0642 5.3876 0.0661 5.424 2e-3 0.0364 0.5394 0.0662 1.1942 0.0662h1.1906v-10.848h-1.2568zm-23.416 5.2e-4v10.848h2.3812v-10.848h-1.1906zm6.0854 0.2403v11.401h3.7145l-0.0713-5.6224-0.0713-5.6224-1.7859-0.078zm9.7896 0v11.401h3.7145l-0.0713-5.6224-0.0713-5.6224-1.7859-0.078zm-15.875 10.872v1.8521h4.7625v-1.8521h-2.3812zm20.902 0v1.8521h5.0271v-1.8521h-2.5135zm-14.817 0.79375v2.1167h3.7042v-2.1167h-1.8521zm9.7896 0v2.1167h3.7042v-2.1167h-1.8521z" fill="#fff" stroke="#000" stroke-width="1.165" style="paint-order:stroke fill markers"/></g></svg>
